<svg xmlns="http://www.w3.org/2000/svg" width="1400" height="1800" viewBox="0 0 1400 1800">
  <defs>
    <style>
      .sketch { stroke: #b8a080; fill: none; }
      .sketch-light { stroke: #b8a080; fill: none; opacity: 0.5; }
      .sketch-fill { fill: #b8a080; stroke: none; }
      .label { font-family: 'Fraunces', 'Georgia', serif; fill: #b8a080; font-size: 11px; font-style: italic; }
      .label-sm { font-family: 'Fraunces', 'Georgia', serif; fill: #b8a080; font-size: 8px; font-style: italic; }
      .annotation { font-family: 'Source Sans 3', sans-serif; fill: #b8a080; font-size: 7px; letter-spacing: 0.5px; }
    </style>
  </defs>

  <!-- ═══ TOP SECTION: Mechanical retrieval arm/crane (Da Vinci style) ═══ -->

  <g transform="translate(80, 50)" class="sketch" stroke-width="0.6" opacity="0.32">
    <!-- Base platform -->
    <path d="M0,180 Q3,178 40,180 Q80,182 120,180 Q160,178 200,180" />
    <line x1="0" y1="185" x2="200" y2="185" stroke-width="0.4" />
    <!-- Support column -->
    <rect x="85" y="60" width="30" height="120" rx="2" stroke-width="0.5" />
    <!-- Cross bracing on column -->
    <line x1="85" y1="80" x2="115" y2="120" stroke-width="0.3" />
    <line x1="115" y1="80" x2="85" y2="120" stroke-width="0.3" />
    <line x1="85" y1="130" x2="115" y2="160" stroke-width="0.3" />
    <!-- Pivot mechanism at top -->
    <circle cx="100" cy="55" r="12" stroke-width="0.5" />
    <circle cx="100" cy="55" r="5" stroke-width="0.4" />
    <circle cx="100" cy="55" r="2" class="sketch-fill" opacity="0.2" />
    <!-- Boom arm extending right -->
    <line x1="112" y1="52" x2="280" y2="25" stroke-width="0.7" />
    <line x1="112" y1="58" x2="280" y2="31" stroke-width="0.5" />
    <!-- Diagonal support cable -->
    <line x1="100" y1="43" x2="240" y2="28" stroke-width="0.3" stroke-dasharray="2 3" />
    <!-- Counterweight on left -->
    <line x1="88" y1="52" x2="30" y2="35" stroke-width="0.5" />
    <rect x="10" y="30" width="25" height="20" rx="2" />
    <line x1="15" y1="35" x2="30" y2="35" stroke-width="0.3" />
    <line x1="15" y1="40" x2="30" y2="40" stroke-width="0.3" />
    <!-- Pulley at boom end -->
    <circle cx="280" cy="28" r="6" stroke-width="0.4" />
    <circle cx="280" cy="28" r="2" class="sketch-fill" opacity="0.15" />
    <!-- Cable dropping down from pulley -->
    <line x1="280" y1="34" x2="280" y2="90" stroke-width="0.4" />
    <!-- Claw/gripper at end of cable -->
    <path d="M270,90 L280,105 L290,90" stroke-width="0.5" />
    <path d="M268,90 L275,100" stroke-width="0.4" />
    <path d="M292,90 L285,100" stroke-width="0.4" />
    <!-- Document being grabbed -->
    <rect x="265" y="105" width="30" height="20" rx="1" stroke-width="0.4" />
    <line x1="270" y1="110" x2="290" y2="110" stroke-width="0.2" />
    <line x1="270" y1="114" x2="288" y2="114" stroke-width="0.2" />
    <line x1="270" y1="118" x2="285" y2="118" stroke-width="0.2" />
    <!-- Stack of documents below -->
    <rect x="260" y="130" width="35" height="8" rx="1" stroke-width="0.35" />
    <rect x="258" y="138" width="35" height="8" rx="1" stroke-width="0.35" />
    <rect x="262" y="146" width="35" height="8" rx="1" stroke-width="0.35" />
    <rect x="256" y="154" width="35" height="8" rx="1" stroke-width="0.35" />
    <rect x="260" y="162" width="35" height="8" rx="1" stroke-width="0.35" />
    <!-- Gear mechanism at base -->
    <circle cx="50" cy="170" r="15" stroke-width="0.3" />
    <circle cx="50" cy="170" r="10" stroke-dasharray="2 2" stroke-width="0.25" />
    <circle cx="50" cy="170" r="3" />
    <circle cx="72" cy="178" r="8" stroke-width="0.3" />
    <circle cx="72" cy="178" r="4" />
    <!-- Measurement annotations -->
    <line x1="310" y1="25" x2="310" y2="165" stroke-width="0.2" stroke-dasharray="1 3" />
    <line x1="306" y1="25" x2="314" y2="25" stroke-width="0.2" />
    <line x1="306" y1="165" x2="314" y2="165" stroke-width="0.2" />
    <text class="annotation" x="315" y="98">h = φ²</text>
    <text class="label" x="60" y="210">machina quaerendi</text>
  </g>

  <!-- ═══ TOP RIGHT: Seed of Life (compact, construction-style) ═══ -->

  <g transform="translate(550, 30)" class="sketch" stroke-width="0.35" opacity="0.18">
    <circle cx="40" cy="40" r="25" />
    <circle cx="40" cy="15" r="25" />
    <circle cx="40" cy="65" r="25" />
    <circle cx="18.35" cy="27.5" r="25" />
    <circle cx="61.65" cy="27.5" r="25" />
    <circle cx="18.35" cy="52.5" r="25" />
    <circle cx="61.65" cy="52.5" r="25" />
    <!-- Outer enclosing circle -->
    <circle cx="40" cy="40" r="50" stroke-dasharray="2 3" />
    <circle cx="40" cy="40" r="2" class="sketch-fill" opacity="0.12" />
    <text class="label-sm" x="10" y="100">semen vitae</text>
  </g>

  <!-- ═══ LEFT SIDE: Vector space diagram (neural embeddings) ═══ -->

  <g transform="translate(60, 300)" class="sketch" stroke-width="0.4" opacity="0.26">
    <!-- Coordinate axes -->
    <line x1="0" y1="160" x2="200" y2="160" stroke-width="0.5" />
    <line x1="20" y1="0" x2="20" y2="170" stroke-width="0.5" />
    <!-- Axis arrows -->
    <polygon points="200,157 200,163 210,160" class="sketch-fill" opacity="0.2" />
    <polygon points="17,0 23,0 20,-8" class="sketch-fill" opacity="0.2" />
    <text class="annotation" x="195" y="175">d₁</text>
    <text class="annotation" x="5" y="8">d₂</text>
    <!-- Cluster 1 - documents (tight grouping) -->
    <circle cx="60" cy="45" r="3.5" class="sketch-fill" opacity="0.18" />
    <circle cx="72" cy="55" r="3" class="sketch-fill" opacity="0.15" />
    <circle cx="55" cy="60" r="3" class="sketch-fill" opacity="0.15" />
    <circle cx="68" cy="40" r="2.5" class="sketch-fill" opacity="0.12" />
    <circle cx="50" cy="50" r="2.5" class="sketch-fill" opacity="0.12" />
    <!-- Cluster boundary -->
    <ellipse cx="61" cy="50" rx="22" ry="18" stroke-dasharray="2 3" stroke-width="0.3" />
    <text class="annotation" x="40" y="78">corpus A</text>
    <!-- Cluster 2 - queries -->
    <circle cx="140" cy="100" r="3.5" class="sketch-fill" opacity="0.18" />
    <circle cx="155" cy="90" r="3" class="sketch-fill" opacity="0.15" />
    <circle cx="148" cy="110" r="3" class="sketch-fill" opacity="0.15" />
    <circle cx="160" cy="105" r="2.5" class="sketch-fill" opacity="0.12" />
    <circle cx="135" cy="95" r="2.5" class="sketch-fill" opacity="0.12" />
    <!-- Cluster boundary -->
    <ellipse cx="148" cy="100" rx="20" ry="16" stroke-dasharray="2 3" stroke-width="0.3" />
    <text class="annotation" x="130" y="125">corpus B</text>
    <!-- Cluster 3 - scattered -->
    <circle cx="100" cy="140" r="3" class="sketch-fill" opacity="0.15" />
    <circle cx="115" cy="135" r="2.5" class="sketch-fill" opacity="0.12" />
    <circle cx="90" cy="145" r="2.5" class="sketch-fill" opacity="0.12" />
    <!-- Connecting lines (similarity vectors) -->
    <line x1="72" y1="55" x2="135" y2="95" stroke-width="0.25" stroke-dasharray="3 4" />
    <line x1="60" y1="45" x2="140" y2="100" stroke-width="0.25" stroke-dasharray="3 4" />
    <line x1="55" y1="60" x2="100" y2="140" stroke-width="0.2" stroke-dasharray="3 4" />
    <!-- Query point (highlighted) -->
    <circle cx="110" cy="70" r="5" stroke-width="0.6" />
    <line x1="110" y1="65" x2="110" y2="75" stroke-width="0.3" />
    <line x1="105" y1="70" x2="115" y2="70" stroke-width="0.3" />
    <text class="annotation" x="118" y="68">quaestio</text>
    <!-- Distance annotation -->
    <line x1="110" y1="70" x2="60" y2="45" stroke-width="0.3" />
    <text class="annotation" x="70" y="35">cos θ = 0.93</text>
    <text class="label" x="40" y="190">spatium vectoris</text>
  </g>

  <!-- ═══ CENTER: AutoRAG pipeline flow diagram ═══ -->

  <g transform="translate(350, 480)" class="sketch" stroke-width="0.6" opacity="0.28">
    <!-- Stage 1: Documents -->
    <rect x="0" y="25" width="70" height="30" rx="3" />
    <line x1="10" y1="35" x2="55" y2="35" stroke-width="0.2" />
    <line x1="10" y1="39" x2="50" y2="39" stroke-width="0.2" />
    <line x1="10" y1="43" x2="45" y2="43" stroke-width="0.2" />
    <text class="annotation" x="10" y="68">DOCUMENTA</text>
    <!-- Arrow 1 -->
    <line x1="70" y1="40" x2="105" y2="40" stroke-width="0.4" />
    <polygon points="103,37 110,40 103,43" class="sketch-fill" opacity="0.25" />
    <!-- Stage 2: Chunking -->
    <rect x="110" y="20" width="65" height="40" rx="3" />
    <!-- Chunk visualization - split document -->
    <line x1="120" y1="30" x2="155" y2="30" stroke-width="0.2" />
    <line x1="120" y1="35" x2="150" y2="35" stroke-width="0.2" />
    <line x1="120" y1="42" x2="160" y2="42" stroke-width="0.15" stroke-dasharray="1 1" />
    <line x1="120" y1="47" x2="155" y2="47" stroke-width="0.2" />
    <line x1="120" y1="52" x2="145" y2="52" stroke-width="0.2" />
    <text class="annotation" x="118" y="72">DIVISIO</text>
    <!-- Arrow 2 -->
    <line x1="175" y1="40" x2="210" y2="40" stroke-width="0.4" />
    <polygon points="208,37 215,40 208,43" class="sketch-fill" opacity="0.25" />
    <!-- Stage 3: Embedding -->
    <rect x="215" y="20" width="65" height="40" rx="3" />
    <!-- Embedding visualization - vector dots -->
    <circle cx="230" cy="32" r="2" class="sketch-fill" opacity="0.15" />
    <circle cx="242" cy="38" r="2" class="sketch-fill" opacity="0.15" />
    <circle cx="255" cy="35" r="2" class="sketch-fill" opacity="0.15" />
    <circle cx="237" cy="48" r="2" class="sketch-fill" opacity="0.15" />
    <circle cx="260" cy="45" r="2" class="sketch-fill" opacity="0.15" />
    <line x1="230" y1="32" x2="242" y2="38" stroke-width="0.2" />
    <line x1="242" y1="38" x2="255" y2="35" stroke-width="0.2" />
    <line x1="237" y1="48" x2="260" y2="45" stroke-width="0.2" />
    <text class="annotation" x="220" y="72">IMMERSIO</text>
    <!-- Arrow 3 -->
    <line x1="280" y1="40" x2="315" y2="40" stroke-width="0.4" />
    <polygon points="313,37 320,40 313,43" class="sketch-fill" opacity="0.25" />
    <!-- Stage 4: Retrieval -->
    <rect x="320" y="15" width="75" height="50" rx="4" stroke-width="0.7" />
    <!-- Retrieval visualization - funnel shape -->
    <path d="M335,25 L380,25 L370,38 L345,38 Z" stroke-width="0.3" />
    <path d="M345,38 L370,38 L365,50 L350,50 Z" stroke-width="0.3" />
    <circle cx="357" cy="55" r="3" stroke-width="0.3" />
    <text class="annotation" x="328" y="78">RECUPERATIO</text>
    <!-- Score annotations -->
    <text class="annotation" x="400" y="30">k=5</text>
    <text class="annotation" x="400" y="42">top_p=0.9</text>
    <text class="annotation" x="400" y="54">MRR@10</text>
    <!-- AutoRAG optimization arrows (cycling back) -->
    <path d="M395,70 Q420,90 395,100 Q340,110 300,100 Q240,90 200,100 Q130,110 80,100 Q40,90 50,75" stroke-width="0.35" stroke-dasharray="3 3" />
    <polygon points="48,77 42,72 52,72" class="sketch-fill" opacity="0.2" />
    <text class="annotation" x="180" y="118">OPTIMIZATIO AUTOMATICA</text>
    <text class="label" x="120" y="140">canalis recuperationis automaticae</text>
  </g>

  <!-- ═══ RIGHT SIDE: Gears / clockwork mechanism (data processing) ═══ -->

  <g transform="translate(1000, 300)" class="sketch" stroke-width="0.4" opacity="0.24">
    <!-- Large main gear -->
    <circle cx="70" cy="70" r="55" />
    <circle cx="70" cy="70" r="47" stroke-dasharray="4 3" />
    <circle cx="70" cy="70" r="18" />
    <circle cx="70" cy="70" r="6" class="sketch-fill" opacity="0.1" />
    <!-- Gear teeth on large gear (8 teeth) -->
    <line x1="70" y1="15" x2="70" y2="6" stroke-width="0.5" />
    <line x1="70" y1="125" x2="70" y2="134" stroke-width="0.5" />
    <line x1="15" y1="70" x2="6" y2="70" stroke-width="0.5" />
    <line x1="125" y1="70" x2="134" y2="70" stroke-width="0.5" />
    <line x1="31" y1="31" x2="25" y2="25" stroke-width="0.5" />
    <line x1="109" y1="31" x2="115" y2="25" stroke-width="0.5" />
    <line x1="31" y1="109" x2="25" y2="115" stroke-width="0.5" />
    <line x1="109" y1="109" x2="115" y2="115" stroke-width="0.5" />
    <!-- Tooth caps -->
    <rect x="66" y="2" width="8" height="5" rx="1" stroke-width="0.3" />
    <rect x="66" y="133" width="8" height="5" rx="1" stroke-width="0.3" />
    <rect x="2" y="66" width="5" height="8" rx="1" stroke-width="0.3" />
    <rect x="133" y="66" width="5" height="8" rx="1" stroke-width="0.3" />
    <!-- Medium gear (meshing top-right) -->
    <circle cx="155" cy="15" r="35" />
    <circle cx="155" cy="15" r="28" stroke-dasharray="3 2" />
    <circle cx="155" cy="15" r="10" />
    <circle cx="155" cy="15" r="4" class="sketch-fill" opacity="0.1" />
    <!-- Teeth on medium gear -->
    <line x1="155" y1="-20" x2="155" y2="-27" stroke-width="0.4" />
    <line x1="155" y1="50" x2="155" y2="57" stroke-width="0.4" />
    <line x1="120" y1="15" x2="113" y2="15" stroke-width="0.4" />
    <line x1="190" y1="15" x2="197" y2="15" stroke-width="0.4" />
    <!-- Small gear (meshing bottom-right) -->
    <circle cx="145" cy="130" r="22" />
    <circle cx="145" cy="130" r="16" stroke-dasharray="2 2" />
    <circle cx="145" cy="130" r="6" />
    <!-- Connecting rod from small gear -->
    <line x1="145" y1="152" x2="145" y2="175" stroke-width="0.3" />
    <circle cx="145" cy="175" r="3" stroke-width="0.3" />
    <!-- Axle lines -->
    <line x1="70" y1="64" x2="70" y2="76" stroke-width="0.8" />
    <line x1="64" y1="70" x2="76" y2="70" stroke-width="0.8" />
    <text class="label" x="30" y="165">machina processandi</text>
  </g>

  <!-- ═══ CENTER-LEFT: Hypercube / Tesseract (4D projection) ═══ -->

  <g transform="translate(60, 650)" class="sketch" stroke-width="0.35" opacity="0.18">
    <!-- Outer cube -->
    <rect x="0" y="0" width="100" height="100" />
    <!-- Inner cube (shifted for perspective) -->
    <rect x="25" y="25" width="60" height="60" stroke-dasharray="2 2" />
    <!-- Connecting corners (outer to inner = 4D edges) -->
    <line x1="0" y1="0" x2="25" y2="25" stroke-width="0.3" />
    <line x1="100" y1="0" x2="85" y2="25" stroke-width="0.3" />
    <line x1="100" y1="100" x2="85" y2="85" stroke-width="0.3" />
    <line x1="0" y1="100" x2="25" y2="85" stroke-width="0.3" />
    <!-- Diagonals through center for depth illusion -->
    <line x1="0" y1="0" x2="85" y2="85" stroke-width="0.15" stroke-dasharray="3 5" />
    <line x1="100" y1="0" x2="25" y2="85" stroke-width="0.15" stroke-dasharray="3 5" />
    <!-- Center point -->
    <circle cx="50" cy="50" r="2" class="sketch-fill" opacity="0.1" />
    <text class="label-sm" x="10" y="120">hypercubus</text>
    <text class="label-sm" x="10" y="132">dimensio IV</text>
  </g>

  <!-- ═══ CENTER: Full Flower of Life (expanded, 19+ circles with enclosing ring) ═══ -->

  <g transform="translate(450, 780)" class="sketch-light" stroke-width="0.35" opacity="0.16">
    <!-- Seed of Life — inner 7 circles -->
    <circle cx="120" cy="120" r="40" />
    <circle cx="120" cy="80" r="40" />
    <circle cx="120" cy="160" r="40" />
    <circle cx="85.36" cy="100" r="40" />
    <circle cx="154.64" cy="100" r="40" />
    <circle cx="85.36" cy="140" r="40" />
    <circle cx="154.64" cy="140" r="40" />
    <!-- Second ring — 12 petals -->
    <circle cx="120" cy="40" r="40" />
    <circle cx="120" cy="200" r="40" />
    <circle cx="50.72" cy="80" r="40" />
    <circle cx="189.28" cy="80" r="40" />
    <circle cx="50.72" cy="160" r="40" />
    <circle cx="189.28" cy="160" r="40" />
    <circle cx="85.36" cy="60" r="40" />
    <circle cx="154.64" cy="60" r="40" />
    <circle cx="85.36" cy="180" r="40" />
    <circle cx="154.64" cy="180" r="40" />
    <circle cx="50.72" cy="120" r="40" />
    <circle cx="189.28" cy="120" r="40" />
    <!-- Enclosing circle with construction marks -->
    <circle cx="120" cy="120" r="120" stroke-dasharray="4 4" stroke-width="0.3" />
    <circle cx="120" cy="120" r="125" stroke-dasharray="1 8" stroke-width="0.2" />
    <!-- Center seed dot -->
    <circle cx="120" cy="120" r="2.5" class="sketch-fill" opacity="0.12" />
    <!-- Construction crosshairs -->
    <line x1="120" y1="-5" x2="120" y2="245" stroke-width="0.15" stroke-dasharray="6 8" />
    <line x1="-5" y1="120" x2="245" y2="120" stroke-width="0.15" stroke-dasharray="6 8" />
    <text class="label" x="50" y="265">flos vitae universalis</text>
  </g>

  <!-- ═══ RIGHT CENTER: Tree of Life / Kabbalah Sephirot ═══ -->

  <g transform="translate(980, 650)" class="sketch" stroke-width="0.4" opacity="0.17">
    <!-- 10 Sephirot (nodes) — classical layout -->
    <!-- Crown (Kether) -->
    <circle cx="70" cy="0" r="12" />
    <!-- Wisdom & Understanding -->
    <circle cx="30" cy="45" r="10" />
    <circle cx="110" cy="45" r="10" />
    <!-- Knowledge (Da'at) - hidden, dashed -->
    <circle cx="70" cy="70" r="8" stroke-dasharray="2 2" />
    <!-- Mercy & Severity -->
    <circle cx="30" cy="105" r="10" />
    <circle cx="110" cy="105" r="10" />
    <!-- Beauty (Tiferet) - center -->
    <circle cx="70" cy="130" r="12" />
    <!-- Victory & Splendor -->
    <circle cx="30" cy="175" r="10" />
    <circle cx="110" cy="175" r="10" />
    <!-- Foundation -->
    <circle cx="70" cy="210" r="10" />
    <!-- Kingdom (Malkuth) -->
    <circle cx="70" cy="260" r="12" />
    <!-- Paths (connecting lines) — The Three Pillars -->
    <!-- Left pillar -->
    <line x1="30" y1="55" x2="30" y2="95" stroke-width="0.3" />
    <line x1="30" y1="115" x2="30" y2="165" stroke-width="0.3" />
    <!-- Right pillar -->
    <line x1="110" y1="55" x2="110" y2="95" stroke-width="0.3" />
    <line x1="110" y1="115" x2="110" y2="165" stroke-width="0.3" />
    <!-- Middle pillar -->
    <line x1="70" y1="12" x2="70" y2="62" stroke-width="0.3" />
    <line x1="70" y1="78" x2="70" y2="118" stroke-width="0.3" />
    <line x1="70" y1="142" x2="70" y2="200" stroke-width="0.3" />
    <line x1="70" y1="220" x2="70" y2="248" stroke-width="0.3" />
    <!-- Cross paths -->
    <line x1="70" y1="12" x2="30" y2="35" stroke-width="0.25" />
    <line x1="70" y1="12" x2="110" y2="35" stroke-width="0.25" />
    <line x1="30" y1="55" x2="110" y2="95" stroke-width="0.2" stroke-dasharray="2 3" />
    <line x1="110" y1="55" x2="30" y2="95" stroke-width="0.2" stroke-dasharray="2 3" />
    <line x1="30" y1="55" x2="70" y2="118" stroke-width="0.2" />
    <line x1="110" y1="55" x2="70" y2="118" stroke-width="0.2" />
    <line x1="30" y1="115" x2="70" y2="142" stroke-width="0.2" />
    <line x1="110" y1="115" x2="70" y2="142" stroke-width="0.2" />
    <line x1="30" y1="185" x2="70" y2="200" stroke-width="0.25" />
    <line x1="110" y1="185" x2="70" y2="200" stroke-width="0.25" />
    <line x1="30" y1="185" x2="70" y2="248" stroke-width="0.2" stroke-dasharray="2 3" />
    <line x1="110" y1="185" x2="70" y2="248" stroke-width="0.2" stroke-dasharray="2 3" />
    <!-- Enclosing oval -->
    <ellipse cx="70" cy="130" rx="65" ry="145" stroke-dasharray="4 6" stroke-width="0.2" />
    <text class="label-sm" x="15" y="290">arbor vitae — sephirot</text>
  </g>

  <!-- ═══ LOWER LEFT: Scroll with measurement annotations ═══ -->

  <g transform="translate(70, 1100)" class="sketch" stroke-width="0.5" opacity="0.25">
    <!-- Scroll body -->
    <path d="M10,0 Q0,0 0,15 L0,150 Q0,165 10,165 L110,165 Q120,165 120,150 L120,15 Q120,0 110,0 Z" />
    <!-- Scroll rolls at top and bottom -->
    <ellipse cx="60" cy="5" rx="55" ry="7" />
    <ellipse cx="60" cy="162" rx="55" ry="6" stroke-dasharray="2 3" />
    <!-- Text lines (manuscript content) -->
    <line x1="15" y1="25" x2="105" y2="25" stroke-width="0.3" />
    <line x1="15" y1="33" x2="95" y2="33" stroke-width="0.3" />
    <line x1="15" y1="41" x2="100" y2="41" stroke-width="0.3" />
    <line x1="15" y1="49" x2="80" y2="49" stroke-width="0.3" />
    <!-- Dividing line -->
    <line x1="15" y1="60" x2="105" y2="60" stroke-width="0.2" stroke-dasharray="2 2" />
    <!-- Diagram section: chunk size measurement -->
    <rect x="20" y="70" width="40" height="15" rx="1" stroke-width="0.3" />
    <rect x="20" y="90" width="25" height="15" rx="1" stroke-width="0.3" />
    <rect x="50" y="90" width="30" height="15" rx="1" stroke-width="0.3" />
    <!-- Measurement arrows -->
    <line x1="20" y1="112" x2="60" y2="112" stroke-width="0.2" />
    <line x1="20" y1="110" x2="20" y2="114" stroke-width="0.2" />
    <line x1="60" y1="110" x2="60" y2="114" stroke-width="0.2" />
    <text class="annotation" x="28" y="120">512 tokens</text>
    <line x1="20" y1="130" x2="45" y2="130" stroke-width="0.2" />
    <line x1="50" y1="130" x2="80" y2="130" stroke-width="0.2" />
    <text class="annotation" x="22" y="140">256</text>
    <text class="annotation" x="58" y="140">256</text>
    <!-- Compass rose (small) -->
    <circle cx="95" cy="130" r="12" stroke-dasharray="2 3" stroke-width="0.3" />
    <line x1="95" y1="118" x2="95" y2="142" stroke-width="0.3" />
    <line x1="83" y1="130" x2="107" y2="130" stroke-width="0.3" />
    <polygon points="95,116 93,122 97,122" class="sketch-fill" opacity="0.15" />
    <text class="label-sm" x="20" y="185">codex mensurae fragmentorum</text>
  </g>

  <!-- ═══ LOWER CENTER: Dodecahedron wireframe ═══ -->

  <g transform="translate(400, 1150)" class="sketch" stroke-width="0.35" opacity="0.16">
    <!-- Outer pentagon -->
    <polygon points="75,0 143,49 117,128 33,128 7,49" />
    <!-- Inner pentagon (rotated, smaller — back face) -->
    <polygon points="75,30 118,58 102,108 48,108 32,58" stroke-dasharray="2 3" />
    <!-- Connecting edges between front and back pentagons -->
    <line x1="75" y1="0" x2="75" y2="30" stroke-width="0.3" />
    <line x1="143" y1="49" x2="118" y2="58" stroke-width="0.3" />
    <line x1="117" y1="128" x2="102" y2="108" stroke-width="0.3" />
    <line x1="33" y1="128" x2="48" y2="108" stroke-width="0.3" />
    <line x1="7" y1="49" x2="32" y2="58" stroke-width="0.3" />
    <!-- Center point -->
    <circle cx="75" cy="64" r="2" class="sketch-fill" opacity="0.1" />
    <!-- Construction circle -->
    <circle cx="75" cy="64" r="72" stroke-dasharray="4 6" stroke-width="0.2" />
    <text class="label-sm" x="30" y="155">dodecahedron regularis</text>
  </g>

  <!-- ═══ LOWER RIGHT: Golden spiral with phi annotation ═══ -->

  <g transform="translate(850, 1200)" class="sketch" stroke-width="0.5" opacity="0.2">
    <!-- Golden rectangle subdivisions -->
    <rect x="0" y="0" width="200" height="123.6" />
    <rect x="0" y="0" width="123.6" height="123.6" />
    <rect x="123.6" y="0" width="76.4" height="76.4" />
    <rect x="123.6" y="76.4" width="47.2" height="47.2" />
    <rect x="170.8" y="76.4" width="29.2" height="29.2" />
    <rect x="170.8" y="105.6" width="18" height="18" stroke-width="0.3" />
    <!-- Spiral arcs -->
    <path d="M123.6,123.6 Q123.6,0 0,0" stroke-width="0.6" />
    <path d="M123.6,0 Q200,0 200,76.4" stroke-width="0.6" />
    <path d="M200,76.4 Q200,123.6 170.8,123.6" stroke-width="0.5" />
    <path d="M170.8,123.6 Q123.6,123.6 123.6,105.6" stroke-width="0.5" />
    <path d="M123.6,105.6 Q123.6,76.4 142,76.4" stroke-width="0.4" />
    <!-- Phi annotation -->
    <text class="label" x="50" y="145">φ = 1.6180339...</text>
    <text class="label-sm" x="130" y="115">proportio divina</text>
    <!-- Fibonacci numbers along edge -->
    <text class="annotation" x="55" y="65">1</text>
    <text class="annotation" x="140" y="40">1</text>
    <text class="annotation" x="160" y="95">2</text>
    <text class="annotation" x="95" y="135">3</text>
    <text class="annotation" x="5" y="135">5</text>
  </g>

  <!-- ═══ BOTTOM: Sri Yantra / nested triangles ═══ -->

  <g transform="translate(500, 1500)" class="sketch" stroke-width="0.3" opacity="0.14">
    <!-- Outer circle -->
    <circle cx="70" cy="65" r="65" />
    <circle cx="70" cy="65" r="60" stroke-dasharray="2 3" />
    <!-- Upward triangles (Shiva) -->
    <polygon points="70,5 130,110 10,110" stroke-width="0.35" />
    <polygon points="70,20 118,100 22,100" stroke-width="0.25" stroke-dasharray="2 2" />
    <polygon points="70,32 110,92 30,92" stroke-width="0.2" />
    <!-- Downward triangles (Shakti) -->
    <polygon points="70,125 10,20 130,20" stroke-width="0.35" />
    <polygon points="70,110 22,30 118,30" stroke-width="0.25" stroke-dasharray="2 2" />
    <polygon points="70,98 30,38 110,38" stroke-width="0.2" />
    <!-- Bindu (center point) -->
    <circle cx="70" cy="65" r="3" class="sketch-fill" opacity="0.15" />
    <!-- Gate squares (bhupura) -->
    <rect x="0" y="0" width="140" height="130" rx="3" stroke-width="0.2" stroke-dasharray="4 4" />
    <text class="label-sm" x="25" y="150">yantra sacrum</text>
  </g>

  <!-- ═══ SCATTERED: Grid dots (diamond shapes) ═══ -->

  <g class="sketch-fill" opacity="0.06">
    <!-- Diamond shapes instead of circles -->
    <polygon points="350,298 352,300 350,302 348,300" />
    <polygon points="700,448 702,450 700,452 698,450" />
    <polygon points="1100,648 1102,650 1100,652 1098,650" />
    <polygon points="200,998 202,1000 200,1002 198,1000" />
    <polygon points="850,1048 852,1050 850,1052 848,1050" />
    <polygon points="1250,898 1252,900 1250,902 1248,900" />
    <polygon points="300,1448 302,1450 300,1452 298,1450" />
    <polygon points="1000,1398 1002,1400 1000,1402 998,1400" />
    <!-- Additional grid intersections (diamond) -->
    <polygon points="150,478 152,480 150,482 148,480" />
    <polygon points="750,678 752,680 750,682 748,680" />
    <polygon points="400,918 402,920 400,922 398,920" />
    <polygon points="1300,548 1302,550 1300,552 1298,550" />
    <polygon points="600,1198 602,1200 600,1202 598,1200" />
    <polygon points="300,1098 302,1100 300,1102 298,1100" />
    <polygon points="900,1548 902,1550 900,1552 898,1550" />
    <polygon points="1200,1098 1202,1100 1200,1102 1198,1100" />
    <!-- Extra scattered diamonds -->
    <polygon points="180,220 182,222 180,224 178,222" />
    <polygon points="920,380 922,382 920,384 918,382" />
    <polygon points="1320,750 1322,752 1320,754 1318,752" />
    <polygon points="480,1350 482,1352 480,1354 478,1352" />
  </g>

  <!-- ═══ Faint notebook ruled lines (Da Vinci style) ═══ -->

  <g class="sketch" stroke-width="0.15" opacity="0.04">
    <line x1="0" y1="300" x2="1400" y2="300" />
    <line x1="0" y1="600" x2="1400" y2="600" />
    <line x1="0" y1="900" x2="1400" y2="900" />
    <line x1="0" y1="1200" x2="1400" y2="1200" />
    <line x1="0" y1="1500" x2="1400" y2="1500" />
    <line x1="350" y1="0" x2="350" y2="1800" />
    <line x1="700" y1="0" x2="700" y2="1800" />
    <line x1="1050" y1="0" x2="1050" y2="1800" />
  </g>

  <!-- ═══ Small measurement/construction mark (compass) ═══ -->

  <g transform="translate(1200, 180)" class="sketch" stroke-width="0.3" opacity="0.15">
    <circle cx="30" cy="30" r="25" />
    <circle cx="30" cy="30" r="18" stroke-dasharray="2 3" />
    <line x1="30" y1="5" x2="30" y2="55" />
    <line x1="5" y1="30" x2="55" y2="30" />
    <path d="M30,5 L33,15 L27,15 Z" class="sketch-fill" opacity="0.2" />
  </g>

  <!-- ═══ Additional AutoRAG-specific sketch: Evaluation metrics table ═══ -->

  <g transform="translate(780, 560)" class="sketch" stroke-width="0.4" opacity="0.2">
    <!-- Table frame -->
    <rect x="0" y="0" width="160" height="95" rx="2" />
    <!-- Header row -->
    <line x1="0" y1="18" x2="160" y2="18" stroke-width="0.5" />
    <!-- Column dividers -->
    <line x1="55" y1="0" x2="55" y2="95" stroke-width="0.25" />
    <line x1="110" y1="0" x2="110" y2="95" stroke-width="0.25" />
    <!-- Headers -->
    <text class="annotation" x="10" y="12">CONFIG</text>
    <text class="annotation" x="65" y="12">RECALL</text>
    <text class="annotation" x="118" y="12">NDCG</text>
    <!-- Row 1 -->
    <text class="annotation" x="8" y="33">chunk_512</text>
    <text class="annotation" x="72" y="33">0.91</text>
    <text class="annotation" x="125" y="33">0.87</text>
    <!-- Row 2 -->
    <text class="annotation" x="8" y="48">chunk_256</text>
    <text class="annotation" x="72" y="48">0.88</text>
    <text class="annotation" x="125" y="48">0.84</text>
    <!-- Row 3 -->
    <text class="annotation" x="8" y="63">hybrid_v2</text>
    <text class="annotation" x="72" y="63">0.94</text>
    <text class="annotation" x="125" y="63">0.92</text>
    <!-- Row 4 -->
    <text class="annotation" x="8" y="78">semantic</text>
    <text class="annotation" x="72" y="78">0.86</text>
    <text class="annotation" x="125" y="78">0.81</text>
    <!-- Winner highlight -->
    <rect x="1" y="54" width="158" height="14" rx="1" stroke-dasharray="2 2" stroke-width="0.5" />
    <text class="annotation" x="140" y="90">★</text>
    <text class="label-sm" x="30" y="110">tabula experimentorum</text>
  </g>

  <!-- ═══ Additional: Pipeline tuning knobs (Da Vinci mechanism) ═══ -->

  <g transform="translate(1150, 530)" class="sketch" stroke-width="0.35" opacity="0.2">
    <!-- Vertical panel -->
    <rect x="0" y="0" width="60" height="120" rx="3" />
    <!-- Knob 1 -->
    <circle cx="30" cy="25" r="10" />
    <line x1="30" y1="25" x2="38" y2="20" stroke-width="0.5" />
    <text class="annotation" x="45" y="28">k</text>
    <!-- Knob 2 -->
    <circle cx="30" cy="60" r="10" />
    <line x1="30" y1="60" x2="25" y2="52" stroke-width="0.5" />
    <text class="annotation" x="45" y="63">top_p</text>
    <!-- Slider 3 -->
    <line x1="10" y1="95" x2="50" y2="95" stroke-width="0.5" />
    <circle cx="35" cy="95" r="4" class="sketch-fill" opacity="0.15" />
    <circle cx="35" cy="95" r="4" />
    <text class="annotation" x="45" y="100">temp</text>
    <text class="label-sm" x="2" y="138">parametri</text>
  </g>

  <!-- ═══ Faint mirror writing hints (reversed text like Da Vinci) ═══ -->

  <g opacity="0.06">
    <text class="label" x="1100" y="1150" transform="scale(-1,1) translate(-2200,0)">cognitio automatica</text>
    <text class="label-sm" x="200" y="1450" transform="scale(-1,1) translate(-400,0)">recuperatio optima</text>
    <text class="label-sm" x="800" y="700" transform="scale(-1,1) translate(-1600,0)">fragmenta sapientiae</text>
    <text class="label-sm" x="600" y="1650" transform="scale(-1,1) translate(-1200,0)">ordo ab chao</text>
    <text class="label-sm" x="1050" y="480" transform="scale(-1,1) translate(-2100,0)">machina perpetua</text>
    <text class="label-sm" x="300" y="850" transform="scale(-1,1) translate(-600,0)">ars quaerendi</text>
  </g>

  <!-- ═══ Additional Latin annotations scattered ═══ -->

  <g opacity="0.1">
    <text class="label-sm" x="680" y="470">documentum → fragmentum → vector</text>
    <text class="annotation" x="1260" y="720">n = 1024</text>
    <text class="annotation" x="280" y="640">embedding dim</text>
    <text class="label-sm" x="720" y="1140">forma perfecta</text>
    <text class="annotation" x="1100" y="1050">iter. XLII</text>
  </g>

</svg>