<svg xmlns="http://www.w3.org/2000/svg" width="1400" height="1800" viewBox="0 0 1400 1800">
  <defs>
    <style>
      .sketch { stroke: #b8a080; fill: none; }
      .sketch-light { stroke: #b8a080; fill: none; opacity: 0.5; }
      .sketch-fill { fill: #b8a080; stroke: none; }
      .label { font-family: 'Fraunces', 'Georgia', serif; fill: #b8a080; font-size: 11px; font-style: italic; }
      .label-sm { font-family: 'Fraunces', 'Georgia', serif; fill: #b8a080; font-size: 8px; font-style: italic; }
      .annotation { font-family: 'Source Sans 3', sans-serif; fill: #b8a080; font-size: 7px; letter-spacing: 0.5px; }
    </style>
  </defs>

  <!-- ═══ TOP: Vitruvian Man — simplified geometric figure in circle and square ═══ -->

  <g transform="translate(500, 40)" class="sketch" stroke-width="0.6" opacity="0.3">
    <!-- Enclosing square -->
    <rect x="0" y="20" width="280" height="280" stroke-dasharray="4 4" />
    <!-- Enclosing circle -->
    <circle cx="140" cy="160" r="150" />
    <!-- Construction crosshairs -->
    <line x1="140" y1="5" x2="140" y2="315" stroke-width="0.2" stroke-dasharray="4 6" />
    <line x1="-15" y1="160" x2="295" y2="160" stroke-width="0.2" stroke-dasharray="4 6" />
    <!-- Head -->
    <circle cx="140" cy="52" r="18" />
    <!-- Face features — minimal -->
    <line x1="133" y1="48" x2="136" y2="48" stroke-width="0.4" />
    <line x1="144" y1="48" x2="147" y2="48" stroke-width="0.4" />
    <path d="M136,57 Q140,61 144,57" stroke-width="0.3" />
    <!-- Neck -->
    <line x1="140" y1="70" x2="140" y2="82" stroke-width="0.5" />
    <!-- Torso -->
    <line x1="140" y1="82" x2="140" y2="175" stroke-width="0.5" />
    <!-- Shoulders -->
    <line x1="110" y1="90" x2="170" y2="90" stroke-width="0.5" />
    <!-- Arms outstretched (primary pose) -->
    <line x1="110" y1="90" x2="40" y2="120" stroke-width="0.5" />
    <line x1="40" y1="120" x2="0" y2="160" stroke-width="0.5" />
    <line x1="170" y1="90" x2="240" y2="120" stroke-width="0.5" />
    <line x1="240" y1="120" x2="280" y2="160" stroke-width="0.5" />
    <!-- Arms raised (secondary pose, lighter) -->
    <line x1="110" y1="90" x2="55" y2="55" stroke-width="0.3" stroke-dasharray="2 2" />
    <line x1="55" y1="55" x2="20" y2="30" stroke-width="0.3" stroke-dasharray="2 2" />
    <line x1="170" y1="90" x2="225" y2="55" stroke-width="0.3" stroke-dasharray="2 2" />
    <line x1="225" y1="55" x2="260" y2="30" stroke-width="0.3" stroke-dasharray="2 2" />
    <!-- Hips -->
    <line x1="125" y1="175" x2="155" y2="175" stroke-width="0.4" />
    <!-- Legs (primary pose) -->
    <line x1="125" y1="175" x2="110" y2="260" stroke-width="0.5" />
    <line x1="110" y1="260" x2="105" y2="298" stroke-width="0.5" />
    <line x1="155" y1="175" x2="170" y2="260" stroke-width="0.5" />
    <line x1="170" y1="260" x2="175" y2="298" stroke-width="0.5" />
    <!-- Legs spread (secondary pose, lighter) -->
    <line x1="125" y1="175" x2="70" y2="280" stroke-width="0.3" stroke-dasharray="2 2" />
    <line x1="70" y1="280" x2="50" y2="310" stroke-width="0.3" stroke-dasharray="2 2" />
    <line x1="155" y1="175" x2="210" y2="280" stroke-width="0.3" stroke-dasharray="2 2" />
    <line x1="210" y1="280" x2="230" y2="310" stroke-width="0.3" stroke-dasharray="2 2" />
    <!-- Navel / golden ratio point -->
    <circle cx="140" cy="160" r="3" stroke-dasharray="1 2" stroke-width="0.3" />
    <circle cx="140" cy="160" r="1" class="sketch-fill" opacity="0.15" />
    <!-- Proportion marks -->
    <line x1="90" y1="52" x2="85" y2="52" stroke-width="0.3" />
    <line x1="90" y1="90" x2="85" y2="90" stroke-width="0.3" />
    <line x1="90" y1="160" x2="85" y2="160" stroke-width="0.3" />
    <line x1="90" y1="175" x2="85" y2="175" stroke-width="0.3" />
    <text class="label" x="80" y="340">homo universalis</text>
    <text class="annotation" x="80" y="352">proportio divina — navel at center of circle</text>
  </g>

  <!-- ═══ TOP RIGHT: Seed of Life (construction-style) ═══ -->

  <g transform="translate(1150, 50)" class="sketch" stroke-width="0.35" opacity="0.18">
    <circle cx="40" cy="40" r="25" />
    <circle cx="40" cy="15" r="25" />
    <circle cx="40" cy="65" r="25" />
    <circle cx="18.35" cy="27.5" r="25" />
    <circle cx="61.65" cy="27.5" r="25" />
    <circle cx="18.35" cy="52.5" r="25" />
    <circle cx="61.65" cy="52.5" r="25" />
    <!-- Outer enclosing circle -->
    <circle cx="40" cy="40" r="50" stroke-dasharray="2 3" />
    <circle cx="40" cy="40" r="2" class="sketch-fill" opacity="0.12" />
    <text class="label-sm" x="10" y="100">semen vitae</text>
  </g>

  <!-- ═══ LEFT: Human and robot hands reaching — Creation of Adam style ═══ -->

  <g transform="translate(60, 420)" class="sketch" stroke-width="0.5" opacity="0.28">
    <!-- Human hand (left, reaching right) -->
    <!-- Forearm -->
    <path d="M0,60 Q20,58 60,50 Q80,46 100,42" stroke-width="0.6" />
    <path d="M0,75 Q20,72 60,65 Q80,60 95,55" stroke-width="0.5" />
    <!-- Palm -->
    <path d="M100,42 Q110,38 120,36 Q130,35 135,38 Q140,42 135,48 Q130,52 120,53 Q110,54 100,55 Q97,55 95,55" stroke-width="0.5" />
    <!-- Index finger (extended, reaching) -->
    <path d="M135,38 Q145,34 158,30 Q168,27 178,26" stroke-width="0.5" />
    <!-- Middle finger -->
    <path d="M136,41 Q148,38 160,36 Q170,35 175,36" stroke-width="0.4" />
    <!-- Ring finger (slightly curled) -->
    <path d="M135,45 Q145,44 155,44 Q162,45 165,47" stroke-width="0.35" />
    <!-- Pinky (curled more) -->
    <path d="M132,50 Q140,50 148,52 Q153,54 155,57" stroke-width="0.3" />
    <!-- Thumb -->
    <path d="M108,52 Q112,58 118,62 Q124,64 128,62" stroke-width="0.4" />
    <!-- Wrist detail lines -->
    <line x1="90" y1="44" x2="90" y2="54" stroke-width="0.2" />
    <line x1="85" y1="45" x2="85" y2="55" stroke-width="0.2" />

    <!-- Spark / energy gap -->
    <line x1="180" y1="26" x2="183" y2="25" stroke-width="0.3" stroke-dasharray="1 2" />
    <circle cx="185" cy="25" r="2" stroke-width="0.2" stroke-dasharray="1 1" />
    <line x1="187" y1="25" x2="190" y2="26" stroke-width="0.3" stroke-dasharray="1 2" />

    <!-- Robot hand (right, reaching left) -->
    <!-- Forearm — mechanical, segmented -->
    <path d="M370,60 Q350,58 310,50 Q290,46 270,42" stroke-width="0.6" />
    <path d="M370,75 Q350,72 310,65 Q290,60 275,55" stroke-width="0.5" />
    <!-- Mechanical joint lines on forearm -->
    <line x1="330" y1="52" x2="330" y2="66" stroke-width="0.3" />
    <line x1="310" y1="50" x2="310" y2="64" stroke-width="0.3" />
    <circle cx="330" cy="59" r="3" stroke-width="0.25" />
    <circle cx="310" cy="57" r="3" stroke-width="0.25" />
    <!-- Palm — angular, mechanical -->
    <path d="M270,42 Q260,38 250,36 Q240,35 235,38 Q230,42 235,48 Q240,52 250,53 Q260,54 270,55 Q273,55 275,55" stroke-width="0.5" />
    <!-- Plate lines on palm -->
    <line x1="245" y1="40" x2="255" y2="50" stroke-width="0.2" />
    <line x1="250" y1="38" x2="260" y2="48" stroke-width="0.2" />
    <!-- Index finger (extended, reaching, segmented) -->
    <path d="M235,38 Q225,34 212,30 Q202,27 192,26" stroke-width="0.5" />
    <circle cx="222" cy="33" r="1.5" stroke-width="0.25" />
    <circle cx="207" cy="28" r="1.5" stroke-width="0.25" />
    <!-- Middle finger -->
    <path d="M234,41 Q222,38 210,36 Q200,35 195,36" stroke-width="0.4" />
    <circle cx="215" cy="37" r="1.5" stroke-width="0.2" />
    <!-- Ring finger -->
    <path d="M235,45 Q225,44 215,44 Q208,45 205,47" stroke-width="0.35" />
    <!-- Pinky -->
    <path d="M238,50 Q230,50 222,52 Q217,54 215,57" stroke-width="0.3" />
    <!-- Thumb -->
    <path d="M262,52 Q258,58 252,62 Q246,64 242,62" stroke-width="0.4" />

    <text class="label" x="100" y="100">manus creatoris</text>
    <text class="annotation" x="100" y="112">homo et machina — the spark of collaboration</text>
  </g>

  <!-- ═══ CENTER: Organizational diagram — interconnected team nodes ═══ -->

  <g transform="translate(450, 550)" class="sketch" stroke-width="0.5" opacity="0.25">
    <!-- Central node (leader / core) -->
    <circle cx="150" cy="80" r="16" />
    <circle cx="150" cy="80" r="8" stroke-dasharray="1 2" />
    <circle cx="150" cy="80" r="2" class="sketch-fill" opacity="0.15" />

    <!-- Upper tier nodes -->
    <circle cx="60" cy="30" r="11" />
    <circle cx="150" cy="10" r="11" />
    <circle cx="240" cy="30" r="11" />

    <!-- Middle tier nodes -->
    <circle cx="30" cy="100" r="10" />
    <circle cx="270" cy="100" r="10" />

    <!-- Lower tier nodes -->
    <circle cx="60" cy="160" r="10" />
    <circle cx="150" cy="170" r="10" />
    <circle cx="240" cy="160" r="10" />

    <!-- Connections to center -->
    <line x1="66" y1="38" x2="138" y2="70" stroke-width="0.4" />
    <line x1="150" y1="21" x2="150" y2="64" stroke-width="0.4" />
    <line x1="234" y1="38" x2="162" y2="70" stroke-width="0.4" />
    <line x1="39" y1="95" x2="135" y2="82" stroke-width="0.4" />
    <line x1="261" y1="95" x2="165" y2="82" stroke-width="0.4" />
    <line x1="66" y1="153" x2="138" y2="90" stroke-width="0.4" />
    <line x1="150" y1="160" x2="150" y2="96" stroke-width="0.4" />
    <line x1="234" y1="153" x2="162" y2="90" stroke-width="0.4" />

    <!-- Peer connections (dashed) -->
    <line x1="71" y1="30" x2="139" y2="13" stroke-width="0.25" stroke-dasharray="2 3" />
    <line x1="161" y1="13" x2="229" y2="30" stroke-width="0.25" stroke-dasharray="2 3" />
    <line x1="60" y1="41" x2="35" y2="91" stroke-width="0.25" stroke-dasharray="2 3" />
    <line x1="240" y1="41" x2="265" y2="91" stroke-width="0.25" stroke-dasharray="2 3" />
    <line x1="35" y1="109" x2="55" y2="152" stroke-width="0.25" stroke-dasharray="2 3" />
    <line x1="265" y1="109" x2="245" y2="152" stroke-width="0.25" stroke-dasharray="2 3" />
    <line x1="70" y1="163" x2="140" y2="170" stroke-width="0.25" stroke-dasharray="2 3" />
    <line x1="160" y1="170" x2="230" y2="163" stroke-width="0.25" stroke-dasharray="2 3" />

    <!-- Node labels -->
    <text class="annotation" x="145" y="83">C</text>
    <text class="annotation" x="55" y="33">A</text>
    <text class="annotation" x="145" y="13">B</text>
    <text class="annotation" x="235" y="33">D</text>

    <text class="label" x="80" y="200">societas ingeniorum</text>
    <text class="annotation" x="80" y="212">network of minds — stronger together</text>
  </g>

  <!-- ═══ RIGHT: Da Vinci flying machine sketch ═══ -->

  <g transform="translate(1000, 250)" class="sketch" stroke-width="0.5" opacity="0.25">
    <!-- Fuselage / central body -->
    <path d="M100,80 L120,75 L140,80 L120,85 Z" stroke-width="0.6" />
    <!-- Cockpit / pilot area -->
    <circle cx="120" cy="80" r="8" stroke-width="0.4" />
    <!-- Stick figure pilot -->
    <circle cx="120" cy="76" r="2.5" stroke-width="0.3" />
    <line x1="120" y1="78" x2="120" y2="84" stroke-width="0.3" />

    <!-- Left wing (bat-like, Da Vinci ornithopter style) -->
    <path d="M100,80 Q60,60 20,55 Q10,54 5,58" stroke-width="0.6" />
    <path d="M100,80 Q70,78 30,80 Q15,82 5,85" stroke-width="0.4" />
    <!-- Wing ribs (left) -->
    <line x1="80" y1="72" x2="75" y2="80" stroke-width="0.25" />
    <line x1="60" y1="65" x2="55" y2="80" stroke-width="0.25" />
    <line x1="40" y1="60" x2="35" y2="80" stroke-width="0.25" />
    <line x1="20" y1="57" x2="18" y2="80" stroke-width="0.25" />
    <!-- Wing membrane (left) -->
    <path d="M5,58 Q10,70 5,85" stroke-width="0.3" stroke-dasharray="2 2" />

    <!-- Right wing (bat-like) -->
    <path d="M140,80 Q180,60 220,55 Q230,54 235,58" stroke-width="0.6" />
    <path d="M140,80 Q170,78 210,80 Q225,82 235,85" stroke-width="0.4" />
    <!-- Wing ribs (right) -->
    <line x1="160" y1="72" x2="165" y2="80" stroke-width="0.25" />
    <line x1="180" y1="65" x2="185" y2="80" stroke-width="0.25" />
    <line x1="200" y1="60" x2="205" y2="80" stroke-width="0.25" />
    <line x1="220" y1="57" x2="222" y2="80" stroke-width="0.25" />
    <!-- Wing membrane (right) -->
    <path d="M235,58 Q230,70 235,85" stroke-width="0.3" stroke-dasharray="2 2" />

    <!-- Tail structure -->
    <path d="M120,85 L120,115" stroke-width="0.4" />
    <path d="M105,110 Q120,105 135,110" stroke-width="0.4" />
    <path d="M108,115 Q120,110 132,115" stroke-width="0.3" stroke-dasharray="2 2" />

    <!-- Mechanical linkage lines -->
    <line x1="100" y1="80" x2="90" y2="90" stroke-width="0.2" stroke-dasharray="1 2" />
    <line x1="140" y1="80" x2="150" y2="90" stroke-width="0.2" stroke-dasharray="1 2" />
    <line x1="90" y1="90" x2="120" y2="95" stroke-width="0.2" stroke-dasharray="1 2" />
    <line x1="150" y1="90" x2="120" y2="95" stroke-width="0.2" stroke-dasharray="1 2" />

    <!-- Construction dimension line -->
    <line x1="5" y1="95" x2="235" y2="95" stroke-width="0.15" stroke-dasharray="3 5" />
    <line x1="5" y1="92" x2="5" y2="98" stroke-width="0.2" />
    <line x1="235" y1="92" x2="235" y2="98" stroke-width="0.2" />

    <text class="label" x="60" y="140">machina volandi</text>
    <text class="annotation" x="60" y="152">alis mechanicis — per aspera ad astra</text>
  </g>

  <!-- ═══ CENTER-LEFT: Tesseract / Hypercube ═══ -->

  <g transform="translate(70, 700)" class="sketch" stroke-width="0.35" opacity="0.18">
    <!-- Outer cube -->
    <rect x="0" y="0" width="110" height="110" />
    <!-- Inner cube (shifted for perspective) -->
    <rect x="28" y="28" width="65" height="65" stroke-dasharray="2 2" />
    <!-- Connecting corners (outer to inner = 4D edges) -->
    <line x1="0" y1="0" x2="28" y2="28" stroke-width="0.3" />
    <line x1="110" y1="0" x2="93" y2="28" stroke-width="0.3" />
    <line x1="110" y1="110" x2="93" y2="93" stroke-width="0.3" />
    <line x1="0" y1="110" x2="28" y2="93" stroke-width="0.3" />
    <!-- Diagonals through center for depth illusion -->
    <line x1="0" y1="0" x2="93" y2="93" stroke-width="0.15" stroke-dasharray="3 5" />
    <line x1="110" y1="0" x2="28" y2="93" stroke-width="0.15" stroke-dasharray="3 5" />
    <!-- Additional 4D diagonal connections -->
    <line x1="0" y1="110" x2="93" y2="28" stroke-width="0.12" stroke-dasharray="3 5" />
    <line x1="110" y1="110" x2="28" y2="28" stroke-width="0.12" stroke-dasharray="3 5" />
    <!-- Center point -->
    <circle cx="55" cy="55" r="2.5" class="sketch-fill" opacity="0.1" />
    <!-- Enclosing circle -->
    <circle cx="55" cy="55" r="65" stroke-dasharray="3 5" stroke-width="0.2" />
    <text class="label-sm" x="10" y="135">hypercubus</text>
    <text class="label-sm" x="10" y="147">dimensio IV</text>
  </g>

  <!-- ═══ CENTER: Full Flower of Life (19+ circles, Da Vinci study) ═══ -->

  <g transform="translate(480, 800)" class="sketch-light" stroke-width="0.35" opacity="0.16">
    <!-- Seed of Life — inner 7 circles -->
    <circle cx="120" cy="120" r="40" />
    <circle cx="120" cy="80" r="40" />
    <circle cx="120" cy="160" r="40" />
    <circle cx="85.36" cy="100" r="40" />
    <circle cx="154.64" cy="100" r="40" />
    <circle cx="85.36" cy="140" r="40" />
    <circle cx="154.64" cy="140" r="40" />
    <!-- Second ring — 12 petals -->
    <circle cx="120" cy="40" r="40" />
    <circle cx="120" cy="200" r="40" />
    <circle cx="50.72" cy="80" r="40" />
    <circle cx="189.28" cy="80" r="40" />
    <circle cx="50.72" cy="160" r="40" />
    <circle cx="189.28" cy="160" r="40" />
    <circle cx="85.36" cy="60" r="40" />
    <circle cx="154.64" cy="60" r="40" />
    <circle cx="85.36" cy="180" r="40" />
    <circle cx="154.64" cy="180" r="40" />
    <circle cx="50.72" cy="120" r="40" />
    <circle cx="189.28" cy="120" r="40" />
    <!-- Enclosing circle with construction marks -->
    <circle cx="120" cy="120" r="120" stroke-dasharray="4 4" stroke-width="0.3" />
    <circle cx="120" cy="120" r="125" stroke-dasharray="1 8" stroke-width="0.2" />
    <!-- Center seed dot -->
    <circle cx="120" cy="120" r="2.5" class="sketch-fill" opacity="0.12" />
    <!-- Construction crosshairs -->
    <line x1="120" y1="-5" x2="120" y2="245" stroke-width="0.15" stroke-dasharray="6 8" />
    <line x1="-5" y1="120" x2="245" y2="120" stroke-width="0.15" stroke-dasharray="6 8" />
    <text class="label" x="50" y="265">flos vitae universalis</text>
  </g>

  <!-- ═══ RIGHT CENTER: Tree of Life / Kabbalah Sephirot ═══ -->

  <g transform="translate(980, 580)" class="sketch" stroke-width="0.4" opacity="0.17">
    <!-- 10 Sephirot (nodes) — classical layout -->
    <!-- Crown (Kether) -->
    <circle cx="70" cy="0" r="12" />
    <text class="annotation" x="63" y="3">I</text>
    <!-- Wisdom & Understanding -->
    <circle cx="30" cy="45" r="10" />
    <circle cx="110" cy="45" r="10" />
    <!-- Knowledge (Da'at) - hidden, dashed -->
    <circle cx="70" cy="70" r="8" stroke-dasharray="2 2" />
    <!-- Mercy & Severity -->
    <circle cx="30" cy="105" r="10" />
    <circle cx="110" cy="105" r="10" />
    <!-- Beauty (Tiferet) - center -->
    <circle cx="70" cy="130" r="12" />
    <!-- Victory & Splendor -->
    <circle cx="30" cy="175" r="10" />
    <circle cx="110" cy="175" r="10" />
    <!-- Foundation -->
    <circle cx="70" cy="210" r="10" />
    <!-- Kingdom (Malkuth) -->
    <circle cx="70" cy="260" r="12" />

    <!-- Paths (connecting lines) — The Three Pillars -->
    <!-- Left pillar -->
    <line x1="30" y1="55" x2="30" y2="95" stroke-width="0.3" />
    <line x1="30" y1="115" x2="30" y2="165" stroke-width="0.3" />
    <!-- Right pillar -->
    <line x1="110" y1="55" x2="110" y2="95" stroke-width="0.3" />
    <line x1="110" y1="115" x2="110" y2="165" stroke-width="0.3" />
    <!-- Middle pillar -->
    <line x1="70" y1="12" x2="70" y2="62" stroke-width="0.3" />
    <line x1="70" y1="78" x2="70" y2="118" stroke-width="0.3" />
    <line x1="70" y1="142" x2="70" y2="200" stroke-width="0.3" />
    <line x1="70" y1="220" x2="70" y2="248" stroke-width="0.3" />
    <!-- Cross paths -->
    <line x1="70" y1="12" x2="30" y2="35" stroke-width="0.25" />
    <line x1="70" y1="12" x2="110" y2="35" stroke-width="0.25" />
    <line x1="30" y1="55" x2="110" y2="95" stroke-width="0.2" stroke-dasharray="2 3" />
    <line x1="110" y1="55" x2="30" y2="95" stroke-width="0.2" stroke-dasharray="2 3" />
    <line x1="30" y1="55" x2="70" y2="118" stroke-width="0.2" />
    <line x1="110" y1="55" x2="70" y2="118" stroke-width="0.2" />
    <line x1="30" y1="115" x2="70" y2="142" stroke-width="0.2" />
    <line x1="110" y1="115" x2="70" y2="142" stroke-width="0.2" />
    <line x1="30" y1="185" x2="70" y2="200" stroke-width="0.25" />
    <line x1="110" y1="185" x2="70" y2="200" stroke-width="0.25" />
    <line x1="30" y1="185" x2="70" y2="248" stroke-width="0.2" stroke-dasharray="2 3" />
    <line x1="110" y1="185" x2="70" y2="248" stroke-width="0.2" stroke-dasharray="2 3" />

    <!-- Enclosing oval -->
    <ellipse cx="70" cy="130" rx="65" ry="145" stroke-dasharray="4 6" stroke-width="0.2" />
    <text class="label-sm" x="15" y="290">arbor vitae — sephirot</text>
  </g>

  <!-- ═══ LOWER LEFT: Open book / codex with annotations ═══ -->

  <g transform="translate(80, 1150)" class="sketch" stroke-width="0.5" opacity="0.25">
    <!-- Left page -->
    <path d="M120,0 Q115,5 10,8 Q0,10 0,15 L0,140 Q0,145 10,143 Q115,140 120,145" stroke-width="0.5" />
    <!-- Right page -->
    <path d="M120,0 Q125,5 230,8 Q240,10 240,15 L240,140 Q240,145 230,143 Q125,140 120,145" stroke-width="0.5" />
    <!-- Spine -->
    <line x1="120" y1="0" x2="120" y2="145" stroke-width="0.6" />
    <!-- Spine curve detail -->
    <path d="M118,0 Q116,72 118,145" stroke-width="0.2" />
    <path d="M122,0 Q124,72 122,145" stroke-width="0.2" />

    <!-- Left page text lines -->
    <line x1="15" y1="25" x2="110" y2="23" stroke-width="0.2" />
    <line x1="15" y1="35" x2="100" y2="33" stroke-width="0.2" />
    <line x1="15" y1="45" x2="105" y2="43" stroke-width="0.2" />
    <line x1="15" y1="55" x2="80" y2="53" stroke-width="0.2" />
    <line x1="15" y1="70" x2="110" y2="68" stroke-width="0.2" />
    <line x1="15" y1="80" x2="95" y2="78" stroke-width="0.2" />
    <line x1="15" y1="90" x2="107" y2="88" stroke-width="0.2" />
    <line x1="15" y1="100" x2="70" y2="98" stroke-width="0.2" />
    <!-- Left page diagram (small circle diagram) -->
    <circle cx="60" cy="120" r="12" stroke-width="0.25" stroke-dasharray="2 2" />
    <line x1="48" y1="120" x2="72" y2="120" stroke-width="0.2" />
    <line x1="60" y1="108" x2="60" y2="132" stroke-width="0.2" />

    <!-- Right page text lines -->
    <line x1="130" y1="25" x2="228" y2="23" stroke-width="0.2" />
    <line x1="130" y1="35" x2="220" y2="33" stroke-width="0.2" />
    <line x1="130" y1="45" x2="225" y2="43" stroke-width="0.2" />
    <line x1="130" y1="55" x2="200" y2="53" stroke-width="0.2" />
    <line x1="130" y1="70" x2="228" y2="68" stroke-width="0.2" />
    <line x1="130" y1="80" x2="215" y2="78" stroke-width="0.2" />
    <line x1="130" y1="90" x2="222" y2="88" stroke-width="0.2" />
    <!-- Right page: small sketched figure (annotation style) -->
    <rect x="155" y="100" width="50" height="35" rx="2" stroke-width="0.25" stroke-dasharray="2 3" />
    <line x1="160" y1="108" x2="200" y2="108" stroke-width="0.15" />
    <line x1="160" y1="115" x2="195" y2="115" stroke-width="0.15" />
    <line x1="160" y1="122" x2="198" y2="122" stroke-width="0.15" />
    <line x1="160" y1="129" x2="185" y2="129" stroke-width="0.15" />

    <!-- Bookmark ribbon -->
    <path d="M115,0 L112,10 L115,8 L118,10 L115,0" stroke-width="0.3" />

    <text class="label" x="60" y="168">codex universalis</text>
    <text class="annotation" x="60" y="180">scientia scripta — knowledge preserved</text>
  </g>

  <!-- ═══ LOWER CENTER: Metatron's Cube ═══ -->

  <g transform="translate(500, 1300)" class="sketch" stroke-width="0.3" opacity="0.17">
    <!-- 13 circles of Metatron's Cube -->
    <circle cx="80" cy="80" r="10" />
    <!-- Inner ring of 6 -->
    <circle cx="80" cy="47" r="10" />
    <circle cx="108.56" cy="63.5" r="10" />
    <circle cx="108.56" cy="96.5" r="10" />
    <circle cx="80" cy="113" r="10" />
    <circle cx="51.44" cy="96.5" r="10" />
    <circle cx="51.44" cy="63.5" r="10" />
    <!-- Outer ring of 6 -->
    <circle cx="80" cy="14" r="10" stroke-dasharray="1 2" />
    <circle cx="137.12" cy="47" r="10" stroke-dasharray="1 2" />
    <circle cx="137.12" cy="113" r="10" stroke-dasharray="1 2" />
    <circle cx="80" cy="146" r="10" stroke-dasharray="1 2" />
    <circle cx="22.88" cy="113" r="10" stroke-dasharray="1 2" />
    <circle cx="22.88" cy="47" r="10" stroke-dasharray="1 2" />
    <!-- Connecting lines through all 13 centers -->
    <line x1="80" y1="14" x2="137.12" y2="113" stroke-width="0.2" />
    <line x1="80" y1="14" x2="22.88" y2="113" stroke-width="0.2" />
    <line x1="137.12" y1="47" x2="22.88" y2="113" stroke-width="0.2" />
    <line x1="137.12" y1="47" x2="80" y2="146" stroke-width="0.2" />
    <line x1="137.12" y1="113" x2="22.88" y2="47" stroke-width="0.2" />
    <line x1="22.88" y1="47" x2="80" y2="146" stroke-width="0.2" />
    <line x1="80" y1="14" x2="80" y2="146" stroke-width="0.2" />
    <line x1="22.88" y1="47" x2="137.12" y2="47" stroke-width="0.2" />
    <line x1="22.88" y1="113" x2="137.12" y2="113" stroke-width="0.2" />
    <!-- Additional star lines -->
    <line x1="80" y1="14" x2="137.12" y2="47" stroke-width="0.15" />
    <line x1="137.12" y1="47" x2="137.12" y2="113" stroke-width="0.15" />
    <line x1="137.12" y1="113" x2="80" y2="146" stroke-width="0.15" />
    <line x1="80" y1="146" x2="22.88" y2="113" stroke-width="0.15" />
    <line x1="22.88" y1="113" x2="22.88" y2="47" stroke-width="0.15" />
    <line x1="22.88" y1="47" x2="80" y2="14" stroke-width="0.15" />
    <!-- Enclosing circle -->
    <circle cx="80" cy="80" r="78" stroke-dasharray="3 4" stroke-width="0.25" />
    <text class="label-sm" x="25" y="172">cubus Metatronis</text>
  </g>

  <!-- ═══ LOWER RIGHT: Golden Spiral with phi ═══ -->

  <g transform="translate(950, 1250)" class="sketch" stroke-width="0.4" opacity="0.2">
    <!-- Golden rectangles (nested) -->
    <rect x="0" y="0" width="200" height="124" />
    <line x1="124" y1="0" x2="124" y2="124" stroke-width="0.3" stroke-dasharray="2 3" />
    <rect x="124" y="0" width="76" height="76" stroke-dasharray="2 2" stroke-width="0.25" />
    <line x1="124" y1="76" x2="172" y2="76" stroke-width="0.2" stroke-dasharray="2 3" />
    <rect x="124" y="76" width="47" height="48" stroke-dasharray="2 2" stroke-width="0.2" />
    <rect x="171" y="76" width="29" height="30" stroke-dasharray="2 2" stroke-width="0.2" />
    <rect x="171" y="106" width="18" height="18" stroke-dasharray="2 2" stroke-width="0.15" />

    <!-- Golden spiral (quarter arcs approximation) -->
    <path d="M124,124 Q124,0 0,0" stroke-width="0.6" />
    <path d="M124,0 Q200,0 200,76" stroke-width="0.5" />
    <path d="M200,76 Q200,124 172,124" stroke-width="0.45" />
    <path d="M172,124 Q172,106 171,106" stroke-width="0.4" />
    <path d="M124,76 Q124,106 171,106" stroke-width="0.35" />
    <path d="M171,76 Q171,76 189,76" stroke-width="0.3" stroke-dasharray="1 2" />

    <!-- Phi annotation -->
    <text class="annotation" x="55" y="65">1.618...</text>
    <text class="annotation" x="130" y="40">1</text>
    <text class="annotation" x="138" y="100">0.618</text>

    <!-- Dimension arrows -->
    <line x1="0" y1="132" x2="200" y2="132" stroke-width="0.2" />
    <line x1="0" y1="129" x2="0" y2="135" stroke-width="0.2" />
    <line x1="200" y1="129" x2="200" y2="135" stroke-width="0.2" />
    <text class="annotation" x="85" y="140">φ</text>

    <text class="label-sm" x="50" y="160">sectio aurea — spiralis divina</text>
  </g>

  <!-- ═══ BOTTOM: Sri Yantra ═══ -->

  <g transform="translate(450, 1530)" class="sketch" stroke-width="0.35" opacity="0.18">
    <!-- Outer square frame (bhupura) with gates -->
    <rect x="0" y="0" width="260" height="220" stroke-width="0.4" />
    <rect x="8" y="8" width="244" height="204" stroke-width="0.3" />
    <!-- Gates (4 openings) -->
    <line x1="115" y1="0" x2="115" y2="8" stroke-width="0.3" />
    <line x1="145" y1="0" x2="145" y2="8" stroke-width="0.3" />
    <line x1="115" y1="212" x2="115" y2="220" stroke-width="0.3" />
    <line x1="145" y1="212" x2="145" y2="220" stroke-width="0.3" />
    <line x1="0" y1="95" x2="8" y2="95" stroke-width="0.3" />
    <line x1="0" y1="125" x2="8" y2="125" stroke-width="0.3" />
    <line x1="252" y1="95" x2="260" y2="95" stroke-width="0.3" />
    <line x1="252" y1="125" x2="260" y2="125" stroke-width="0.3" />

    <!-- Outer circle (lotus ring) -->
    <circle cx="130" cy="110" r="105" stroke-dasharray="3 2" stroke-width="0.3" />
    <circle cx="130" cy="110" r="95" stroke-width="0.3" />

    <!-- 9 interlocking triangles (4 pointing up, 5 pointing down) — simplified -->
    <!-- Upward triangles (Shiva / masculine) -->
    <polygon points="130,22 40,175 220,175" stroke-width="0.3" />
    <polygon points="130,38 55,165 205,165" stroke-width="0.25" />
    <polygon points="130,55 70,155 190,155" stroke-width="0.25" />
    <polygon points="130,68 80,148 180,148" stroke-width="0.2" />

    <!-- Downward triangles (Shakti / feminine) -->
    <polygon points="130,198 40,45 220,45" stroke-width="0.3" />
    <polygon points="130,185 55,55 205,55" stroke-width="0.25" />
    <polygon points="130,172 70,65 190,65" stroke-width="0.25" />
    <polygon points="130,162 78,72 182,72" stroke-width="0.2" />
    <polygon points="130,152 85,80 175,80" stroke-width="0.18" />

    <!-- Bindu (central point) -->
    <circle cx="130" cy="110" r="3" class="sketch-fill" opacity="0.15" />
    <circle cx="130" cy="110" r="6" stroke-dasharray="1 2" stroke-width="0.2" />

    <text class="label" x="75" y="240">sri yantra — unitas omnium</text>
  </g>

  <!-- ═══ SCATTERED: Grid dots pattern (upper) ═══ -->

  <g class="sketch-fill" opacity="0.06">
    <!-- Upper grid dots -->
    <circle cx="50" cy="50" r="1" /><circle cx="80" cy="50" r="1" /><circle cx="110" cy="50" r="1" />
    <circle cx="50" cy="80" r="1" /><circle cx="80" cy="80" r="1" /><circle cx="110" cy="80" r="1" />
    <circle cx="50" cy="110" r="1" /><circle cx="80" cy="110" r="1" /><circle cx="110" cy="110" r="1" />
    <!-- Right side grid dots -->
    <circle cx="1250" cy="450" r="1" /><circle cx="1280" cy="450" r="1" /><circle cx="1310" cy="450" r="1" /><circle cx="1340" cy="450" r="1" />
    <circle cx="1250" cy="480" r="1" /><circle cx="1280" cy="480" r="1" /><circle cx="1310" cy="480" r="1" /><circle cx="1340" cy="480" r="1" />
    <circle cx="1250" cy="510" r="1" /><circle cx="1280" cy="510" r="1" /><circle cx="1310" cy="510" r="1" /><circle cx="1340" cy="510" r="1" />
    <circle cx="1250" cy="540" r="1" /><circle cx="1280" cy="540" r="1" /><circle cx="1310" cy="540" r="1" /><circle cx="1340" cy="540" r="1" />
    <!-- Lower left grid dots -->
    <circle cx="350" cy="1100" r="1" /><circle cx="380" cy="1100" r="1" /><circle cx="410" cy="1100" r="1" />
    <circle cx="350" cy="1130" r="1" /><circle cx="380" cy="1130" r="1" /><circle cx="410" cy="1130" r="1" />
    <circle cx="350" cy="1160" r="1" /><circle cx="380" cy="1160" r="1" /><circle cx="410" cy="1160" r="1" />
    <!-- Mid left dots -->
    <circle cx="30" cy="380" r="1" /><circle cx="60" cy="380" r="1" /><circle cx="90" cy="380" r="1" />
    <circle cx="30" cy="410" r="1" /><circle cx="60" cy="410" r="1" /><circle cx="90" cy="410" r="1" />
  </g>

  <!-- ═══ SCATTERED: Notebook lines ═══ -->

  <g class="sketch" stroke-width="0.15" opacity="0.06">
    <!-- Horizontal notebook ruled lines — sparse -->
    <line x1="30" y1="400" x2="400" y2="400" />
    <line x1="30" y1="420" x2="400" y2="420" />
    <line x1="30" y1="440" x2="400" y2="440" />
    <line x1="900" y1="500" x2="1370" y2="500" />
    <line x1="900" y1="520" x2="1370" y2="520" />
    <line x1="900" y1="540" x2="1370" y2="540" />
    <line x1="100" y1="1050" x2="400" y2="1050" />
    <line x1="100" y1="1070" x2="400" y2="1070" />
    <line x1="100" y1="1090" x2="400" y2="1090" />
    <line x1="800" y1="1450" x2="1350" y2="1450" />
    <line x1="800" y1="1470" x2="1350" y2="1470" />
    <line x1="800" y1="1490" x2="1350" y2="1490" />
  </g>

  <!-- ═══ SCATTERED: Mirror writing annotations (reversed text, Da Vinci style) ═══ -->

  <g class="annotation" opacity="0.12">
    <!-- Mirror writing uses transform scale(-1,1) to flip horizontally -->
    <text transform="translate(420, 400) scale(-1,1)" font-size="7">the study of man and machine in unity</text>
    <text transform="translate(1370, 520) scale(-1,1)" font-size="7">wings of thought carry us beyond</text>
    <text transform="translate(380, 1080) scale(-1,1)" font-size="7">all knowledge flows from collaboration</text>
    <text transform="translate(1340, 1480) scale(-1,1)" font-size="7">the golden proportion governs all creation</text>
    <text transform="translate(440, 770) scale(-1,1)" font-size="6">nota bene — the spark between hands</text>
    <text transform="translate(950, 1220) scale(-1,1)" font-size="6">omnia in unum — all things connected</text>
  </g>

  <!-- ═══ SCATTERED: Additional Latin labels and annotations ═══ -->

  <g class="label-sm" opacity="0.14">
    <text x="30" y="360">studia humanitatis</text>
    <text x="1200" y="420">ars et scientia</text>
    <text x="400" y="1100">nexus mentium</text>
    <text x="820" y="1450">harmonia universalis</text>
    <text x="30" y="1430">liber naturae</text>
    <text x="1150" y="1180">proportio aurea</text>
  </g>

  <!-- ═══ SCATTERED: Construction marks and compass points ═══ -->

  <g class="sketch" stroke-width="0.2" opacity="0.08">
    <!-- Compass arc marks (as if drawn with a compass) -->
    <path d="M1300,150 Q1310,180 1290,210" stroke-dasharray="2 4" />
    <path d="M1305,150 Q1295,180 1315,210" stroke-dasharray="2 4" />
    <!-- Small cross marks -->
    <line x1="1298" y1="180" x2="1308" y2="180" />
    <line x1="1303" y1="175" x2="1303" y2="185" />
    <!-- Another compass mark set -->
    <path d="M380,1400 Q395,1420 375,1440" stroke-dasharray="2 4" />
    <line x1="383" y1="1420" x2="393" y2="1420" />
    <line x1="388" y1="1415" x2="388" y2="1425" />
    <!-- Dot clusters (ink blots) -->
    <circle cx="450" cy="480" r="0.8" class="sketch-fill" opacity="0.1" />
    <circle cx="453" cy="478" r="0.5" class="sketch-fill" opacity="0.08" />
    <circle cx="448" cy="482" r="0.6" class="sketch-fill" opacity="0.06" />
    <circle cx="920" cy="1200" r="0.8" class="sketch-fill" opacity="0.1" />
    <circle cx="923" cy="1198" r="0.5" class="sketch-fill" opacity="0.08" />
  </g>

  <!-- ═══ TOP LEFT: Small margin annotation with numbering ═══ -->

  <g class="annotation" opacity="0.1">
    <text x="20" y="20">i.</text>
    <text x="20" y="30">de proportione humana</text>
    <text x="20" y="200">ii.</text>
    <text x="20" y="210">studia collaborationis</text>
    <text x="20" y="650">iii.</text>
    <text x="20" y="660">geometria sacra</text>
    <text x="20" y="1100">iv.</text>
    <text x="20" y="1110">codex et scientia</text>
    <text x="20" y="1500">v.</text>
    <text x="20" y="1510">unitas — the whole</text>
  </g>

</svg>