<svg xmlns="http://www.w3.org/2000/svg" width="1400" height="1800" viewBox="0 0 1400 1800">
  <defs>
    <style>
      .sketch { stroke: #b8a080; fill: none; }
      .sketch-light { stroke: #b8a080; fill: none; opacity: 0.5; }
      .sketch-fill { fill: #b8a080; stroke: none; }
      .label { font-family: 'Fraunces', 'Georgia', serif; fill: #b8a080; font-size: 11px; font-style: italic; }
      .label-sm { font-family: 'Fraunces', 'Georgia', serif; fill: #b8a080; font-size: 8px; font-style: italic; }
      .annotation { font-family: 'Source Sans 3', sans-serif; fill: #b8a080; font-size: 7px; letter-spacing: 0.5px; }
    </style>
  </defs>

  <!-- ═══ TOP LEFT: Da Vinci bridge design (self-supporting) ═══ -->

  <g transform="translate(80, 60)" class="sketch" stroke-width="0.6" opacity="0.32">
    <!-- Left bank -->
    <path d="M0,100 Q5,95 20,95 L20,120 L0,120 Z" stroke-width="0.4" />
    <!-- Right bank -->
    <path d="M280,100 Q275,95 260,95 L260,120 L280,120 Z" stroke-width="0.4" />
    <!-- Main arch -->
    <path d="M20,100 Q140,10 260,100" stroke-width="0.7" />
    <!-- Secondary structural arch -->
    <path d="M20,100 Q140,30 260,100" stroke-dasharray="3 4" stroke-width="0.4" />
    <!-- Deck/roadway -->
    <line x1="0" y1="100" x2="280" y2="100" stroke-width="0.5" />
    <!-- Support ribs -->
    <line x1="70" y1="100" x2="100" y2="55" stroke-width="0.3" />
    <line x1="140" y1="100" x2="140" y2="28" stroke-width="0.3" />
    <line x1="210" y1="100" x2="180" y2="55" stroke-width="0.3" />
    <!-- Construction/measurement lines -->
    <line x1="140" y1="15" x2="140" y2="120" stroke-width="0.2" stroke-dasharray="2 5" />
    <line x1="30" y1="60" x2="250" y2="60" stroke-width="0.2" stroke-dasharray="2 5" />
    <!-- Dimension arrows -->
    <line x1="20" y1="130" x2="260" y2="130" stroke-width="0.25" />
    <line x1="20" y1="127" x2="20" y2="133" stroke-width="0.25" />
    <line x1="260" y1="127" x2="260" y2="133" stroke-width="0.25" />
    <!-- Water below -->
    <path d="M30,115 Q50,112 70,115 Q90,118 110,115 Q130,112 150,115 Q170,118 190,115 Q210,112 230,115 Q250,118 260,115" stroke-width="0.3" stroke-dasharray="2 3" />
    <text class="label" x="70" y="155">pons Leonardi — ad connexionem</text>
  </g>

  <!-- ═══ TOP RIGHT: Seed of Life ═══ -->

  <g transform="translate(520, 30)" class="sketch" stroke-width="0.35" opacity="0.18">
    <circle cx="40" cy="40" r="25" />
    <circle cx="40" cy="15" r="25" />
    <circle cx="40" cy="65" r="25" />
    <circle cx="18.35" cy="27.5" r="25" />
    <circle cx="61.65" cy="27.5" r="25" />
    <circle cx="18.35" cy="52.5" r="25" />
    <circle cx="61.65" cy="52.5" r="25" />
    <circle cx="40" cy="40" r="50" stroke-dasharray="2 3" />
    <circle cx="40" cy="40" r="2" class="sketch-fill" opacity="0.12" />
    <text class="label-sm" x="10" y="100">semen vitae</text>
  </g>

  <!-- ═══ RIGHT SIDE: Carrier pigeon sketch ═══ -->

  <g transform="translate(920, 70)" class="sketch" stroke-width="0.5" opacity="0.3">
    <!-- Body -->
    <path d="M40,60 Q20,55 15,70 Q12,85 25,95 Q40,102 60,98 Q80,94 90,80 Q95,68 80,58 Q65,50 40,60" stroke-width="0.5" />
    <!-- Head -->
    <circle cx="30" cy="52" r="12" stroke-width="0.4" />
    <!-- Eye -->
    <circle cx="25" cy="50" r="2.5" stroke-width="0.3" />
    <circle cx="25" cy="50" r="1" class="sketch-fill" opacity="0.2" />
    <!-- Beak -->
    <path d="M18,52 L10,54 L18,56" stroke-width="0.4" />
    <!-- Wing (extended) -->
    <path d="M50,65 Q70,40 110,30 Q100,45 95,55 Q85,65 60,72" stroke-width="0.4" />
    <path d="M70,48 Q90,38 105,35" stroke-width="0.3" stroke-dasharray="1 2" />
    <path d="M65,55 Q85,45 100,42" stroke-width="0.3" stroke-dasharray="1 2" />
    <!-- Tail -->
    <path d="M85,85 Q100,80 115,85 Q105,90 85,92" stroke-width="0.4" />
    <!-- Feet -->
    <path d="M40,98 L38,115 L30,118 M38,115 L38,120 M38,115 L45,118" stroke-width="0.3" />
    <path d="M55,96 L55,112 L48,115 M55,112 L55,117 M55,112 L62,115" stroke-width="0.3" />
    <!-- Message tube on leg -->
    <rect x="42" y="102" width="8" height="12" rx="2" stroke-width="0.3" />
    <line x1="44" y1="105" x2="48" y2="105" stroke-width="0.2" />
    <line x1="44" y1="108" x2="48" y2="108" stroke-width="0.2" />
    <!-- Flight path (dotted trail) -->
    <path d="M115,30 Q130,20 150,15 Q170,12 190,15" stroke-width="0.3" stroke-dasharray="2 4" />
    <text class="label" x="30" y="138">columba nuntia</text>
  </g>

  <!-- ═══ TOP FAR RIGHT: Metatron's Cube ═══ -->

  <g transform="translate(1180, 60)" class="sketch" stroke-width="0.3" opacity="0.15">
    <circle cx="60" cy="60" r="8" />
    <circle cx="60" cy="35" r="8" />
    <circle cx="81.65" cy="47.5" r="8" />
    <circle cx="81.65" cy="72.5" r="8" />
    <circle cx="60" cy="85" r="8" />
    <circle cx="38.35" cy="72.5" r="8" />
    <circle cx="38.35" cy="47.5" r="8" />
    <circle cx="60" cy="10" r="8" stroke-dasharray="1 2" />
    <circle cx="103.3" cy="35" r="8" stroke-dasharray="1 2" />
    <circle cx="103.3" cy="85" r="8" stroke-dasharray="1 2" />
    <circle cx="60" cy="110" r="8" stroke-dasharray="1 2" />
    <circle cx="16.7" cy="85" r="8" stroke-dasharray="1 2" />
    <circle cx="16.7" cy="35" r="8" stroke-dasharray="1 2" />
    <line x1="60" y1="10" x2="103.3" y2="85" stroke-width="0.2" />
    <line x1="60" y1="10" x2="16.7" y2="85" stroke-width="0.2" />
    <line x1="103.3" y1="35" x2="16.7" y2="85" stroke-width="0.2" />
    <line x1="103.3" y1="35" x2="60" y2="110" stroke-width="0.2" />
    <line x1="103.3" y1="85" x2="16.7" y2="35" stroke-width="0.2" />
    <line x1="16.7" y1="35" x2="60" y2="110" stroke-width="0.2" />
    <line x1="60" y1="10" x2="60" y2="110" stroke-width="0.2" />
    <line x1="16.7" y1="35" x2="103.3" y2="35" stroke-width="0.2" />
    <line x1="16.7" y1="85" x2="103.3" y2="85" stroke-width="0.2" />
    <circle cx="60" cy="60" r="58" stroke-dasharray="3 4" stroke-width="0.25" />
    <text class="label-sm" x="15" y="130">cubus Metatronis</text>
  </g>

  <!-- ═══ LEFT CENTER: Compass rose (navigation) ═══ -->

  <g transform="translate(100, 350)" class="sketch" stroke-width="0.5" opacity="0.28">
    <!-- Outer ring -->
    <circle cx="70" cy="70" r="65" />
    <circle cx="70" cy="70" r="60" stroke-dasharray="2 3" />
    <circle cx="70" cy="70" r="10" />
    <!-- North pointer (filled) -->
    <polygon points="70,8 76,60 70,55 64,60" class="sketch-fill" opacity="0.15" />
    <polygon points="70,8 76,60 70,55 64,60" stroke-width="0.4" />
    <!-- South -->
    <line x1="70" y1="80" x2="70" y2="132" stroke-width="0.4" />
    <polygon points="70,132 66,122 74,122" stroke-width="0.3" />
    <!-- East -->
    <line x1="80" y1="70" x2="132" y2="70" stroke-width="0.4" />
    <polygon points="132,70 122,66 122,74" stroke-width="0.3" />
    <!-- West -->
    <line x1="60" y1="70" x2="8" y2="70" stroke-width="0.4" />
    <polygon points="8,70 18,66 18,74" stroke-width="0.3" />
    <!-- Intercardinal lines -->
    <line x1="24" y1="24" x2="116" y2="116" stroke-width="0.25" stroke-dasharray="2 3" />
    <line x1="116" y1="24" x2="24" y2="116" stroke-width="0.25" stroke-dasharray="2 3" />
    <!-- Degree marks -->
    <line x1="70" y1="5" x2="70" y2="10" stroke-width="0.2" />
    <line x1="135" y1="70" x2="130" y2="70" stroke-width="0.2" />
    <!-- Cardinal labels -->
    <text class="annotation" x="66" y="3">N</text>
    <text class="annotation" x="138" y="73">E</text>
    <text class="annotation" x="66" y="148">S</text>
    <text class="annotation" x="-2" y="73">W</text>
    <!-- Fleur-de-lis at north (simplified) -->
    <path d="M70,12 Q68,8 66,12 M70,12 Q72,8 74,12" stroke-width="0.3" />
    <text class="label" x="20" y="165">rosa ventorum navigatio</text>
  </g>

  <!-- ═══ CENTER RIGHT: Handshake sketch ═══ -->

  <g transform="translate(880, 340)" class="sketch" stroke-width="0.5" opacity="0.25">
    <!-- Left hand -->
    <path d="M0,60 Q10,55 30,50 Q45,45 55,50" stroke-width="0.5" />
    <path d="M55,50 Q60,45 65,48 Q68,52 62,56" stroke-width="0.4" />
    <path d="M62,56 Q58,60 50,62" stroke-width="0.4" />
    <!-- Left wrist -->
    <path d="M0,60 Q-5,65 0,72 L30,70 Q35,65 30,55" stroke-width="0.4" />
    <!-- Right hand -->
    <path d="M130,55 Q120,50 100,48 Q85,46 75,50" stroke-width="0.5" />
    <path d="M75,50 Q70,46 67,48 Q65,52 70,55" stroke-width="0.4" />
    <path d="M70,55 Q75,58 82,58" stroke-width="0.4" />
    <!-- Right wrist -->
    <path d="M130,55 Q135,60 130,67 L100,65 Q95,60 100,52" stroke-width="0.4" />
    <!-- Clasped fingers (interlock) -->
    <path d="M55,50 Q65,42 75,50" stroke-width="0.3" stroke-dasharray="1 2" />
    <path d="M58,55 Q68,48 78,55" stroke-width="0.3" stroke-dasharray="1 2" />
    <!-- Construction/measurement lines -->
    <line x1="65" y1="35" x2="65" y2="75" stroke-width="0.2" stroke-dasharray="2 4" />
    <circle cx="65" cy="52" r="20" stroke-dasharray="3 4" stroke-width="0.2" />
    <text class="label" x="25" y="95">dextrarum iunctio — fides</text>
  </g>

  <!-- ═══ CENTER: Flower of Life ═══ -->

  <g transform="translate(480, 750)" class="sketch-light" stroke-width="0.35" opacity="0.16">
    <circle cx="120" cy="120" r="40" />
    <circle cx="120" cy="80" r="40" />
    <circle cx="120" cy="160" r="40" />
    <circle cx="85.36" cy="100" r="40" />
    <circle cx="154.64" cy="100" r="40" />
    <circle cx="85.36" cy="140" r="40" />
    <circle cx="154.64" cy="140" r="40" />
    <circle cx="120" cy="40" r="40" />
    <circle cx="120" cy="200" r="40" />
    <circle cx="50.72" cy="80" r="40" />
    <circle cx="189.28" cy="80" r="40" />
    <circle cx="50.72" cy="160" r="40" />
    <circle cx="189.28" cy="160" r="40" />
    <circle cx="85.36" cy="60" r="40" />
    <circle cx="154.64" cy="60" r="40" />
    <circle cx="85.36" cy="180" r="40" />
    <circle cx="154.64" cy="180" r="40" />
    <circle cx="50.72" cy="120" r="40" />
    <circle cx="189.28" cy="120" r="40" />
    <circle cx="120" cy="120" r="120" stroke-dasharray="4 4" stroke-width="0.3" />
    <circle cx="120" cy="120" r="125" stroke-dasharray="1 8" stroke-width="0.2" />
    <circle cx="120" cy="120" r="2.5" class="sketch-fill" opacity="0.12" />
    <line x1="120" y1="-5" x2="120" y2="245" stroke-width="0.15" stroke-dasharray="6 8" />
    <line x1="-5" y1="120" x2="245" y2="120" stroke-width="0.15" stroke-dasharray="6 8" />
    <text class="label" x="50" y="265">flos vitae universalis</text>
  </g>

  <!-- ═══ LEFT CENTER: Letter / envelope sketch ═══ -->

  <g transform="translate(60, 580)" class="sketch" stroke-width="0.5" opacity="0.25">
    <!-- Envelope body -->
    <rect x="0" y="0" width="140" height="90" rx="3" />
    <!-- Flap (open) -->
    <path d="M0,0 L70,-35 L140,0" stroke-width="0.5" />
    <!-- Seal on flap -->
    <circle cx="70" cy="-10" r="10" stroke-width="0.4" />
    <circle cx="70" cy="-10" r="7" stroke-dasharray="1 2" stroke-width="0.3" />
    <!-- Address lines -->
    <line x1="40" y1="30" x2="120" y2="30" stroke-width="0.3" />
    <line x1="40" y1="42" x2="110" y2="42" stroke-width="0.3" />
    <line x1="40" y1="54" x2="115" y2="54" stroke-width="0.3" />
    <!-- Stamp (top right) -->
    <rect x="105" y="10" width="25" height="20" rx="1" stroke-width="0.3" />
    <rect x="108" y="13" width="19" height="14" rx="1" stroke-dasharray="1 1" stroke-width="0.2" />
    <text class="label-sm" x="20" y="110">epistula — litterae</text>
  </g>

  <!-- ═══ RIGHT: Tree of Life ═══ -->

  <g transform="translate(980, 680)" class="sketch" stroke-width="0.4" opacity="0.17">
    <circle cx="70" cy="0" r="12" />
    <circle cx="30" cy="45" r="10" />
    <circle cx="110" cy="45" r="10" />
    <circle cx="70" cy="70" r="8" stroke-dasharray="2 2" />
    <circle cx="30" cy="105" r="10" />
    <circle cx="110" cy="105" r="10" />
    <circle cx="70" cy="130" r="12" />
    <circle cx="30" cy="175" r="10" />
    <circle cx="110" cy="175" r="10" />
    <circle cx="70" cy="210" r="10" />
    <circle cx="70" cy="260" r="12" />
    <line x1="30" y1="55" x2="30" y2="95" stroke-width="0.3" />
    <line x1="30" y1="115" x2="30" y2="165" stroke-width="0.3" />
    <line x1="110" y1="55" x2="110" y2="95" stroke-width="0.3" />
    <line x1="110" y1="115" x2="110" y2="165" stroke-width="0.3" />
    <line x1="70" y1="12" x2="70" y2="62" stroke-width="0.3" />
    <line x1="70" y1="78" x2="70" y2="118" stroke-width="0.3" />
    <line x1="70" y1="142" x2="70" y2="200" stroke-width="0.3" />
    <line x1="70" y1="220" x2="70" y2="248" stroke-width="0.3" />
    <line x1="70" y1="12" x2="30" y2="35" stroke-width="0.25" />
    <line x1="70" y1="12" x2="110" y2="35" stroke-width="0.25" />
    <line x1="30" y1="55" x2="110" y2="95" stroke-width="0.2" stroke-dasharray="2 3" />
    <line x1="110" y1="55" x2="30" y2="95" stroke-width="0.2" stroke-dasharray="2 3" />
    <line x1="30" y1="185" x2="70" y2="200" stroke-width="0.25" />
    <line x1="110" y1="185" x2="70" y2="200" stroke-width="0.25" />
    <ellipse cx="70" cy="130" rx="65" ry="145" stroke-dasharray="4 6" stroke-width="0.2" />
    <text class="label-sm" x="15" y="290">arbor vitae — sephirot</text>
  </g>

  <!-- ═══ LOWER LEFT: Signal tower / lighthouse ═══ -->

  <g transform="translate(80, 1080)" class="sketch" stroke-width="0.5" opacity="0.25">
    <!-- Tower body (tapering) -->
    <path d="M40,160 L50,20 L70,20 L80,160 Z" stroke-width="0.5" />
    <!-- Lantern room -->
    <rect x="45" y="5" width="30" height="20" rx="2" />
    <!-- Dome -->
    <path d="M45,5 Q60,-8 75,5" stroke-width="0.4" />
    <!-- Light -->
    <circle cx="60" cy="15" r="5" stroke-width="0.3" />
    <circle cx="60" cy="15" r="2" class="sketch-fill" opacity="0.15" />
    <!-- Light beams -->
    <line x1="40" y1="12" x2="10" y2="5" stroke-width="0.25" stroke-dasharray="3 4" />
    <line x1="40" y1="18" x2="10" y2="25" stroke-width="0.25" stroke-dasharray="3 4" />
    <line x1="80" y1="12" x2="110" y2="5" stroke-width="0.25" stroke-dasharray="3 4" />
    <line x1="80" y1="18" x2="110" y2="25" stroke-width="0.25" stroke-dasharray="3 4" />
    <!-- Windows -->
    <ellipse cx="58" cy="60" rx="5" ry="8" stroke-width="0.3" />
    <ellipse cx="60" cy="100" rx="5" ry="8" stroke-width="0.3" />
    <!-- Base platform -->
    <line x1="30" y1="160" x2="90" y2="160" stroke-width="0.4" />
    <path d="M30,160 Q30,170 40,170 L80,170 Q90,170 90,160" stroke-width="0.3" />
    <text class="label" x="10" y="190">turris signorum</text>
  </g>

  <!-- ═══ CENTER LOWER: Connected nodes / network ═══ -->

  <g transform="translate(400, 1150)" class="sketch" stroke-width="0.4" opacity="0.22">
    <!-- Central node -->
    <circle cx="100" cy="60" r="12" />
    <circle cx="100" cy="60" r="5" class="sketch-fill" opacity="0.08" />
    <!-- Surrounding nodes -->
    <circle cx="30" cy="30" r="8" />
    <circle cx="170" cy="30" r="8" />
    <circle cx="30" cy="90" r="8" />
    <circle cx="170" cy="90" r="8" />
    <circle cx="100" cy="0" r="8" />
    <circle cx="100" cy="120" r="8" />
    <!-- Connections -->
    <line x1="36" y1="35" x2="90" y2="55" stroke-width="0.3" />
    <line x1="164" y1="35" x2="110" y2="55" stroke-width="0.3" />
    <line x1="36" y1="85" x2="90" y2="65" stroke-width="0.3" />
    <line x1="164" y1="85" x2="110" y2="65" stroke-width="0.3" />
    <line x1="100" y1="8" x2="100" y2="48" stroke-width="0.3" />
    <line x1="100" y1="72" x2="100" y2="112" stroke-width="0.3" />
    <!-- Cross connections -->
    <line x1="36" y1="30" x2="94" y2="5" stroke-width="0.2" stroke-dasharray="2 3" />
    <line x1="164" y1="30" x2="106" y2="5" stroke-width="0.2" stroke-dasharray="2 3" />
    <line x1="36" y1="90" x2="94" y2="115" stroke-width="0.2" stroke-dasharray="2 3" />
    <line x1="164" y1="90" x2="106" y2="115" stroke-width="0.2" stroke-dasharray="2 3" />
    <text class="label-sm" x="40" y="145">rete connexionis</text>
  </g>

  <!-- ═══ RIGHT LOWER: Aqueduct / channel ═══ -->

  <g transform="translate(900, 1080)" class="sketch" stroke-width="0.4" opacity="0.2">
    <!-- Arches -->
    <path d="M0,100 Q30,60 60,100" stroke-width="0.5" />
    <path d="M60,100 Q90,60 120,100" stroke-width="0.5" />
    <path d="M120,100 Q150,60 180,100" stroke-width="0.5" />
    <path d="M180,100 Q210,60 240,100" stroke-width="0.5" />
    <!-- Top channel -->
    <line x1="0" y1="55" x2="240" y2="55" stroke-width="0.4" />
    <line x1="0" y1="48" x2="240" y2="48" stroke-width="0.4" />
    <!-- Pillars -->
    <line x1="0" y1="55" x2="0" y2="110" stroke-width="0.4" />
    <line x1="60" y1="55" x2="60" y2="110" stroke-width="0.4" />
    <line x1="120" y1="55" x2="120" y2="110" stroke-width="0.4" />
    <line x1="180" y1="55" x2="180" y2="110" stroke-width="0.4" />
    <line x1="240" y1="55" x2="240" y2="110" stroke-width="0.4" />
    <!-- Base -->
    <line x1="-5" y1="110" x2="245" y2="110" stroke-width="0.3" />
    <!-- Water flow on top -->
    <path d="M5,51 Q15,49 25,51 Q35,53 45,51 Q55,49 65,51" stroke-width="0.2" stroke-dasharray="1 2" />
    <text class="label-sm" x="60" y="130">aquaeductus — via aquae</text>
  </g>

  <!-- ═══ BOTTOM LEFT: Vesica Piscis ═══ -->

  <g transform="translate(250, 1350)" class="sketch" stroke-width="0.35" opacity="0.16">
    <circle cx="40" cy="50" r="45" />
    <circle cx="80" cy="50" r="45" />
    <path d="M60,7.3 Q40,50 60,92.7 Q80,50 60,7.3" stroke-width="0.5" stroke-dasharray="2 2" />
    <line x1="60" y1="0" x2="60" y2="100" stroke-width="0.15" stroke-dasharray="3 5" />
    <line x1="-5" y1="50" x2="125" y2="50" stroke-width="0.15" stroke-dasharray="3 5" />
    <circle cx="60" cy="50" r="2" class="sketch-fill" opacity="0.12" />
    <text class="label-sm" x="15" y="115">vesica piscis</text>
    <text class="label-sm" x="15" y="128">√3 : 1</text>
  </g>

  <!-- ═══ BOTTOM CENTER: Golden spiral ═══ -->

  <g transform="translate(700, 1380)" class="sketch" stroke-width="0.5" opacity="0.2">
    <rect x="0" y="0" width="200" height="123.6" />
    <rect x="0" y="0" width="123.6" height="123.6" />
    <rect x="123.6" y="0" width="76.4" height="76.4" />
    <rect x="123.6" y="76.4" width="47.2" height="47.2" />
    <rect x="170.8" y="76.4" width="29.2" height="29.2" />
    <path d="M123.6,123.6 Q123.6,0 0,0" stroke-width="0.6" />
    <path d="M123.6,0 Q200,0 200,76.4" stroke-width="0.6" />
    <path d="M200,76.4 Q200,123.6 170.8,123.6" stroke-width="0.5" />
    <path d="M170.8,123.6 Q123.6,123.6 123.6,105.6" stroke-width="0.5" />
    <text class="label" x="50" y="145">φ = 1.618</text>
    <text class="label-sm" x="130" y="115">proportio divina</text>
  </g>

  <!-- ═══ BOTTOM RIGHT: Sri Yantra ═══ -->

  <g transform="translate(1050, 1450)" class="sketch" stroke-width="0.3" opacity="0.14">
    <circle cx="70" cy="65" r="65" />
    <circle cx="70" cy="65" r="60" stroke-dasharray="2 3" />
    <polygon points="70,5 130,110 10,110" stroke-width="0.35" />
    <polygon points="70,20 118,100 22,100" stroke-width="0.25" stroke-dasharray="2 2" />
    <polygon points="70,125 10,20 130,20" stroke-width="0.35" />
    <polygon points="70,110 22,30 118,30" stroke-width="0.25" stroke-dasharray="2 2" />
    <circle cx="70" cy="65" r="3" class="sketch-fill" opacity="0.15" />
    <rect x="0" y="0" width="140" height="130" rx="3" stroke-width="0.2" stroke-dasharray="4 4" />
    <text class="label-sm" x="25" y="150">yantra sacrum</text>
  </g>

  <!-- ═══ SCATTERED: Construction marks ═══ -->

  <g transform="translate(1200, 200)" class="sketch" stroke-width="0.3" opacity="0.15">
    <circle cx="30" cy="30" r="25" />
    <circle cx="30" cy="30" r="18" stroke-dasharray="2 3" />
    <line x1="30" y1="5" x2="30" y2="55" />
    <line x1="5" y1="30" x2="55" y2="30" />
    <path d="M30,5 L33,15 L27,15 Z" class="sketch-fill" opacity="0.2" />
  </g>

  <!-- Scattered tiny construction marks / grid points -->
  <g class="sketch-fill" opacity="0.06">
    <circle cx="350" cy="300" r="2" />
    <circle cx="700" cy="450" r="2" />
    <circle cx="1100" cy="650" r="2" />
    <circle cx="200" cy="1000" r="2" />
    <circle cx="850" cy="1050" r="2" />
    <circle cx="1250" cy="900" r="2" />
    <circle cx="500" cy="1500" r="2" />
    <circle cx="1000" cy="1400" r="2" />
    <circle cx="150" cy="480" r="1.5" />
    <circle cx="750" cy="680" r="1.5" />
    <circle cx="400" cy="920" r="1.5" />
    <circle cx="1300" cy="550" r="1.5" />
    <circle cx="600" cy="1200" r="1.5" />
    <circle cx="300" cy="1450" r="1.5" />
    <circle cx="900" cy="1550" r="1.5" />
    <circle cx="1200" cy="1100" r="1.5" />
  </g>

  <!-- Faint construction grid lines (Da Vinci notebook ruled lines) -->
  <g class="sketch" stroke-width="0.15" opacity="0.04">
    <line x1="0" y1="300" x2="1400" y2="300" />
    <line x1="0" y1="600" x2="1400" y2="600" />
    <line x1="0" y1="900" x2="1400" y2="900" />
    <line x1="0" y1="1200" x2="1400" y2="1200" />
    <line x1="0" y1="1500" x2="1400" y2="1500" />
    <line x1="350" y1="0" x2="350" y2="1800" />
    <line x1="700" y1="0" x2="700" y2="1800" />
    <line x1="1050" y1="0" x2="1050" y2="1800" />
  </g>

  <!-- Faint mirror writing hint (reversed text like Da Vinci) -->
  <g opacity="0.06">
    <text class="label" x="1100" y="1150" transform="scale(-1,1) translate(-2200,0)">notae secretae</text>
    <text class="label-sm" x="200" y="1550" transform="scale(-1,1) translate(-400,0)">communicare est unire</text>
    <text class="label-sm" x="800" y="700" transform="scale(-1,1) translate(-1600,0)">pontem facere</text>
    <text class="label-sm" x="600" y="1400" transform="scale(-1,1) translate(-1200,0)">vinculum amicitiae</text>
  </g>

</svg>