<svg xmlns="http://www.w3.org/2000/svg" width="1400" height="1800" viewBox="0 0 1400 1800">
  <defs>
    <style>
      .sketch { stroke: #b8a080; fill: none; }
      .sketch-light { stroke: #b8a080; fill: none; opacity: 0.5; }
      .sketch-fill { fill: #b8a080; stroke: none; }
      .label { font-family: 'Fraunces', 'Georgia', serif; fill: #b8a080; font-size: 11px; font-style: italic; }
      .label-sm { font-family: 'Fraunces', 'Georgia', serif; fill: #b8a080; font-size: 8px; font-style: italic; }
      .annotation { font-family: 'Source Sans 3', sans-serif; fill: #b8a080; font-size: 7px; letter-spacing: 0.5px; }
    </style>
  </defs>

  <!-- ═══ TOP SECTION: Merchant's Balance Scale ═══ -->

  <g transform="translate(100, 50)" class="sketch" stroke-width="0.6" opacity="0.35">
    <!-- Central pillar with ornamental base -->
    <line x1="150" y1="10" x2="150" y2="140" stroke-width="0.7" />
    <!-- Decorative finial at top -->
    <circle cx="150" cy="8" r="4" stroke-width="0.5" />
    <circle cx="150" cy="8" r="1.5" class="sketch-fill" opacity="0.2" />
    <!-- Triangular base -->
    <path d="M120,140 L150,130 L180,140 Z" stroke-width="0.5" />
    <line x1="110" y1="140" x2="190" y2="140" stroke-width="0.7" />
    <!-- Ornamental base feet -->
    <path d="M110,140 Q105,145 108,150" stroke-width="0.4" />
    <path d="M190,140 Q195,145 192,150" stroke-width="0.4" />
    <!-- Beam (slightly tilted for visual interest) -->
    <line x1="30" y1="28" x2="270" y2="18" stroke-width="0.8" />
    <!-- Pivot detail -->
    <path d="M145,15 L150,10 L155,15" stroke-width="0.4" />
    <!-- Left chain/strings -->
    <line x1="30" y1="28" x2="15" y2="65" stroke-width="0.4" />
    <line x1="30" y1="28" x2="45" y2="65" stroke-width="0.4" />
    <line x1="30" y1="28" x2="30" y2="68" stroke-width="0.4" />
    <!-- Left pan -->
    <path d="M5,65 Q30,78 55,65" stroke-width="0.5" />
    <line x1="5" y1="65" x2="55" y2="65" stroke-width="0.3" stroke-dasharray="1 2" />
    <!-- Coins in left pan -->
    <ellipse cx="22" cy="60" rx="8" ry="3" stroke-width="0.4" />
    <ellipse cx="30" cy="58" rx="8" ry="3" stroke-width="0.4" />
    <ellipse cx="38" cy="56" rx="8" ry="3" stroke-width="0.4" />
    <!-- Right chain/strings -->
    <line x1="270" y1="18" x2="255" y2="52" stroke-width="0.4" />
    <line x1="270" y1="18" x2="285" y2="52" stroke-width="0.4" />
    <line x1="270" y1="18" x2="270" y2="55" stroke-width="0.4" />
    <!-- Right pan -->
    <path d="M245,52 Q270,65 295,52" stroke-width="0.5" />
    <line x1="245" y1="52" x2="295" y2="52" stroke-width="0.3" stroke-dasharray="1 2" />
    <!-- Weight in right pan -->
    <rect x="260" y="42" width="20" height="12" rx="2" stroke-width="0.4" />
    <text class="annotation" x="263" y="51">10</text>
    <!-- Measurement marks along beam -->
    <line x1="90" y1="23" x2="90" y2="28" stroke-width="0.3" />
    <line x1="120" y1="21" x2="120" y2="26" stroke-width="0.3" />
    <line x1="180" y1="17" x2="180" y2="22" stroke-width="0.3" />
    <line x1="210" y1="16" x2="210" y2="21" stroke-width="0.3" />
    <line x1="240" y1="15" x2="240" y2="20" stroke-width="0.3" />
    <text class="label" x="80" y="170">libra mercatoris</text>
  </g>

  <!-- ═══ TOP RIGHT: Metatron's Cube ═══ -->

  <g transform="translate(1150, 40)" class="sketch" stroke-width="0.3" opacity="0.15">
    <!-- 13 circles of Metatron's Cube -->
    <circle cx="70" cy="70" r="9" />
    <!-- Inner ring of 6 -->
    <circle cx="70" cy="42" r="9" />
    <circle cx="94.2" cy="56" r="9" />
    <circle cx="94.2" cy="84" r="9" />
    <circle cx="70" cy="98" r="9" />
    <circle cx="45.8" cy="84" r="9" />
    <circle cx="45.8" cy="56" r="9" />
    <!-- Outer ring of 6 -->
    <circle cx="70" cy="14" r="9" stroke-dasharray="1 2" />
    <circle cx="118.5" cy="42" r="9" stroke-dasharray="1 2" />
    <circle cx="118.5" cy="98" r="9" stroke-dasharray="1 2" />
    <circle cx="70" cy="126" r="9" stroke-dasharray="1 2" />
    <circle cx="21.5" cy="98" r="9" stroke-dasharray="1 2" />
    <circle cx="21.5" cy="42" r="9" stroke-dasharray="1 2" />
    <!-- Connecting lines through all 13 centers -->
    <line x1="70" y1="14" x2="118.5" y2="98" stroke-width="0.2" />
    <line x1="70" y1="14" x2="21.5" y2="98" stroke-width="0.2" />
    <line x1="118.5" y1="42" x2="21.5" y2="98" stroke-width="0.2" />
    <line x1="118.5" y1="42" x2="70" y2="126" stroke-width="0.2" />
    <line x1="118.5" y1="98" x2="21.5" y2="42" stroke-width="0.2" />
    <line x1="21.5" y1="42" x2="70" y2="126" stroke-width="0.2" />
    <line x1="70" y1="14" x2="70" y2="126" stroke-width="0.2" />
    <line x1="21.5" y1="42" x2="118.5" y2="42" stroke-width="0.2" />
    <line x1="21.5" y1="98" x2="118.5" y2="98" stroke-width="0.2" />
    <!-- Hexagonal outline -->
    <line x1="70" y1="14" x2="118.5" y2="42" stroke-width="0.2" />
    <line x1="118.5" y1="42" x2="118.5" y2="98" stroke-width="0.2" />
    <line x1="118.5" y1="98" x2="70" y2="126" stroke-width="0.2" />
    <line x1="70" y1="126" x2="21.5" y2="98" stroke-width="0.2" />
    <line x1="21.5" y1="98" x2="21.5" y2="42" stroke-width="0.2" />
    <line x1="21.5" y1="42" x2="70" y2="14" stroke-width="0.2" />
    <!-- Enclosing circle -->
    <circle cx="70" cy="70" r="66" stroke-dasharray="3 4" stroke-width="0.25" />
    <text class="label-sm" x="20" y="150">cubus Metatronis</text>
  </g>

  <!-- ═══ LEFT SIDE: Abacus / Counting Frame ═══ -->

  <g transform="translate(60, 320)" class="sketch" stroke-width="0.5" opacity="0.28">
    <!-- Frame -->
    <rect x="0" y="0" width="140" height="180" rx="3" stroke-width="0.6" />
    <!-- Divider bar (heaven/earth division) -->
    <line x1="0" y1="50" x2="140" y2="50" stroke-width="0.5" />
    <!-- Vertical rods -->
    <line x1="20" y1="0" x2="20" y2="180" stroke-width="0.3" />
    <line x1="45" y1="0" x2="45" y2="180" stroke-width="0.3" />
    <line x1="70" y1="0" x2="70" y2="180" stroke-width="0.3" />
    <line x1="95" y1="0" x2="95" y2="180" stroke-width="0.3" />
    <line x1="120" y1="0" x2="120" y2="180" stroke-width="0.3" />
    <!-- Heaven beads (above divider, 2 per rod) -->
    <ellipse cx="20" cy="18" rx="8" ry="5" stroke-width="0.4" />
    <ellipse cx="20" cy="35" rx="8" ry="5" stroke-width="0.4" />
    <ellipse cx="45" cy="30" rx="8" ry="5" stroke-width="0.4" />
    <ellipse cx="70" cy="18" rx="8" ry="5" stroke-width="0.4" />
    <ellipse cx="70" cy="35" rx="8" ry="5" stroke-width="0.4" />
    <ellipse cx="95" cy="35" rx="8" ry="5" stroke-width="0.4" />
    <ellipse cx="120" cy="18" rx="8" ry="5" stroke-width="0.4" />
    <!-- Earth beads (below divider, 5 per rod) -->
    <ellipse cx="20" cy="68" rx="8" ry="5" stroke-width="0.4" />
    <ellipse cx="20" cy="82" rx="8" ry="5" stroke-width="0.4" />
    <ellipse cx="20" cy="96" rx="8" ry="5" stroke-width="0.4" />
    <ellipse cx="45" cy="68" rx="8" ry="5" stroke-width="0.4" />
    <ellipse cx="45" cy="82" rx="8" ry="5" stroke-width="0.4" />
    <ellipse cx="45" cy="96" rx="8" ry="5" stroke-width="0.4" />
    <ellipse cx="45" cy="110" rx="8" ry="5" stroke-width="0.4" />
    <ellipse cx="70" cy="68" rx="8" ry="5" stroke-width="0.4" />
    <ellipse cx="70" cy="82" rx="8" ry="5" stroke-width="0.4" />
    <ellipse cx="95" cy="68" rx="8" ry="5" stroke-width="0.4" />
    <ellipse cx="95" cy="82" rx="8" ry="5" stroke-width="0.4" />
    <ellipse cx="95" cy="96" rx="8" ry="5" stroke-width="0.4" />
    <ellipse cx="95" cy="110" rx="8" ry="5" stroke-width="0.4" />
    <ellipse cx="95" cy="124" rx="8" ry="5" stroke-width="0.4" />
    <ellipse cx="120" cy="68" rx="8" ry="5" stroke-width="0.4" />
    <ellipse cx="120" cy="82" rx="8" ry="5" stroke-width="0.4" />
    <ellipse cx="120" cy="96" rx="8" ry="5" stroke-width="0.4" />
    <!-- Idle beads pushed down -->
    <ellipse cx="20" cy="160" rx="8" ry="5" stroke-width="0.3" stroke-dasharray="1 2" />
    <ellipse cx="45" cy="160" rx="8" ry="5" stroke-width="0.3" stroke-dasharray="1 2" />
    <ellipse cx="70" cy="140" rx="8" ry="5" stroke-width="0.3" stroke-dasharray="1 2" />
    <ellipse cx="70" cy="154" rx="8" ry="5" stroke-width="0.3" stroke-dasharray="1 2" />
    <ellipse cx="70" cy="168" rx="8" ry="5" stroke-width="0.3" stroke-dasharray="1 2" />
    <!-- Value annotation -->
    <text class="annotation" x="15" y="195">C   L   X   V   I</text>
    <text class="label" x="20" y="215">abacus computandi</text>
  </g>

  <!-- ═══ CENTER: Golden Ratio Rectangles with Measurement Annotations ═══ -->

  <g transform="translate(400, 280)" class="sketch" stroke-width="0.5" opacity="0.25">
    <!-- Main golden rectangle -->
    <rect x="0" y="0" width="300" height="185.4" stroke-width="0.6" />
    <!-- Square partition -->
    <rect x="0" y="0" width="185.4" height="185.4" stroke-dasharray="3 3" stroke-width="0.4" />
    <!-- Second golden rectangle (remaining area) -->
    <rect x="185.4" y="0" width="114.6" height="185.4" stroke-width="0.5" />
    <!-- Square within second rectangle -->
    <line x1="185.4" y1="114.6" x2="300" y2="114.6" stroke-width="0.4" stroke-dasharray="2 3" />
    <!-- Third nesting -->
    <rect x="185.4" y="114.6" width="70.8" height="70.8" stroke-width="0.4" stroke-dasharray="2 2" />
    <rect x="256.2" y="114.6" width="43.8" height="70.8" stroke-width="0.3" stroke-dasharray="2 2" />
    <!-- Fourth nesting -->
    <line x1="256.2" y1="158.4" x2="300" y2="158.4" stroke-width="0.3" stroke-dasharray="1 2" />
    <!-- Dimension lines -->
    <line x1="0" y1="-12" x2="300" y2="-12" stroke-width="0.3" />
    <line x1="0" y1="-15" x2="0" y2="-9" stroke-width="0.3" />
    <line x1="300" y1="-15" x2="300" y2="-9" stroke-width="0.3" />
    <text class="annotation" x="130" y="-16">a + b</text>
    <!-- Width annotation -->
    <line x1="0" y1="197" x2="185.4" y2="197" stroke-width="0.3" />
    <line x1="0" y1="194" x2="0" y2="200" stroke-width="0.3" />
    <line x1="185.4" y1="194" x2="185.4" y2="200" stroke-width="0.3" />
    <text class="annotation" x="80" y="207">a</text>
    <line x1="185.4" y1="197" x2="300" y2="197" stroke-width="0.3" />
    <line x1="300" y1="194" x2="300" y2="200" stroke-width="0.3" />
    <text class="annotation" x="235" y="207">b</text>
    <!-- Height annotation -->
    <line x1="312" y1="0" x2="312" y2="185.4" stroke-width="0.3" />
    <line x1="309" y1="0" x2="315" y2="0" stroke-width="0.3" />
    <line x1="309" y1="185.4" x2="315" y2="185.4" stroke-width="0.3" />
    <text class="annotation" x="318" y="95">a</text>
    <!-- Phi equation -->
    <text class="label" x="80" y="90">φ = (a+b)/a = a/b</text>
    <text class="annotation" x="90" y="105">= 1.6180339887...</text>
    <!-- Diagonal construction line -->
    <line x1="0" y1="185.4" x2="300" y2="0" stroke-width="0.2" stroke-dasharray="4 6" />
    <!-- Construction arc -->
    <path d="M185.4,185.4 Q185.4,0 0,0" stroke-width="0.3" stroke-dasharray="3 4" />
    <text class="label" x="80" y="230">proportio aurea</text>
    <text class="label-sm" x="80" y="245">valor et mensura</text>
  </g>

  <!-- ═══ RIGHT SIDE: Da Vinci Compass/Divider Tool ═══ -->

  <g transform="translate(950, 250)" class="sketch" stroke-width="0.5" opacity="0.28">
    <!-- Hinge/pivot at top -->
    <circle cx="80" cy="10" r="6" stroke-width="0.5" />
    <circle cx="80" cy="10" r="2" class="sketch-fill" opacity="0.2" />
    <!-- Left leg -->
    <line x1="78" y1="16" x2="30" y2="170" stroke-width="0.7" />
    <!-- Right leg -->
    <line x1="82" y1="16" x2="130" y2="170" stroke-width="0.7" />
    <!-- Left point -->
    <path d="M28,165 L30,175 L32,165" stroke-width="0.4" class="sketch-fill" opacity="0.15" />
    <!-- Right point -->
    <path d="M128,165 L130,175 L132,165" stroke-width="0.4" class="sketch-fill" opacity="0.15" />
    <!-- Wing nut / tightening screw detail -->
    <ellipse cx="80" cy="10" rx="10" ry="4" stroke-width="0.3" />
    <!-- Spread arc showing measurement -->
    <path d="M30,170 Q80,190 130,170" stroke-width="0.3" stroke-dasharray="2 3" />
    <!-- Measurement tick marks along arc -->
    <line x1="55" y1="178" x2="55" y2="183" stroke-width="0.25" />
    <line x1="80" y1="182" x2="80" y2="187" stroke-width="0.25" />
    <line x1="105" y1="178" x2="105" y2="183" stroke-width="0.25" />
    <!-- Hinge detail lines -->
    <line x1="74" y1="10" x2="86" y2="10" stroke-width="0.3" />
    <circle cx="80" cy="10" r="8" stroke-width="0.25" stroke-dasharray="1 2" />
    <!-- Adjustment arc at top -->
    <path d="M60,55 Q80,45 100,55" stroke-width="0.3" stroke-dasharray="2 2" />
    <text class="label" x="30" y="205">circinus mensurandi</text>
    <text class="label-sm" x="45" y="218">pretium iustum</text>
  </g>

  <!-- ═══ CENTER-LEFT: Tesseract / Hypercube ═══ -->

  <g transform="translate(60, 600)" class="sketch" stroke-width="0.35" opacity="0.18">
    <!-- Outer cube -->
    <rect x="0" y="0" width="110" height="110" />
    <!-- Inner cube (shifted for perspective) -->
    <rect x="28" y="28" width="65" height="65" stroke-dasharray="2 2" />
    <!-- Connecting corners (outer to inner = 4D edges) -->
    <line x1="0" y1="0" x2="28" y2="28" stroke-width="0.3" />
    <line x1="110" y1="0" x2="93" y2="28" stroke-width="0.3" />
    <line x1="110" y1="110" x2="93" y2="93" stroke-width="0.3" />
    <line x1="0" y1="110" x2="28" y2="93" stroke-width="0.3" />
    <!-- Diagonals through center for depth illusion -->
    <line x1="0" y1="0" x2="93" y2="93" stroke-width="0.15" stroke-dasharray="3 5" />
    <line x1="110" y1="0" x2="28" y2="93" stroke-width="0.15" stroke-dasharray="3 5" />
    <!-- Center point -->
    <circle cx="55" cy="55" r="2" class="sketch-fill" opacity="0.1" />
    <text class="label-sm" x="15" y="130">hypercubus</text>
    <text class="label-sm" x="15" y="142">dimensio IV</text>
  </g>

  <!-- ═══ CENTER: Full Flower of Life (19+ overlapping circles) ═══ -->

  <g transform="translate(450, 750)" class="sketch-light" stroke-width="0.35" opacity="0.16">
    <!-- Seed of Life — inner 7 circles -->
    <circle cx="130" cy="130" r="42" />
    <circle cx="130" cy="88" r="42" />
    <circle cx="130" cy="172" r="42" />
    <circle cx="93.6" cy="109" r="42" />
    <circle cx="166.4" cy="109" r="42" />
    <circle cx="93.6" cy="151" r="42" />
    <circle cx="166.4" cy="151" r="42" />
    <!-- Second ring — 12 petals -->
    <circle cx="130" cy="46" r="42" />
    <circle cx="130" cy="214" r="42" />
    <circle cx="57.2" cy="88" r="42" />
    <circle cx="202.8" cy="88" r="42" />
    <circle cx="57.2" cy="172" r="42" />
    <circle cx="202.8" cy="172" r="42" />
    <circle cx="93.6" cy="67" r="42" />
    <circle cx="166.4" cy="67" r="42" />
    <circle cx="93.6" cy="193" r="42" />
    <circle cx="166.4" cy="193" r="42" />
    <circle cx="57.2" cy="130" r="42" />
    <circle cx="202.8" cy="130" r="42" />
    <!-- Enclosing circle with construction marks -->
    <circle cx="130" cy="130" r="130" stroke-dasharray="4 4" stroke-width="0.3" />
    <circle cx="130" cy="130" r="135" stroke-dasharray="1 8" stroke-width="0.2" />
    <!-- Center seed dot -->
    <circle cx="130" cy="130" r="2.5" class="sketch-fill" opacity="0.12" />
    <!-- Construction crosshairs -->
    <line x1="130" y1="-8" x2="130" y2="268" stroke-width="0.15" stroke-dasharray="6 8" />
    <line x1="-8" y1="130" x2="268" y2="130" stroke-width="0.15" stroke-dasharray="6 8" />
    <text class="label" x="55" y="285">flos vitae universalis</text>
  </g>

  <!-- ═══ RIGHT CENTER: Tree of Life / Sephirot ═══ -->

  <g transform="translate(980, 650)" class="sketch" stroke-width="0.4" opacity="0.17">
    <!-- 10 Sephirot (nodes) — classical layout -->
    <!-- Crown (Kether) -->
    <circle cx="70" cy="0" r="12" />
    <!-- Wisdom & Understanding -->
    <circle cx="30" cy="45" r="10" />
    <circle cx="110" cy="45" r="10" />
    <!-- Knowledge (Da'at) - hidden, dashed -->
    <circle cx="70" cy="70" r="8" stroke-dasharray="2 2" />
    <!-- Mercy & Severity -->
    <circle cx="30" cy="105" r="10" />
    <circle cx="110" cy="105" r="10" />
    <!-- Beauty (Tiferet) - center -->
    <circle cx="70" cy="130" r="12" />
    <!-- Victory & Splendor -->
    <circle cx="30" cy="175" r="10" />
    <circle cx="110" cy="175" r="10" />
    <!-- Foundation -->
    <circle cx="70" cy="210" r="10" />
    <!-- Kingdom (Malkuth) -->
    <circle cx="70" cy="260" r="12" />

    <!-- Paths (connecting lines) — The Three Pillars -->
    <!-- Left pillar -->
    <line x1="30" y1="55" x2="30" y2="95" stroke-width="0.3" />
    <line x1="30" y1="115" x2="30" y2="165" stroke-width="0.3" />
    <!-- Right pillar -->
    <line x1="110" y1="55" x2="110" y2="95" stroke-width="0.3" />
    <line x1="110" y1="115" x2="110" y2="165" stroke-width="0.3" />
    <!-- Middle pillar -->
    <line x1="70" y1="12" x2="70" y2="62" stroke-width="0.3" />
    <line x1="70" y1="78" x2="70" y2="118" stroke-width="0.3" />
    <line x1="70" y1="142" x2="70" y2="200" stroke-width="0.3" />
    <line x1="70" y1="220" x2="70" y2="248" stroke-width="0.3" />
    <!-- Cross paths -->
    <line x1="70" y1="12" x2="30" y2="35" stroke-width="0.25" />
    <line x1="70" y1="12" x2="110" y2="35" stroke-width="0.25" />
    <line x1="30" y1="55" x2="110" y2="95" stroke-width="0.2" stroke-dasharray="2 3" />
    <line x1="110" y1="55" x2="30" y2="95" stroke-width="0.2" stroke-dasharray="2 3" />
    <line x1="30" y1="55" x2="70" y2="118" stroke-width="0.2" />
    <line x1="110" y1="55" x2="70" y2="118" stroke-width="0.2" />
    <line x1="30" y1="115" x2="70" y2="142" stroke-width="0.2" />
    <line x1="110" y1="115" x2="70" y2="142" stroke-width="0.2" />
    <line x1="30" y1="185" x2="70" y2="200" stroke-width="0.25" />
    <line x1="110" y1="185" x2="70" y2="200" stroke-width="0.25" />
    <line x1="30" y1="185" x2="70" y2="248" stroke-width="0.2" stroke-dasharray="2 3" />
    <line x1="110" y1="185" x2="70" y2="248" stroke-width="0.2" stroke-dasharray="2 3" />

    <!-- Enclosing oval -->
    <ellipse cx="70" cy="130" rx="65" ry="145" stroke-dasharray="4 6" stroke-width="0.2" />
    <text class="label-sm" x="15" y="290">arbor vitae — sephirot</text>
  </g>

  <!-- ═══ LOWER LEFT: Stacked Coins/Tokens with Denomination Marks ═══ -->

  <g transform="translate(80, 1080)" class="sketch" stroke-width="0.5" opacity="0.25">
    <!-- Stack 1: Tall stack -->
    <ellipse cx="50" cy="120" rx="30" ry="8" stroke-width="0.4" />
    <ellipse cx="50" cy="110" rx="30" ry="8" stroke-width="0.4" />
    <ellipse cx="50" cy="100" rx="30" ry="8" stroke-width="0.4" />
    <ellipse cx="50" cy="90" rx="30" ry="8" stroke-width="0.4" />
    <ellipse cx="50" cy="80" rx="30" ry="8" stroke-width="0.4" />
    <ellipse cx="50" cy="70" rx="30" ry="8" stroke-width="0.4" />
    <!-- Side lines for depth -->
    <line x1="20" y1="70" x2="20" y2="120" stroke-width="0.3" />
    <line x1="80" y1="70" x2="80" y2="120" stroke-width="0.3" />
    <!-- Denomination mark on top coin -->
    <circle cx="50" cy="70" r="12" stroke-width="0.3" stroke-dasharray="1 2" />
    <text class="annotation" x="46" y="73">X</text>

    <!-- Stack 2: Medium stack -->
    <ellipse cx="130" cy="120" rx="25" ry="7" stroke-width="0.4" />
    <ellipse cx="130" cy="112" rx="25" ry="7" stroke-width="0.4" />
    <ellipse cx="130" cy="104" rx="25" ry="7" stroke-width="0.4" />
    <ellipse cx="130" cy="96" rx="25" ry="7" stroke-width="0.4" />
    <line x1="105" y1="96" x2="105" y2="120" stroke-width="0.3" />
    <line x1="155" y1="96" x2="155" y2="120" stroke-width="0.3" />
    <circle cx="130" cy="96" r="10" stroke-width="0.3" stroke-dasharray="1 2" />
    <text class="annotation" x="126" y="99">V</text>

    <!-- Stack 3: Short stack -->
    <ellipse cx="200" cy="120" rx="22" ry="6" stroke-width="0.4" />
    <ellipse cx="200" cy="113" rx="22" ry="6" stroke-width="0.4" />
    <line x1="178" y1="113" x2="178" y2="120" stroke-width="0.3" />
    <line x1="222" y1="113" x2="222" y2="120" stroke-width="0.3" />
    <circle cx="200" cy="113" r="9" stroke-width="0.3" stroke-dasharray="1 2" />
    <text class="annotation" x="197" y="116">I</text>

    <!-- Single coin detail (showing face) -->
    <circle cx="270" cy="110" r="18" stroke-width="0.5" />
    <circle cx="270" cy="110" r="15" stroke-dasharray="2 2" stroke-width="0.3" />
    <circle cx="270" cy="110" r="5" stroke-width="0.3" />
    <!-- Cross pattern on coin -->
    <line x1="270" y1="95" x2="270" y2="125" stroke-width="0.2" />
    <line x1="255" y1="110" x2="285" y2="110" stroke-width="0.2" />
    <text class="annotation" x="262" y="113">D</text>

    <text class="label" x="60" y="155">nummi et pondera</text>
  </g>

  <!-- ═══ LOWER CENTER: Vesica Piscis Construction ═══ -->

  <g transform="translate(400, 1200)" class="sketch" stroke-width="0.35" opacity="0.16">
    <!-- Two overlapping circles -->
    <circle cx="45" cy="55" r="50" />
    <circle cx="95" cy="55" r="50" />
    <!-- Vesica highlight (the almond shape where they overlap) -->
    <path d="M70,8.4 Q45,55 70,101.6 Q95,55 70,8.4" stroke-width="0.5" stroke-dasharray="2 2" />
    <!-- Center line and construction -->
    <line x1="70" y1="-2" x2="70" y2="112" stroke-width="0.15" stroke-dasharray="3 5" />
    <line x1="-10" y1="55" x2="145" y2="55" stroke-width="0.15" stroke-dasharray="3 5" />
    <circle cx="70" cy="55" r="2" class="sketch-fill" opacity="0.12" />
    <!-- Center dots of each circle -->
    <circle cx="45" cy="55" r="1.5" class="sketch-fill" opacity="0.1" />
    <circle cx="95" cy="55" r="1.5" class="sketch-fill" opacity="0.1" />
    <!-- Radius annotation -->
    <line x1="45" y1="55" x2="45" y2="5" stroke-width="0.2" stroke-dasharray="2 3" />
    <text class="annotation" x="33" y="30">r</text>
    <!-- Ratio annotation -->
    <text class="label-sm" x="25" y="125">vesica piscis</text>
    <text class="label-sm" x="25" y="138">√3 : 1</text>
  </g>

  <!-- ═══ LOWER RIGHT: Golden Spiral with Phi Annotation ═══ -->

  <g transform="translate(750, 1350)" class="sketch" stroke-width="0.5" opacity="0.2">
    <!-- Main golden rectangle -->
    <rect x="0" y="0" width="220" height="135.9" stroke-width="0.5" />
    <!-- Fibonacci subdivisions -->
    <rect x="0" y="0" width="135.9" height="135.9" stroke-width="0.4" />
    <rect x="135.9" y="0" width="84.1" height="84.1" stroke-width="0.4" />
    <rect x="135.9" y="84.1" width="51.9" height="51.9" stroke-width="0.4" />
    <rect x="187.8" y="84.1" width="32.2" height="32.2" stroke-width="0.35" />
    <rect x="187.8" y="116.3" width="19.9" height="19.7" stroke-width="0.3" />
    <!-- Golden spiral arcs -->
    <path d="M135.9,135.9 Q135.9,0 0,0" stroke-width="0.7" />
    <path d="M135.9,0 Q220,0 220,84.1" stroke-width="0.6" />
    <path d="M220,84.1 Q220,135.9 187.8,135.9" stroke-width="0.5" />
    <path d="M187.8,135.9 Q135.9,135.9 135.9,116.3" stroke-width="0.5" />
    <path d="M135.9,116.3 Q135.9,84.1 155.8,84.1" stroke-width="0.4" />
    <!-- Fibonacci numbers -->
    <text class="annotation" x="60" y="72">89</text>
    <text class="annotation" x="170" y="45">55</text>
    <text class="annotation" x="155" y="115">34</text>
    <text class="annotation" x="200" y="102">21</text>
    <!-- Phi label -->
    <text class="label" x="50" y="158">φ = 1.618</text>
    <text class="label-sm" x="50" y="172">proportio aurea valoris</text>
  </g>

  <!-- ═══ BOTTOM: Icosahedron Wireframe ═══ -->

  <g transform="translate(450, 1550)" class="sketch" stroke-width="0.3" opacity="0.15">
    <!-- Top vertex -->
    <circle cx="80" cy="0" r="2" class="sketch-fill" opacity="0.15" />
    <!-- Upper pentagon ring -->
    <circle cx="80" cy="32" r="1.5" class="sketch-fill" opacity="0.1" />
    <circle cx="115" cy="48" r="1.5" class="sketch-fill" opacity="0.1" />
    <circle cx="105" cy="88" r="1.5" class="sketch-fill" opacity="0.1" />
    <circle cx="55" cy="88" r="1.5" class="sketch-fill" opacity="0.1" />
    <circle cx="45" cy="48" r="1.5" class="sketch-fill" opacity="0.1" />
    <!-- Lower pentagon ring (rotated) -->
    <circle cx="98" cy="62" r="1.5" class="sketch-fill" opacity="0.1" />
    <circle cx="112" cy="98" r="1.5" class="sketch-fill" opacity="0.1" />
    <circle cx="80" cy="118" r="1.5" class="sketch-fill" opacity="0.1" />
    <circle cx="48" cy="98" r="1.5" class="sketch-fill" opacity="0.1" />
    <circle cx="62" cy="62" r="1.5" class="sketch-fill" opacity="0.1" />
    <!-- Bottom vertex -->
    <circle cx="80" cy="140" r="2" class="sketch-fill" opacity="0.15" />
    <!-- Upper cap edges -->
    <line x1="80" y1="0" x2="80" y2="32" />
    <line x1="80" y1="0" x2="115" y2="48" />
    <line x1="80" y1="0" x2="45" y2="48" />
    <line x1="80" y1="0" x2="105" y2="88" stroke-dasharray="2 3" />
    <line x1="80" y1="0" x2="55" y2="88" stroke-dasharray="2 3" />
    <!-- Upper ring -->
    <line x1="80" y1="32" x2="115" y2="48" />
    <line x1="115" y1="48" x2="105" y2="88" />
    <line x1="105" y1="88" x2="55" y2="88" />
    <line x1="55" y1="88" x2="45" y2="48" />
    <line x1="45" y1="48" x2="80" y2="32" />
    <!-- Equatorial connections -->
    <line x1="80" y1="32" x2="98" y2="62" stroke-width="0.25" />
    <line x1="80" y1="32" x2="62" y2="62" stroke-width="0.25" />
    <line x1="115" y1="48" x2="98" y2="62" stroke-width="0.25" />
    <line x1="115" y1="48" x2="112" y2="98" stroke-width="0.25" />
    <line x1="105" y1="88" x2="112" y2="98" stroke-width="0.25" />
    <line x1="105" y1="88" x2="80" y2="118" stroke-width="0.25" />
    <line x1="55" y1="88" x2="80" y2="118" stroke-width="0.25" />
    <line x1="55" y1="88" x2="48" y2="98" stroke-width="0.25" />
    <line x1="45" y1="48" x2="48" y2="98" stroke-width="0.25" />
    <line x1="45" y1="48" x2="62" y2="62" stroke-width="0.25" />
    <!-- Lower cap edges -->
    <line x1="80" y1="140" x2="98" y2="62" stroke-dasharray="2 3" />
    <line x1="80" y1="140" x2="112" y2="98" />
    <line x1="80" y1="140" x2="80" y2="118" />
    <line x1="80" y1="140" x2="48" y2="98" />
    <line x1="80" y1="140" x2="62" y2="62" stroke-dasharray="2 3" />
    <!-- Circumscribed sphere hint -->
    <circle cx="80" cy="70" r="75" stroke-dasharray="3 6" stroke-width="0.2" />
    <text class="label-sm" x="25" y="165">icosahedron — facies XX</text>
  </g>

  <!-- ═══ UPPER RIGHT: Pricing tier diagram (Da Vinci style) ═══ -->

  <g transform="translate(780, 80)" class="sketch" stroke-width="0.4" opacity="0.22">
    <!-- Three ascending columns like pricing tiers -->
    <rect x="0" y="70" width="40" height="60" rx="2" />
    <rect x="50" y="40" width="40" height="90" rx="2" />
    <rect x="100" y="10" width="40" height="120" rx="2" />
    <!-- Column labels -->
    <text class="annotation" x="8" y="105">I</text>
    <text class="annotation" x="58" y="90">II</text>
    <text class="annotation" x="108" y="75">III</text>
    <!-- Value arrows -->
    <line x1="155" y1="120" x2="155" y2="15" stroke-width="0.3" />
    <path d="M152,18 L155,10 L158,18" stroke-width="0.3" class="sketch-fill" opacity="0.15" />
    <text class="annotation" x="160" y="70" transform="rotate(-90, 160, 70)">VALOR</text>
    <!-- Baseline -->
    <line x1="-5" y1="130" x2="150" y2="130" stroke-width="0.3" />
    <text class="label-sm" x="20" y="148">gradus pretii</text>
  </g>

  <!-- ═══ SCATTERED: Grid dots, notebook lines, mirror writing ═══ -->

  <!-- Scattered tiny construction marks / grid points -->
  <g class="sketch-fill" opacity="0.06">
    <circle cx="320" cy="180" r="2" />
    <circle cx="680" cy="420" r="2" />
    <circle cx="1100" cy="580" r="2" />
    <circle cx="250" cy="950" r="2" />
    <circle cx="850" cy="1000" r="2" />
    <circle cx="1250" cy="850" r="2" />
    <circle cx="550" cy="1450" r="2" />
    <circle cx="1000" cy="1350" r="2" />
    <!-- Additional grid intersections -->
    <circle cx="180" cy="500" r="1.5" />
    <circle cx="730" cy="650" r="1.5" />
    <circle cx="380" cy="880" r="1.5" />
    <circle cx="1300" cy="500" r="1.5" />
    <circle cx="620" cy="1150" r="1.5" />
    <circle cx="330" cy="1400" r="1.5" />
    <circle cx="900" cy="1500" r="1.5" />
    <circle cx="1200" cy="1050" r="1.5" />
  </g>

  <!-- Faint construction grid lines (Da Vinci notebook ruled lines) -->
  <g class="sketch" stroke-width="0.15" opacity="0.04">
    <line x1="0" y1="300" x2="1400" y2="300" />
    <line x1="0" y1="600" x2="1400" y2="600" />
    <line x1="0" y1="900" x2="1400" y2="900" />
    <line x1="0" y1="1200" x2="1400" y2="1200" />
    <line x1="0" y1="1500" x2="1400" y2="1500" />
    <line x1="350" y1="0" x2="350" y2="1800" />
    <line x1="700" y1="0" x2="700" y2="1800" />
    <line x1="1050" y1="0" x2="1050" y2="1800" />
  </g>

  <!-- Faint mirror writing hint (reversed text like Da Vinci) -->
  <g opacity="0.06">
    <text class="label" x="1050" y="1100" transform="scale(-1,1) translate(-2100,0)">pretium iustum</text>
    <text class="label-sm" x="250" y="1500" transform="scale(-1,1) translate(-500,0)">omnia mensura</text>
    <text class="label-sm" x="850" y="680" transform="scale(-1,1) translate(-1700,0)">geometria sacra</text>
    <text class="label-sm" x="650" y="1350" transform="scale(-1,1) translate(-1300,0)">aurum et ratio</text>
  </g>

  <!-- Small compass rose / measurement reference (top center area) -->
  <g transform="translate(620, 140)" class="sketch" stroke-width="0.3" opacity="0.12">
    <circle cx="30" cy="30" r="25" />
    <circle cx="30" cy="30" r="18" stroke-dasharray="2 3" />
    <line x1="30" y1="5" x2="30" y2="55" stroke-width="0.25" />
    <line x1="5" y1="30" x2="55" y2="30" stroke-width="0.25" />
    <!-- Cardinal points -->
    <path d="M30,5 L33,15 L27,15 Z" class="sketch-fill" opacity="0.15" />
    <line x1="12" y1="12" x2="48" y2="48" stroke-width="0.15" stroke-dasharray="2 3" />
    <line x1="48" y1="12" x2="12" y2="48" stroke-width="0.15" stroke-dasharray="2 3" />
  </g>

  <!-- Additional scattered Latin labels -->
  <g opacity="0.12">
    <text class="label-sm" x="1200" y="400">aequilibrium</text>
    <text class="label-sm" x="300" y="780">numerus aureus</text>
    <text class="label-sm" x="750" y="1250">valor et mensura</text>
  </g>

</svg>