<svg xmlns="http://www.w3.org/2000/svg" width="1400" height="1800" viewBox="0 0 1400 1800">
  <defs>
    <style>
      .sketch { stroke: #b8a080; fill: none; }
      .sketch-light { stroke: #b8a080; fill: none; opacity: 0.5; }
      .sketch-fill { fill: #b8a080; stroke: none; }
      .label { font-family: 'Fraunces', 'Georgia', serif; fill: #b8a080; font-size: 11px; font-style: italic; }
      .label-sm { font-family: 'Fraunces', 'Georgia', serif; fill: #b8a080; font-size: 8px; font-style: italic; }
      .annotation { font-family: 'Source Sans 3', sans-serif; fill: #b8a080; font-size: 7px; letter-spacing: 0.5px; }
    </style>
  </defs>

  <!-- ═══ TOP LEFT: Da Vinci printing press mechanism ═══ -->

  <g transform="translate(80, 60)" class="sketch" stroke-width="0.6" opacity="0.32">
    <!-- Press frame -->
    <rect x="0" y="20" width="180" height="140" rx="3" />
    <!-- Top beam -->
    <rect x="-5" y="15" width="190" height="10" rx="2" />
    <!-- Screw mechanism -->
    <line x1="90" y1="15" x2="90" y2="-15" stroke-width="0.7" />
    <circle cx="90" cy="-18" r="8" />
    <!-- Handle bar -->
    <line x1="70" y1="-18" x2="110" y2="-18" stroke-width="0.6" />
    <circle cx="70" cy="-18" r="3" stroke-width="0.4" />
    <circle cx="110" cy="-18" r="3" stroke-width="0.4" />
    <!-- Screw thread pattern -->
    <path d="M87,12 Q93,8 87,4 Q93,0 87,-4 Q93,-8 87,-12" stroke-width="0.3" />
    <!-- Platen (pressing plate) -->
    <rect x="20" y="55" width="140" height="8" rx="1" stroke-width="0.5" />
    <!-- Type bed -->
    <rect x="25" y="80" width="130" height="50" rx="2" stroke-width="0.4" />
    <!-- Type blocks (tiny rectangles) -->
    <line x1="35" y1="88" x2="145" y2="88" stroke-width="0.3" />
    <line x1="35" y1="95" x2="140" y2="95" stroke-width="0.3" />
    <line x1="35" y1="102" x2="145" y2="102" stroke-width="0.3" />
    <line x1="35" y1="109" x2="130" y2="109" stroke-width="0.3" />
    <line x1="35" y1="116" x2="142" y2="116" stroke-width="0.3" />
    <!-- Paper coming out -->
    <path d="M25,135 Q25,155 40,160 L140,160 Q155,155 155,135" stroke-width="0.4" stroke-dasharray="2 3" />
    <!-- Support legs -->
    <line x1="10" y1="160" x2="10" y2="185" stroke-width="0.5" />
    <line x1="170" y1="160" x2="170" y2="185" stroke-width="0.5" />
    <line x1="0" y1="185" x2="25" y2="185" stroke-width="0.4" />
    <line x1="155" y1="185" x2="180" y2="185" stroke-width="0.4" />
    <text class="label" x="30" y="205">prelum typographicum</text>
  </g>

  <!-- ═══ TOP RIGHT: Seed of Life ═══ -->

  <g transform="translate(520, 30)" class="sketch" stroke-width="0.35" opacity="0.18">
    <circle cx="40" cy="40" r="25" />
    <circle cx="40" cy="15" r="25" />
    <circle cx="40" cy="65" r="25" />
    <circle cx="18.35" cy="27.5" r="25" />
    <circle cx="61.65" cy="27.5" r="25" />
    <circle cx="18.35" cy="52.5" r="25" />
    <circle cx="61.65" cy="52.5" r="25" />
    <circle cx="40" cy="40" r="50" stroke-dasharray="2 3" />
    <circle cx="40" cy="40" r="2" class="sketch-fill" opacity="0.12" />
    <text class="label-sm" x="10" y="100">semen vitae</text>
  </g>

  <!-- ═══ RIGHT SIDE: Quill pen with inkwell ═══ -->

  <g transform="translate(920, 70)" class="sketch" stroke-width="0.5" opacity="0.3">
    <!-- Quill shaft -->
    <path d="M10,160 Q40,120 80,60 Q100,30 120,10" stroke-width="0.6" />
    <!-- Feather barbs (left) -->
    <path d="M80,60 Q65,55 55,65" stroke-width="0.3" />
    <path d="M90,45 Q75,40 65,50" stroke-width="0.3" />
    <path d="M100,32 Q85,28 78,36" stroke-width="0.3" />
    <path d="M108,22 Q95,18 88,25" stroke-width="0.3" />
    <path d="M115,14 Q105,10 100,16" stroke-width="0.3" />
    <!-- Feather barbs (right) -->
    <path d="M80,60 Q90,50 100,58" stroke-width="0.3" />
    <path d="M90,45 Q100,38 108,45" stroke-width="0.3" />
    <path d="M100,32 Q110,26 115,32" stroke-width="0.3" />
    <path d="M108,22 Q118,17 122,22" stroke-width="0.3" />
    <!-- Nib -->
    <path d="M10,160 L5,168 L10,165 L15,168 Z" stroke-width="0.4" />
    <!-- Ink drop -->
    <circle cx="8" cy="172" r="2" class="sketch-fill" opacity="0.2" />
    <!-- Inkwell -->
    <ellipse cx="15" cy="185" rx="25" ry="8" />
    <path d="M-10,185 Q-10,200 15,200 Q40,200 40,185" stroke-width="0.4" />
    <ellipse cx="15" cy="178" rx="12" ry="4" class="sketch-fill" opacity="0.08" />
    <text class="label" x="50" y="200">calamus et atramentum</text>
  </g>

  <!-- ═══ TOP FAR RIGHT: Metatron's Cube ═══ -->

  <g transform="translate(1180, 60)" class="sketch" stroke-width="0.3" opacity="0.15">
    <circle cx="60" cy="60" r="8" />
    <circle cx="60" cy="35" r="8" />
    <circle cx="81.65" cy="47.5" r="8" />
    <circle cx="81.65" cy="72.5" r="8" />
    <circle cx="60" cy="85" r="8" />
    <circle cx="38.35" cy="72.5" r="8" />
    <circle cx="38.35" cy="47.5" r="8" />
    <circle cx="60" cy="10" r="8" stroke-dasharray="1 2" />
    <circle cx="103.3" cy="35" r="8" stroke-dasharray="1 2" />
    <circle cx="103.3" cy="85" r="8" stroke-dasharray="1 2" />
    <circle cx="60" cy="110" r="8" stroke-dasharray="1 2" />
    <circle cx="16.7" cy="85" r="8" stroke-dasharray="1 2" />
    <circle cx="16.7" cy="35" r="8" stroke-dasharray="1 2" />
    <line x1="60" y1="10" x2="103.3" y2="85" stroke-width="0.2" />
    <line x1="60" y1="10" x2="16.7" y2="85" stroke-width="0.2" />
    <line x1="103.3" y1="35" x2="16.7" y2="85" stroke-width="0.2" />
    <line x1="103.3" y1="35" x2="60" y2="110" stroke-width="0.2" />
    <line x1="103.3" y1="85" x2="16.7" y2="35" stroke-width="0.2" />
    <line x1="16.7" y1="35" x2="60" y2="110" stroke-width="0.2" />
    <line x1="60" y1="10" x2="60" y2="110" stroke-width="0.2" />
    <line x1="16.7" y1="35" x2="103.3" y2="35" stroke-width="0.2" />
    <line x1="16.7" y1="85" x2="103.3" y2="85" stroke-width="0.2" />
    <circle cx="60" cy="60" r="58" stroke-dasharray="3 4" stroke-width="0.25" />
    <text class="label-sm" x="15" y="130">cubus Metatronis</text>
  </g>

  <!-- ═══ LEFT CENTER: Wax seal ═══ -->

  <g transform="translate(100, 380)" class="sketch" stroke-width="0.5" opacity="0.28">
    <!-- Outer seal circle -->
    <circle cx="60" cy="60" r="50" />
    <circle cx="60" cy="60" r="45" stroke-dasharray="2 2" />
    <!-- Inner decorative ring -->
    <circle cx="60" cy="60" r="35" stroke-width="0.3" />
    <!-- Shield in center -->
    <path d="M40,40 L60,35 L80,40 L80,70 Q60,85 40,70 Z" stroke-width="0.4" />
    <!-- Cross on shield -->
    <line x1="60" y1="40" x2="60" y2="75" stroke-width="0.3" />
    <line x1="44" y1="55" x2="76" y2="55" stroke-width="0.3" />
    <!-- Decorative dots around rim -->
    <circle cx="60" cy="14" r="2" class="sketch-fill" opacity="0.15" />
    <circle cx="60" cy="106" r="2" class="sketch-fill" opacity="0.15" />
    <circle cx="14" cy="60" r="2" class="sketch-fill" opacity="0.15" />
    <circle cx="106" cy="60" r="2" class="sketch-fill" opacity="0.15" />
    <circle cx="25" cy="25" r="1.5" class="sketch-fill" opacity="0.12" />
    <circle cx="95" cy="25" r="1.5" class="sketch-fill" opacity="0.12" />
    <circle cx="25" cy="95" r="1.5" class="sketch-fill" opacity="0.12" />
    <circle cx="95" cy="95" r="1.5" class="sketch-fill" opacity="0.12" />
    <!-- Wax drip -->
    <path d="M10,60 Q5,65 8,70 Q12,75 10,80" stroke-width="0.4" />
    <text class="label" x="20" y="130">sigillum authenticum</text>
  </g>

  <!-- ═══ CENTER RIGHT: Herald trumpet ═══ -->

  <g transform="translate(850, 350)" class="sketch" stroke-width="0.5" opacity="0.25">
    <!-- Bell of trumpet -->
    <path d="M180,50 Q200,30 200,60 Q200,90 180,70" />
    <ellipse cx="200" cy="60" rx="8" ry="22" stroke-width="0.4" />
    <!-- Trumpet body -->
    <line x1="180" y1="50" x2="20" y2="55" stroke-width="0.5" />
    <line x1="180" y1="70" x2="20" y2="65" stroke-width="0.5" />
    <!-- Mouthpiece -->
    <ellipse cx="18" cy="60" rx="5" ry="8" stroke-width="0.4" />
    <circle cx="12" cy="60" r="3" />
    <!-- Valve casing -->
    <rect x="80" y="48" width="15" height="24" rx="2" stroke-width="0.3" />
    <rect x="105" y="48" width="15" height="24" rx="2" stroke-width="0.3" />
    <rect x="130" y="48" width="15" height="24" rx="2" stroke-width="0.3" />
    <!-- Banner hanging from trumpet -->
    <path d="M140,70 Q145,85 160,90 L160,120 Q140,115 130,120 L130,90 Q140,85 140,70" stroke-width="0.4" />
    <!-- Banner text lines -->
    <line x1="135" y1="98" x2="155" y2="96" stroke-width="0.2" />
    <line x1="135" y1="105" x2="155" y2="103" stroke-width="0.2" />
    <line x1="135" y1="112" x2="152" y2="110" stroke-width="0.2" />
    <!-- Sound waves -->
    <path d="M212,50 Q220,60 212,70" stroke-width="0.3" stroke-dasharray="2 2" />
    <path d="M222,42 Q235,60 222,78" stroke-width="0.25" stroke-dasharray="2 3" />
    <path d="M232,35 Q250,60 232,85" stroke-width="0.2" stroke-dasharray="2 4" />
    <text class="label" x="60" y="140">tuba praeconis</text>
  </g>

  <!-- ═══ CENTER: Flower of Life ═══ -->

  <g transform="translate(480, 780)" class="sketch-light" stroke-width="0.35" opacity="0.16">
    <circle cx="120" cy="120" r="40" />
    <circle cx="120" cy="80" r="40" />
    <circle cx="120" cy="160" r="40" />
    <circle cx="85.36" cy="100" r="40" />
    <circle cx="154.64" cy="100" r="40" />
    <circle cx="85.36" cy="140" r="40" />
    <circle cx="154.64" cy="140" r="40" />
    <circle cx="120" cy="40" r="40" />
    <circle cx="120" cy="200" r="40" />
    <circle cx="50.72" cy="80" r="40" />
    <circle cx="189.28" cy="80" r="40" />
    <circle cx="50.72" cy="160" r="40" />
    <circle cx="189.28" cy="160" r="40" />
    <circle cx="85.36" cy="60" r="40" />
    <circle cx="154.64" cy="60" r="40" />
    <circle cx="85.36" cy="180" r="40" />
    <circle cx="154.64" cy="180" r="40" />
    <circle cx="50.72" cy="120" r="40" />
    <circle cx="189.28" cy="120" r="40" />
    <circle cx="120" cy="120" r="120" stroke-dasharray="4 4" stroke-width="0.3" />
    <circle cx="120" cy="120" r="125" stroke-dasharray="1 8" stroke-width="0.2" />
    <circle cx="120" cy="120" r="2.5" class="sketch-fill" opacity="0.12" />
    <line x1="120" y1="-5" x2="120" y2="245" stroke-width="0.15" stroke-dasharray="6 8" />
    <line x1="-5" y1="120" x2="245" y2="120" stroke-width="0.15" stroke-dasharray="6 8" />
    <text class="label" x="50" y="265">flos vitae universalis</text>
  </g>

  <!-- ═══ LEFT LOWER: Open book / manuscript ═══ -->

  <g transform="translate(60, 650)" class="sketch" stroke-width="0.5" opacity="0.25">
    <!-- Book spine -->
    <path d="M75,0 Q75,5 75,120" stroke-width="0.6" />
    <!-- Left page -->
    <path d="M75,0 Q40,-5 5,5 L5,115 Q40,110 75,120" stroke-width="0.5" />
    <!-- Right page -->
    <path d="M75,0 Q110,-5 145,5 L145,115 Q110,110 75,120" stroke-width="0.5" />
    <!-- Text lines (left page) -->
    <line x1="15" y1="20" x2="65" y2="18" stroke-width="0.2" />
    <line x1="15" y1="30" x2="60" y2="28" stroke-width="0.2" />
    <line x1="15" y1="40" x2="63" y2="38" stroke-width="0.2" />
    <line x1="15" y1="50" x2="55" y2="48" stroke-width="0.2" />
    <line x1="15" y1="65" x2="65" y2="63" stroke-width="0.2" />
    <line x1="15" y1="75" x2="62" y2="73" stroke-width="0.2" />
    <line x1="15" y1="85" x2="58" y2="83" stroke-width="0.2" />
    <!-- Illustration on right page -->
    <rect x="85" y="18" width="50" height="40" rx="2" stroke-width="0.3" stroke-dasharray="1 2" />
    <line x1="85" y1="70" x2="135" y2="68" stroke-width="0.2" />
    <line x1="85" y1="80" x2="130" y2="78" stroke-width="0.2" />
    <line x1="85" y1="90" x2="133" y2="88" stroke-width="0.2" />
    <!-- Decorative initial -->
    <rect x="12" y="14" width="12" height="12" rx="1" stroke-width="0.3" />
    <text class="label" x="20" y="145">codex communicationis</text>
  </g>

  <!-- ═══ RIGHT: Tree of Life / Sephirot ═══ -->

  <g transform="translate(980, 650)" class="sketch" stroke-width="0.4" opacity="0.17">
    <circle cx="70" cy="0" r="12" />
    <circle cx="30" cy="45" r="10" />
    <circle cx="110" cy="45" r="10" />
    <circle cx="70" cy="70" r="8" stroke-dasharray="2 2" />
    <circle cx="30" cy="105" r="10" />
    <circle cx="110" cy="105" r="10" />
    <circle cx="70" cy="130" r="12" />
    <circle cx="30" cy="175" r="10" />
    <circle cx="110" cy="175" r="10" />
    <circle cx="70" cy="210" r="10" />
    <circle cx="70" cy="260" r="12" />
    <line x1="30" y1="55" x2="30" y2="95" stroke-width="0.3" />
    <line x1="30" y1="115" x2="30" y2="165" stroke-width="0.3" />
    <line x1="110" y1="55" x2="110" y2="95" stroke-width="0.3" />
    <line x1="110" y1="115" x2="110" y2="165" stroke-width="0.3" />
    <line x1="70" y1="12" x2="70" y2="62" stroke-width="0.3" />
    <line x1="70" y1="78" x2="70" y2="118" stroke-width="0.3" />
    <line x1="70" y1="142" x2="70" y2="200" stroke-width="0.3" />
    <line x1="70" y1="220" x2="70" y2="248" stroke-width="0.3" />
    <line x1="70" y1="12" x2="30" y2="35" stroke-width="0.25" />
    <line x1="70" y1="12" x2="110" y2="35" stroke-width="0.25" />
    <line x1="30" y1="55" x2="110" y2="95" stroke-width="0.2" stroke-dasharray="2 3" />
    <line x1="110" y1="55" x2="30" y2="95" stroke-width="0.2" stroke-dasharray="2 3" />
    <line x1="30" y1="185" x2="70" y2="200" stroke-width="0.25" />
    <line x1="110" y1="185" x2="70" y2="200" stroke-width="0.25" />
    <ellipse cx="70" cy="130" rx="65" ry="145" stroke-dasharray="4 6" stroke-width="0.2" />
    <text class="label-sm" x="15" y="290">arbor vitae — sephirot</text>
  </g>

  <!-- ═══ LOWER LEFT: Scroll / proclamation ═══ -->

  <g transform="translate(80, 1100)" class="sketch" stroke-width="0.5" opacity="0.25">
    <!-- Top roll -->
    <ellipse cx="70" cy="10" rx="65" ry="10" />
    <ellipse cx="70" cy="10" rx="65" ry="7" stroke-dasharray="2 3" />
    <!-- Scroll body -->
    <line x1="5" y1="10" x2="5" y2="160" stroke-width="0.4" />
    <line x1="135" y1="10" x2="135" y2="160" stroke-width="0.4" />
    <!-- Bottom roll -->
    <ellipse cx="70" cy="160" rx="65" ry="10" />
    <!-- Scroll decorative ends -->
    <circle cx="0" cy="10" r="5" stroke-width="0.3" />
    <circle cx="140" cy="10" r="5" stroke-width="0.3" />
    <circle cx="0" cy="160" r="5" stroke-width="0.3" />
    <circle cx="140" cy="160" r="5" stroke-width="0.3" />
    <!-- Text on scroll -->
    <line x1="20" y1="35" x2="120" y2="35" stroke-width="0.3" />
    <line x1="20" y1="48" x2="115" y2="48" stroke-width="0.3" />
    <line x1="20" y1="61" x2="120" y2="61" stroke-width="0.3" />
    <line x1="20" y1="74" x2="100" y2="74" stroke-width="0.3" />
    <line x1="20" y1="92" x2="118" y2="92" stroke-width="0.3" />
    <line x1="20" y1="105" x2="112" y2="105" stroke-width="0.3" />
    <line x1="20" y1="118" x2="120" y2="118" stroke-width="0.3" />
    <line x1="20" y1="131" x2="95" y2="131" stroke-width="0.3" />
    <text class="label" x="15" y="195">volumen nuntium</text>
  </g>

  <!-- ═══ CENTER LOWER: Movable type blocks ═══ -->

  <g transform="translate(400, 1180)" class="sketch" stroke-width="0.4" opacity="0.22">
    <!-- Type case grid -->
    <rect x="0" y="0" width="180" height="100" rx="3" />
    <!-- Grid divisions -->
    <line x1="36" y1="0" x2="36" y2="100" stroke-width="0.3" />
    <line x1="72" y1="0" x2="72" y2="100" stroke-width="0.3" />
    <line x1="108" y1="0" x2="108" y2="100" stroke-width="0.3" />
    <line x1="144" y1="0" x2="144" y2="100" stroke-width="0.3" />
    <line x1="0" y1="33" x2="180" y2="33" stroke-width="0.3" />
    <line x1="0" y1="66" x2="180" y2="66" stroke-width="0.3" />
    <!-- Letter blocks (reversed, like real type) -->
    <text class="annotation" x="12" y="22" transform="scale(-1,1) translate(-36,0)">A</text>
    <text class="annotation" x="50" y="22" transform="scale(-1,1) translate(-108,0)">B</text>
    <text class="annotation" x="86" y="22" transform="scale(-1,1) translate(-180,0)">C</text>
    <text class="annotation" x="120" y="22" transform="scale(-1,1) translate(-252,0)">D</text>
    <text class="annotation" x="155" y="22" transform="scale(-1,1) translate(-320,0)">E</text>
    <!-- Individual type block (detail) -->
    <rect x="200" y="20" width="25" height="35" rx="1" stroke-width="0.5" />
    <rect x="203" y="22" width="19" height="15" rx="1" stroke-width="0.3" />
    <text class="annotation" x="208" y="34" transform="scale(-1,1) translate(-430,0)">R</text>
    <line x1="200" y1="42" x2="225" y2="42" stroke-width="0.2" />
    <text class="label-sm" x="40" y="120">typus mobilis — Gutenberg</text>
  </g>

  <!-- ═══ RIGHT LOWER: Newspaper / broadsheet ═══ -->

  <g transform="translate(950, 1100)" class="sketch" stroke-width="0.4" opacity="0.2">
    <!-- Paper sheet -->
    <rect x="0" y="0" width="160" height="200" rx="2" />
    <!-- Header -->
    <line x1="10" y1="25" x2="150" y2="25" stroke-width="0.5" />
    <text class="annotation" x="40" y="18">ACTA DIURNA</text>
    <!-- Columns -->
    <line x1="80" y1="35" x2="80" y2="190" stroke-width="0.2" />
    <!-- Left column text -->
    <line x1="10" y1="40" x2="70" y2="40" stroke-width="0.2" />
    <line x1="10" y1="48" x2="68" y2="48" stroke-width="0.2" />
    <line x1="10" y1="56" x2="70" y2="56" stroke-width="0.2" />
    <line x1="10" y1="64" x2="65" y2="64" stroke-width="0.2" />
    <line x1="10" y1="72" x2="70" y2="72" stroke-width="0.2" />
    <line x1="10" y1="80" x2="62" y2="80" stroke-width="0.2" />
    <line x1="10" y1="95" x2="70" y2="95" stroke-width="0.2" />
    <line x1="10" y1="103" x2="68" y2="103" stroke-width="0.2" />
    <line x1="10" y1="111" x2="70" y2="111" stroke-width="0.2" />
    <line x1="10" y1="119" x2="60" y2="119" stroke-width="0.2" />
    <!-- Right column text -->
    <line x1="90" y1="40" x2="150" y2="40" stroke-width="0.2" />
    <line x1="90" y1="48" x2="145" y2="48" stroke-width="0.2" />
    <line x1="90" y1="56" x2="150" y2="56" stroke-width="0.2" />
    <line x1="90" y1="64" x2="140" y2="64" stroke-width="0.2" />
    <!-- Image placeholder -->
    <rect x="90" y="75" width="55" height="40" rx="1" stroke-dasharray="2 2" stroke-width="0.3" />
    <line x1="90" y1="125" x2="150" y2="125" stroke-width="0.2" />
    <line x1="90" y1="133" x2="148" y2="133" stroke-width="0.2" />
    <line x1="90" y1="141" x2="150" y2="141" stroke-width="0.2" />
    <text class="label-sm" x="30" y="220">ephemeris — nuntius publicus</text>
  </g>

  <!-- ═══ BOTTOM LEFT: Vesica Piscis ═══ -->

  <g transform="translate(250, 1380)" class="sketch" stroke-width="0.35" opacity="0.16">
    <circle cx="40" cy="50" r="45" />
    <circle cx="80" cy="50" r="45" />
    <path d="M60,7.3 Q40,50 60,92.7 Q80,50 60,7.3" stroke-width="0.5" stroke-dasharray="2 2" />
    <line x1="60" y1="0" x2="60" y2="100" stroke-width="0.15" stroke-dasharray="3 5" />
    <line x1="-5" y1="50" x2="125" y2="50" stroke-width="0.15" stroke-dasharray="3 5" />
    <circle cx="60" cy="50" r="2" class="sketch-fill" opacity="0.12" />
    <text class="label-sm" x="15" y="115">vesica piscis</text>
    <text class="label-sm" x="15" y="128">√3 : 1</text>
  </g>

  <!-- ═══ BOTTOM RIGHT: Golden spiral ═══ -->

  <g transform="translate(700, 1400)" class="sketch" stroke-width="0.5" opacity="0.2">
    <rect x="0" y="0" width="200" height="123.6" />
    <rect x="0" y="0" width="123.6" height="123.6" />
    <rect x="123.6" y="0" width="76.4" height="76.4" />
    <rect x="123.6" y="76.4" width="47.2" height="47.2" />
    <rect x="170.8" y="76.4" width="29.2" height="29.2" />
    <path d="M123.6,123.6 Q123.6,0 0,0" stroke-width="0.6" />
    <path d="M123.6,0 Q200,0 200,76.4" stroke-width="0.6" />
    <path d="M200,76.4 Q200,123.6 170.8,123.6" stroke-width="0.5" />
    <path d="M170.8,123.6 Q123.6,123.6 123.6,105.6" stroke-width="0.5" />
    <text class="label" x="50" y="145">φ = 1.618</text>
    <text class="label-sm" x="130" y="115">proportio divina</text>
  </g>

  <!-- ═══ BOTTOM FAR RIGHT: Sri Yantra ═══ -->

  <g transform="translate(1050, 1500)" class="sketch" stroke-width="0.3" opacity="0.14">
    <circle cx="70" cy="65" r="65" />
    <circle cx="70" cy="65" r="60" stroke-dasharray="2 3" />
    <polygon points="70,5 130,110 10,110" stroke-width="0.35" />
    <polygon points="70,20 118,100 22,100" stroke-width="0.25" stroke-dasharray="2 2" />
    <polygon points="70,125 10,20 130,20" stroke-width="0.35" />
    <polygon points="70,110 22,30 118,30" stroke-width="0.25" stroke-dasharray="2 2" />
    <circle cx="70" cy="65" r="3" class="sketch-fill" opacity="0.15" />
    <rect x="0" y="0" width="140" height="130" rx="3" stroke-width="0.2" stroke-dasharray="4 4" />
    <text class="label-sm" x="25" y="150">yantra sacrum</text>
  </g>

  <!-- ═══ SCATTERED: Construction marks ═══ -->

  <g transform="translate(1200, 250)" class="sketch" stroke-width="0.3" opacity="0.15">
    <circle cx="30" cy="30" r="25" />
    <circle cx="30" cy="30" r="18" stroke-dasharray="2 3" />
    <line x1="30" y1="5" x2="30" y2="55" />
    <line x1="5" y1="30" x2="55" y2="30" />
    <path d="M30,5 L33,15 L27,15 Z" class="sketch-fill" opacity="0.2" />
  </g>

  <!-- Scattered tiny construction marks / grid points -->
  <g class="sketch-fill" opacity="0.06">
    <circle cx="350" cy="300" r="2" />
    <circle cx="700" cy="450" r="2" />
    <circle cx="1100" cy="650" r="2" />
    <circle cx="200" cy="1000" r="2" />
    <circle cx="850" cy="1050" r="2" />
    <circle cx="1250" cy="900" r="2" />
    <circle cx="500" cy="1500" r="2" />
    <circle cx="1000" cy="1400" r="2" />
    <circle cx="150" cy="480" r="1.5" />
    <circle cx="750" cy="680" r="1.5" />
    <circle cx="400" cy="920" r="1.5" />
    <circle cx="1300" cy="550" r="1.5" />
    <circle cx="600" cy="1200" r="1.5" />
    <circle cx="300" cy="1450" r="1.5" />
    <circle cx="900" cy="1550" r="1.5" />
    <circle cx="1200" cy="1100" r="1.5" />
  </g>

  <!-- Faint construction grid lines (Da Vinci notebook ruled lines) -->
  <g class="sketch" stroke-width="0.15" opacity="0.04">
    <line x1="0" y1="300" x2="1400" y2="300" />
    <line x1="0" y1="600" x2="1400" y2="600" />
    <line x1="0" y1="900" x2="1400" y2="900" />
    <line x1="0" y1="1200" x2="1400" y2="1200" />
    <line x1="0" y1="1500" x2="1400" y2="1500" />
    <line x1="350" y1="0" x2="350" y2="1800" />
    <line x1="700" y1="0" x2="700" y2="1800" />
    <line x1="1050" y1="0" x2="1050" y2="1800" />
  </g>

  <!-- Faint mirror writing hint (reversed text like Da Vinci) -->
  <g opacity="0.06">
    <text class="label" x="1100" y="1150" transform="scale(-1,1) translate(-2200,0)">notae secretae</text>
    <text class="label-sm" x="200" y="1550" transform="scale(-1,1) translate(-400,0)">verba volant scripta manent</text>
    <text class="label-sm" x="800" y="700" transform="scale(-1,1) translate(-1600,0)">vox populi</text>
    <text class="label-sm" x="600" y="1400" transform="scale(-1,1) translate(-1200,0)">fama crescit eundo</text>
  </g>

</svg>