<svg xmlns="http://www.w3.org/2000/svg" width="1400" height="1800" viewBox="0 0 1400 1800">
  <defs>
    <style>
      .sketch { stroke: #b8a080; fill: none; }
      .sketch-light { stroke: #b8a080; fill: none; opacity: 0.5; }
      .sketch-fill { fill: #b8a080; stroke: none; }
      .label { font-family: 'Fraunces', 'Georgia', serif; fill: #b8a080; font-size: 11px; font-style: italic; }
      .label-sm { font-family: 'Fraunces', 'Georgia', serif; fill: #b8a080; font-size: 8px; font-style: italic; }
      .annotation { font-family: 'Source Sans 3', sans-serif; fill: #b8a080; font-size: 7px; letter-spacing: 0.5px; }
    </style>
  </defs>

  <!-- ═══ TOP LEFT: Shield with sacred geometry pattern ═══ -->

  <g transform="translate(80, 50)" class="sketch" stroke-width="0.6" opacity="0.32">
    <!-- Shield outline -->
    <path d="M100,0 L190,20 L190,100 Q190,160 100,200 Q10,160 10,100 L10,20 Z" stroke-width="0.7" />
    <!-- Inner shield border -->
    <path d="M100,12 L180,30 L180,98 Q180,152 100,188 Q20,152 20,98 L20,30 Z" stroke-width="0.4" stroke-dasharray="2 3" />
    <!-- Flower of Life pattern inside shield -->
    <circle cx="100" cy="90" r="30" stroke-width="0.35" />
    <circle cx="100" cy="60" r="30" stroke-width="0.35" />
    <circle cx="100" cy="120" r="30" stroke-width="0.35" />
    <circle cx="74" cy="75" r="30" stroke-width="0.35" />
    <circle cx="126" cy="75" r="30" stroke-width="0.35" />
    <circle cx="74" cy="105" r="30" stroke-width="0.35" />
    <circle cx="126" cy="105" r="30" stroke-width="0.35" />
    <!-- Center seed -->
    <circle cx="100" cy="90" r="3" class="sketch-fill" opacity="0.12" />
    <!-- Cross at top -->
    <line x1="100" y1="20" x2="100" y2="40" stroke-width="0.4" />
    <line x1="90" y1="30" x2="110" y2="30" stroke-width="0.4" />
    <text class="label" x="40" y="225">scutum protectionis sacrae</text>
  </g>

  <!-- ═══ TOP RIGHT: Seed of Life ═══ -->

  <g transform="translate(520, 30)" class="sketch" stroke-width="0.35" opacity="0.18">
    <circle cx="40" cy="40" r="25" />
    <circle cx="40" cy="15" r="25" />
    <circle cx="40" cy="65" r="25" />
    <circle cx="18.35" cy="27.5" r="25" />
    <circle cx="61.65" cy="27.5" r="25" />
    <circle cx="18.35" cy="52.5" r="25" />
    <circle cx="61.65" cy="52.5" r="25" />
    <circle cx="40" cy="40" r="50" stroke-dasharray="2 3" />
    <circle cx="40" cy="40" r="2" class="sketch-fill" opacity="0.12" />
    <text class="label-sm" x="10" y="100">semen vitae</text>
  </g>

  <!-- ═══ RIGHT SIDE: Da Vinci balance scale ═══ -->

  <g transform="translate(900, 80)" class="sketch" stroke-width="0.5" opacity="0.3">
    <!-- Central pillar -->
    <line x1="100" y1="0" x2="100" y2="100" stroke-width="0.6" />
    <!-- Base -->
    <line x1="70" y1="100" x2="130" y2="100" stroke-width="0.5" />
    <path d="M75,100 Q100,108 125,100" stroke-width="0.3" />
    <!-- Beam -->
    <line x1="20" y1="15" x2="180" y2="8" stroke-width="0.7" />
    <!-- Fulcrum decoration -->
    <circle cx="100" cy="10" r="5" stroke-width="0.3" />
    <polygon points="95,12 100,5 105,12" stroke-width="0.3" />
    <!-- Left pan chains -->
    <line x1="30" y1="15" x2="20" y2="40" stroke-width="0.4" />
    <line x1="30" y1="15" x2="40" y2="40" stroke-width="0.4" />
    <!-- Left pan -->
    <path d="M10,40 Q30,50 50,40" stroke-width="0.5" />
    <!-- Right pan chains -->
    <line x1="170" y1="8" x2="160" y2="32" stroke-width="0.4" />
    <line x1="170" y1="8" x2="180" y2="32" stroke-width="0.4" />
    <!-- Right pan -->
    <path d="M150,32 Q170,42 190,32" stroke-width="0.5" />
    <!-- Items on left pan (heavier — ethics/safety) -->
    <circle cx="30" cy="42" r="4" stroke-width="0.3" />
    <text class="annotation" x="24" y="58">ETHICA</text>
    <!-- Items on right pan (lighter — speed) -->
    <circle cx="170" cy="30" r="3" stroke-width="0.3" />
    <text class="annotation" x="160" y="48">CELER</text>
    <!-- Pointer/needle -->
    <line x1="100" y1="10" x2="97" y2="30" stroke-width="0.3" />
    <text class="label" x="40" y="120">libra iustitiae — aequilibrium</text>
  </g>

  <!-- ═══ TOP FAR RIGHT: Metatron's Cube ═══ -->

  <g transform="translate(1180, 60)" class="sketch" stroke-width="0.3" opacity="0.15">
    <circle cx="60" cy="60" r="8" />
    <circle cx="60" cy="35" r="8" />
    <circle cx="81.65" cy="47.5" r="8" />
    <circle cx="81.65" cy="72.5" r="8" />
    <circle cx="60" cy="85" r="8" />
    <circle cx="38.35" cy="72.5" r="8" />
    <circle cx="38.35" cy="47.5" r="8" />
    <circle cx="60" cy="10" r="8" stroke-dasharray="1 2" />
    <circle cx="103.3" cy="35" r="8" stroke-dasharray="1 2" />
    <circle cx="103.3" cy="85" r="8" stroke-dasharray="1 2" />
    <circle cx="60" cy="110" r="8" stroke-dasharray="1 2" />
    <circle cx="16.7" cy="85" r="8" stroke-dasharray="1 2" />
    <circle cx="16.7" cy="35" r="8" stroke-dasharray="1 2" />
    <line x1="60" y1="10" x2="103.3" y2="85" stroke-width="0.2" />
    <line x1="60" y1="10" x2="16.7" y2="85" stroke-width="0.2" />
    <line x1="103.3" y1="35" x2="16.7" y2="85" stroke-width="0.2" />
    <line x1="103.3" y1="35" x2="60" y2="110" stroke-width="0.2" />
    <line x1="103.3" y1="85" x2="16.7" y2="35" stroke-width="0.2" />
    <line x1="16.7" y1="35" x2="60" y2="110" stroke-width="0.2" />
    <line x1="60" y1="10" x2="60" y2="110" stroke-width="0.2" />
    <line x1="16.7" y1="35" x2="103.3" y2="35" stroke-width="0.2" />
    <line x1="16.7" y1="85" x2="103.3" y2="85" stroke-width="0.2" />
    <circle cx="60" cy="60" r="58" stroke-dasharray="3 4" stroke-width="0.25" />
    <text class="label-sm" x="15" y="130">cubus Metatronis</text>
  </g>

  <!-- ═══ LEFT CENTER: Eye of Providence ═══ -->

  <g transform="translate(100, 370)" class="sketch" stroke-width="0.5" opacity="0.28">
    <!-- Triangle -->
    <polygon points="80,0 160,130 0,130" stroke-width="0.6" />
    <polygon points="80,15 148,122 12,122" stroke-dasharray="2 3" stroke-width="0.3" />
    <!-- Eye -->
    <path d="M40,75 Q80,50 120,75 Q80,100 40,75 Z" stroke-width="0.5" />
    <!-- Iris -->
    <circle cx="80" cy="78" r="14" stroke-width="0.4" />
    <!-- Pupil -->
    <circle cx="80" cy="78" r="6" class="sketch-fill" opacity="0.12" />
    <circle cx="80" cy="78" r="3" class="sketch-fill" opacity="0.06" />
    <!-- Light rays -->
    <line x1="80" y1="-10" x2="80" y2="-25" stroke-width="0.3" stroke-dasharray="2 3" />
    <line x1="60" y1="-5" x2="50" y2="-20" stroke-width="0.25" stroke-dasharray="2 3" />
    <line x1="100" y1="-5" x2="110" y2="-20" stroke-width="0.25" stroke-dasharray="2 3" />
    <line x1="45" y1="5" x2="30" y2="-8" stroke-width="0.2" stroke-dasharray="2 4" />
    <line x1="115" y1="5" x2="130" y2="-8" stroke-width="0.2" stroke-dasharray="2 4" />
    <!-- Radiating lines from eye -->
    <line x1="30" y1="75" x2="5" y2="72" stroke-width="0.2" stroke-dasharray="2 4" />
    <line x1="130" y1="75" x2="155" y2="72" stroke-width="0.2" stroke-dasharray="2 4" />
    <text class="label" x="20" y="155">oculus providentiae — custodia</text>
  </g>

  <!-- ═══ CENTER RIGHT: Guardian figure (Da Vinci style) ═══ -->

  <g transform="translate(880, 350)" class="sketch" stroke-width="0.5" opacity="0.25">
    <!-- Head with helmet -->
    <circle cx="60" cy="20" r="15" />
    <path d="M45,12 Q60,-5 75,12" stroke-width="0.4" />
    <!-- Helmet crest -->
    <path d="M60,5 Q60,-8 60,-12 Q65,-10 62,5" stroke-width="0.3" />
    <!-- Body (armored) -->
    <line x1="60" y1="35" x2="60" y2="90" stroke-width="0.6" />
    <!-- Shoulders (broad, armored) -->
    <path d="M60,42 Q40,38 25,50" stroke-width="0.5" />
    <path d="M60,42 Q80,38 95,50" stroke-width="0.5" />
    <!-- Shield arm (left) -->
    <line x1="25" y1="50" x2="15" y2="80" stroke-width="0.4" />
    <!-- Small shield -->
    <path d="M5,60 L25,55 L25,85 Q15,95 5,85 Z" stroke-width="0.4" />
    <!-- Sword arm (right) -->
    <line x1="95" y1="50" x2="110" y2="75" stroke-width="0.4" />
    <!-- Sword -->
    <line x1="108" y1="72" x2="125" y2="30" stroke-width="0.4" />
    <line x1="103" y1="74" x2="115" y2="70" stroke-width="0.3" />
    <!-- Legs -->
    <line x1="60" y1="90" x2="40" y2="130" stroke-width="0.5" />
    <line x1="60" y1="90" x2="80" y2="130" stroke-width="0.5" />
    <!-- Feet -->
    <line x1="40" y1="130" x2="30" y2="133" stroke-width="0.3" />
    <line x1="80" y1="130" x2="90" y2="133" stroke-width="0.3" />
    <!-- Vitruvian circle around figure -->
    <circle cx="60" cy="70" r="70" stroke-dasharray="4 6" stroke-width="0.2" />
    <text class="label" x="15" y="155">custos — guardian machinae</text>
  </g>

  <!-- ═══ CENTER: Flower of Life ═══ -->

  <g transform="translate(480, 780)" class="sketch-light" stroke-width="0.35" opacity="0.16">
    <circle cx="120" cy="120" r="40" />
    <circle cx="120" cy="80" r="40" />
    <circle cx="120" cy="160" r="40" />
    <circle cx="85.36" cy="100" r="40" />
    <circle cx="154.64" cy="100" r="40" />
    <circle cx="85.36" cy="140" r="40" />
    <circle cx="154.64" cy="140" r="40" />
    <circle cx="120" cy="40" r="40" />
    <circle cx="120" cy="200" r="40" />
    <circle cx="50.72" cy="80" r="40" />
    <circle cx="189.28" cy="80" r="40" />
    <circle cx="50.72" cy="160" r="40" />
    <circle cx="189.28" cy="160" r="40" />
    <circle cx="85.36" cy="60" r="40" />
    <circle cx="154.64" cy="60" r="40" />
    <circle cx="85.36" cy="180" r="40" />
    <circle cx="154.64" cy="180" r="40" />
    <circle cx="50.72" cy="120" r="40" />
    <circle cx="189.28" cy="120" r="40" />
    <circle cx="120" cy="120" r="120" stroke-dasharray="4 4" stroke-width="0.3" />
    <circle cx="120" cy="120" r="125" stroke-dasharray="1 8" stroke-width="0.2" />
    <circle cx="120" cy="120" r="2.5" class="sketch-fill" opacity="0.12" />
    <line x1="120" y1="-5" x2="120" y2="245" stroke-width="0.15" stroke-dasharray="6 8" />
    <line x1="-5" y1="120" x2="245" y2="120" stroke-width="0.15" stroke-dasharray="6 8" />
    <text class="label" x="50" y="265">flos vitae universalis</text>
  </g>

  <!-- ═══ LEFT LOWER: Fortification walls ═══ -->

  <g transform="translate(60, 600)" class="sketch" stroke-width="0.5" opacity="0.22">
    <!-- Wall base -->
    <line x1="0" y1="100" x2="200" y2="100" stroke-width="0.5" />
    <!-- Crenellations (battlements) -->
    <path d="M0,60 L0,100 M0,60 L20,60 L20,70 L35,70 L35,60 L55,60 L55,70 L70,70 L70,60 L90,60 L90,70 L105,70 L105,60 L125,60 L125,70 L140,70 L140,60 L160,60 L160,70 L175,70 L175,60 L200,60 L200,100" stroke-width="0.5" />
    <!-- Tower (left) -->
    <rect x="-10" y="30" width="30" height="70" rx="2" stroke-width="0.4" />
    <path d="M-10,30 L5,18 L20,30" stroke-width="0.4" />
    <!-- Tower (right) -->
    <rect x="180" y="30" width="30" height="70" rx="2" stroke-width="0.4" />
    <path d="M180,30 L195,18 L210,30" stroke-width="0.4" />
    <!-- Gate -->
    <path d="M80,100 Q80,75 100,75 Q120,75 120,100" stroke-width="0.4" />
    <!-- Portcullis grid -->
    <line x1="88" y1="100" x2="88" y2="78" stroke-width="0.2" />
    <line x1="96" y1="100" x2="96" y2="76" stroke-width="0.2" />
    <line x1="104" y1="100" x2="104" y2="76" stroke-width="0.2" />
    <line x1="112" y1="100" x2="112" y2="78" stroke-width="0.2" />
    <line x1="82" y1="85" x2="118" y2="85" stroke-width="0.2" />
    <line x1="82" y1="92" x2="118" y2="92" stroke-width="0.2" />
    <!-- Arrow slits -->
    <line x1="40" y1="72" x2="40" y2="88" stroke-width="0.3" />
    <line x1="37" y1="80" x2="43" y2="80" stroke-width="0.3" />
    <line x1="155" y1="72" x2="155" y2="88" stroke-width="0.3" />
    <line x1="152" y1="80" x2="158" y2="80" stroke-width="0.3" />
    <text class="label-sm" x="40" y="120">munitio — arx defensionis</text>
  </g>

  <!-- ═══ RIGHT: Tree of Life / Sephirot ═══ -->

  <g transform="translate(980, 680)" class="sketch" stroke-width="0.4" opacity="0.17">
    <circle cx="70" cy="0" r="12" />
    <circle cx="30" cy="45" r="10" />
    <circle cx="110" cy="45" r="10" />
    <circle cx="70" cy="70" r="8" stroke-dasharray="2 2" />
    <circle cx="30" cy="105" r="10" />
    <circle cx="110" cy="105" r="10" />
    <circle cx="70" cy="130" r="12" />
    <circle cx="30" cy="175" r="10" />
    <circle cx="110" cy="175" r="10" />
    <circle cx="70" cy="210" r="10" />
    <circle cx="70" cy="260" r="12" />
    <line x1="30" y1="55" x2="30" y2="95" stroke-width="0.3" />
    <line x1="30" y1="115" x2="30" y2="165" stroke-width="0.3" />
    <line x1="110" y1="55" x2="110" y2="95" stroke-width="0.3" />
    <line x1="110" y1="115" x2="110" y2="165" stroke-width="0.3" />
    <line x1="70" y1="12" x2="70" y2="62" stroke-width="0.3" />
    <line x1="70" y1="78" x2="70" y2="118" stroke-width="0.3" />
    <line x1="70" y1="142" x2="70" y2="200" stroke-width="0.3" />
    <line x1="70" y1="220" x2="70" y2="248" stroke-width="0.3" />
    <line x1="70" y1="12" x2="30" y2="35" stroke-width="0.25" />
    <line x1="70" y1="12" x2="110" y2="35" stroke-width="0.25" />
    <line x1="30" y1="55" x2="110" y2="95" stroke-width="0.2" stroke-dasharray="2 3" />
    <line x1="110" y1="55" x2="30" y2="95" stroke-width="0.2" stroke-dasharray="2 3" />
    <line x1="30" y1="185" x2="70" y2="200" stroke-width="0.25" />
    <line x1="110" y1="185" x2="70" y2="200" stroke-width="0.25" />
    <ellipse cx="70" cy="130" rx="65" ry="145" stroke-dasharray="4 6" stroke-width="0.2" />
    <text class="label-sm" x="15" y="290">arbor vitae — sephirot</text>
  </g>

  <!-- ═══ LOWER LEFT: Chains / constraints ═══ -->

  <g transform="translate(80, 1080)" class="sketch" stroke-width="0.5" opacity="0.25">
    <!-- Chain links -->
    <ellipse cx="20" cy="20" rx="15" ry="10" />
    <ellipse cx="45" cy="20" rx="15" ry="10" stroke-dasharray="0 13 25" />
    <ellipse cx="70" cy="20" rx="15" ry="10" />
    <ellipse cx="95" cy="20" rx="15" ry="10" stroke-dasharray="0 13 25" />
    <ellipse cx="120" cy="20" rx="15" ry="10" />
    <!-- Lock at end -->
    <rect x="140" y="8" width="25" height="22" rx="3" stroke-width="0.4" />
    <path d="M146,8 Q146,0 152,0 Q158,0 158,8" stroke-width="0.4" />
    <circle cx="152" cy="18" r="3" stroke-width="0.3" />
    <line x1="152" y1="21" x2="152" y2="26" stroke-width="0.3" />
    <!-- Guardrail concept -->
    <line x1="0" y1="50" x2="180" y2="50" stroke-width="0.4" />
    <line x1="0" y1="50" x2="0" y2="70" stroke-width="0.4" />
    <line x1="30" y1="50" x2="30" y2="70" stroke-width="0.4" />
    <line x1="60" y1="50" x2="60" y2="70" stroke-width="0.4" />
    <line x1="90" y1="50" x2="90" y2="70" stroke-width="0.4" />
    <line x1="120" y1="50" x2="120" y2="70" stroke-width="0.4" />
    <line x1="150" y1="50" x2="150" y2="70" stroke-width="0.4" />
    <line x1="180" y1="50" x2="180" y2="70" stroke-width="0.4" />
    <line x1="0" y1="70" x2="180" y2="70" stroke-width="0.4" />
    <text class="label" x="20" y="95">vinecula et cancellis — limites</text>
  </g>

  <!-- ═══ CENTER LOWER: Compass with moral directions ═══ -->

  <g transform="translate(400, 1180)" class="sketch" stroke-width="0.4" opacity="0.22">
    <circle cx="80" cy="80" r="70" />
    <circle cx="80" cy="80" r="65" stroke-dasharray="2 3" />
    <circle cx="80" cy="80" r="8" />
    <!-- Moral compass needle -->
    <polygon points="80,15 85,75 80,70 75,75" class="sketch-fill" opacity="0.12" />
    <polygon points="80,15 85,75 80,70 75,75" stroke-width="0.4" />
    <line x1="80" y1="88" x2="80" y2="145" stroke-width="0.3" />
    <!-- Cardinal moral values -->
    <text class="annotation" x="68" y="8">VERITAS</text>
    <text class="annotation" x="153" y="83">BONITAS</text>
    <text class="annotation" x="62" y="160">IUSTITIA</text>
    <text class="annotation" x="-5" y="83">PRUDENTIA</text>
    <!-- Degree markings -->
    <line x1="80" y1="10" x2="80" y2="15" stroke-width="0.2" />
    <line x1="150" y1="80" x2="145" y2="80" stroke-width="0.2" />
    <line x1="80" y1="150" x2="80" y2="145" stroke-width="0.2" />
    <line x1="10" y1="80" x2="15" y2="80" stroke-width="0.2" />
    <text class="label-sm" x="25" y="175">compas moralis — via recta</text>
  </g>

  <!-- ═══ RIGHT LOWER: Ouroboros (serpent eating tail) ═══ -->

  <g transform="translate(920, 1100)" class="sketch" stroke-width="0.4" opacity="0.2">
    <!-- Circular serpent body -->
    <circle cx="70" cy="70" r="55" stroke-width="0.5" />
    <circle cx="70" cy="70" r="48" stroke-dasharray="3 3" stroke-width="0.3" />
    <!-- Head eating tail at top -->
    <path d="M75,15 Q85,10 90,18 Q88,25 78,22" stroke-width="0.5" />
    <!-- Eye -->
    <circle cx="82" cy="16" r="2" class="sketch-fill" opacity="0.15" />
    <!-- Scale pattern hints -->
    <path d="M30,30 Q35,28 38,32" stroke-width="0.2" />
    <path d="M20,55 Q25,53 28,57" stroke-width="0.2" />
    <path d="M18,80 Q23,78 26,82" stroke-width="0.2" />
    <path d="M25,105 Q30,103 33,107" stroke-width="0.2" />
    <path d="M110,30 Q115,28 118,32" stroke-width="0.2" />
    <path d="M120,55 Q115,53 112,57" stroke-width="0.2" />
    <path d="M122,80 Q117,78 114,82" stroke-width="0.2" />
    <!-- Infinity symbol in center -->
    <path d="M50,70 Q55,55 70,55 Q85,55 85,70 Q85,85 70,85 Q55,85 50,70" stroke-width="0.3" stroke-dasharray="2 2" />
    <path d="M90,70 Q85,55 70,55 Q55,55 55,70 Q55,85 70,85 Q85,85 90,70" stroke-width="0.3" stroke-dasharray="2 2" />
    <text class="label-sm" x="15" y="145">ouroboros — aeternus cyclus</text>
  </g>

  <!-- ═══ BOTTOM LEFT: Vesica Piscis ═══ -->

  <g transform="translate(250, 1380)" class="sketch" stroke-width="0.35" opacity="0.16">
    <circle cx="40" cy="50" r="45" />
    <circle cx="80" cy="50" r="45" />
    <path d="M60,7.3 Q40,50 60,92.7 Q80,50 60,7.3" stroke-width="0.5" stroke-dasharray="2 2" />
    <line x1="60" y1="0" x2="60" y2="100" stroke-width="0.15" stroke-dasharray="3 5" />
    <line x1="-5" y1="50" x2="125" y2="50" stroke-width="0.15" stroke-dasharray="3 5" />
    <circle cx="60" cy="50" r="2" class="sketch-fill" opacity="0.12" />
    <text class="label-sm" x="15" y="115">vesica piscis</text>
    <text class="label-sm" x="15" y="128">√3 : 1</text>
  </g>

  <!-- ═══ BOTTOM CENTER: Golden spiral ═══ -->

  <g transform="translate(700, 1400)" class="sketch" stroke-width="0.5" opacity="0.2">
    <rect x="0" y="0" width="200" height="123.6" />
    <rect x="0" y="0" width="123.6" height="123.6" />
    <rect x="123.6" y="0" width="76.4" height="76.4" />
    <rect x="123.6" y="76.4" width="47.2" height="47.2" />
    <rect x="170.8" y="76.4" width="29.2" height="29.2" />
    <path d="M123.6,123.6 Q123.6,0 0,0" stroke-width="0.6" />
    <path d="M123.6,0 Q200,0 200,76.4" stroke-width="0.6" />
    <path d="M200,76.4 Q200,123.6 170.8,123.6" stroke-width="0.5" />
    <path d="M170.8,123.6 Q123.6,123.6 123.6,105.6" stroke-width="0.5" />
    <text class="label" x="50" y="145">φ = 1.618</text>
    <text class="label-sm" x="130" y="115">proportio divina</text>
  </g>

  <!-- ═══ BOTTOM RIGHT: Sri Yantra ═══ -->

  <g transform="translate(1050, 1500)" class="sketch" stroke-width="0.3" opacity="0.14">
    <circle cx="70" cy="65" r="65" />
    <circle cx="70" cy="65" r="60" stroke-dasharray="2 3" />
    <polygon points="70,5 130,110 10,110" stroke-width="0.35" />
    <polygon points="70,20 118,100 22,100" stroke-width="0.25" stroke-dasharray="2 2" />
    <polygon points="70,125 10,20 130,20" stroke-width="0.35" />
    <polygon points="70,110 22,30 118,30" stroke-width="0.25" stroke-dasharray="2 2" />
    <circle cx="70" cy="65" r="3" class="sketch-fill" opacity="0.15" />
    <rect x="0" y="0" width="140" height="130" rx="3" stroke-width="0.2" stroke-dasharray="4 4" />
    <text class="label-sm" x="25" y="150">yantra sacrum</text>
  </g>

  <!-- ═══ SCATTERED: Construction marks ═══ -->

  <g transform="translate(1200, 250)" class="sketch" stroke-width="0.3" opacity="0.15">
    <circle cx="30" cy="30" r="25" />
    <circle cx="30" cy="30" r="18" stroke-dasharray="2 3" />
    <line x1="30" y1="5" x2="30" y2="55" />
    <line x1="5" y1="30" x2="55" y2="30" />
    <path d="M30,5 L33,15 L27,15 Z" class="sketch-fill" opacity="0.2" />
  </g>

  <!-- Scattered tiny construction marks / grid points -->
  <g class="sketch-fill" opacity="0.06">
    <circle cx="350" cy="300" r="2" />
    <circle cx="700" cy="450" r="2" />
    <circle cx="1100" cy="650" r="2" />
    <circle cx="200" cy="1000" r="2" />
    <circle cx="850" cy="1050" r="2" />
    <circle cx="1250" cy="900" r="2" />
    <circle cx="500" cy="1500" r="2" />
    <circle cx="1000" cy="1400" r="2" />
    <circle cx="150" cy="480" r="1.5" />
    <circle cx="750" cy="680" r="1.5" />
    <circle cx="400" cy="920" r="1.5" />
    <circle cx="1300" cy="550" r="1.5" />
    <circle cx="600" cy="1200" r="1.5" />
    <circle cx="300" cy="1450" r="1.5" />
    <circle cx="900" cy="1550" r="1.5" />
    <circle cx="1200" cy="1100" r="1.5" />
  </g>

  <!-- Faint construction grid lines (Da Vinci notebook ruled lines) -->
  <g class="sketch" stroke-width="0.15" opacity="0.04">
    <line x1="0" y1="300" x2="1400" y2="300" />
    <line x1="0" y1="600" x2="1400" y2="600" />
    <line x1="0" y1="900" x2="1400" y2="900" />
    <line x1="0" y1="1200" x2="1400" y2="1200" />
    <line x1="0" y1="1500" x2="1400" y2="1500" />
    <line x1="350" y1="0" x2="350" y2="1800" />
    <line x1="700" y1="0" x2="700" y2="1800" />
    <line x1="1050" y1="0" x2="1050" y2="1800" />
  </g>

  <!-- Faint mirror writing hint (reversed text like Da Vinci) -->
  <g opacity="0.06">
    <text class="label" x="1100" y="1150" transform="scale(-1,1) translate(-2200,0)">notae secretae</text>
    <text class="label-sm" x="200" y="1550" transform="scale(-1,1) translate(-400,0)">primum non nocere</text>
    <text class="label-sm" x="800" y="700" transform="scale(-1,1) translate(-1600,0)">tutela et custodia</text>
    <text class="label-sm" x="600" y="1400" transform="scale(-1,1) translate(-1200,0)">virtus in medio stat</text>
  </g>

</svg>