<svg xmlns="http://www.w3.org/2000/svg" width="1400" height="1800" viewBox="0 0 1400 1800">
  <defs>
    <style>
      .sketch { stroke: #b8a080; fill: none; }
      .sketch-light { stroke: #b8a080; fill: none; opacity: 0.5; }
      .sketch-fill { fill: #b8a080; stroke: none; }
      .label { font-family: 'Fraunces', 'Georgia', serif; fill: #b8a080; font-size: 11px; font-style: italic; }
      .label-sm { font-family: 'Fraunces', 'Georgia', serif; fill: #b8a080; font-size: 8px; font-style: italic; }
      .annotation { font-family: 'Source Sans 3', sans-serif; fill: #b8a080; font-size: 7px; letter-spacing: 0.5px; }
    </style>
  </defs>

  <!-- ═══ TOP SECTION: Arena / Colosseum sketch ═══ -->

  <g transform="translate(80, 60)" class="sketch" stroke-width="0.6" opacity="0.35">
    <path d="M0,120 Q5,118 50,120 Q95,122 100,120" />
    <path d="M100,120 Q105,119 150,120 Q195,121 200,120" />
    <path d="M200,120 Q205,119 250,121 Q295,120 300,120" />
    <path d="M10,120 Q10,85 55,85 Q100,85 100,120" />
    <path d="M110,120 Q110,85 155,85 Q200,85 200,120" />
    <path d="M210,120 Q210,85 255,85 Q300,85 300,120" />
    <path d="M0,80 L300,80" stroke-dasharray="2 4" />
    <path d="M20,80 Q20,60 50,60 Q80,60 80,80" />
    <path d="M90,80 Q90,60 120,60 Q150,60 150,80" />
    <path d="M160,80 Q160,60 190,60 Q220,60 220,80" />
    <path d="M230,80 Q230,60 260,60 Q290,60 290,80" />
    <ellipse cx="150" cy="160" rx="130" ry="30" stroke-dasharray="3 5" />
    <path d="M150,130 Q180,140 175,160 Q170,180 150,175 Q130,170 135,155 Q140,140 150,142" stroke-width="0.4" />
    <text class="label" x="90" y="200">arena amphitheatrum</text>
  </g>

  <!-- ═══ TOP RIGHT: Seed of Life (small, construction-style) ═══ -->

  <g transform="translate(520, 30)" class="sketch" stroke-width="0.35" opacity="0.18">
    <circle cx="40" cy="40" r="25" />
    <circle cx="40" cy="15" r="25" />
    <circle cx="40" cy="65" r="25" />
    <circle cx="18.35" cy="27.5" r="25" />
    <circle cx="61.65" cy="27.5" r="25" />
    <circle cx="18.35" cy="52.5" r="25" />
    <circle cx="61.65" cy="52.5" r="25" />
    <!-- Outer enclosing circle -->
    <circle cx="40" cy="40" r="50" stroke-dasharray="2 3" />
    <circle cx="40" cy="40" r="2" class="sketch-fill" opacity="0.12" />
    <text class="label-sm" x="10" y="100">semen vitae</text>
  </g>

  <!-- ═══ RIGHT SIDE: Competing robots sketch ═══ -->

  <g transform="translate(900, 80)" class="sketch" stroke-width="0.5" opacity="0.3">
    <circle cx="30" cy="20" r="12" />
    <circle cx="30" cy="20" r="5" stroke-dasharray="1 2" />
    <line x1="30" y1="32" x2="30" y2="70" />
    <line x1="30" y1="42" x2="10" y2="60" />
    <line x1="30" y1="42" x2="50" y2="55" />
    <line x1="30" y1="70" x2="18" y2="95" />
    <line x1="30" y1="70" x2="42" y2="95" />
    <circle cx="30" cy="52" r="6" stroke-dasharray="2 2" />
    <rect x="0" y="55" width="14" height="20" rx="2" stroke-width="0.4" />
    <line x1="3" y1="60" x2="11" y2="60" stroke-width="0.3" />
    <line x1="3" y1="63" x2="11" y2="63" stroke-width="0.3" />
    <line x1="3" y1="66" x2="11" y2="66" stroke-width="0.3" />
    <text class="label" x="55" y="55">vs.</text>
    <g transform="translate(80, 0)">
      <circle cx="30" cy="20" r="12" />
      <circle cx="30" cy="20" r="5" stroke-dasharray="1 2" />
      <line x1="30" y1="32" x2="30" y2="70" />
      <line x1="30" y1="42" x2="10" y2="60" />
      <line x1="30" y1="42" x2="50" y2="55" />
      <line x1="30" y1="70" x2="18" y2="95" />
      <line x1="30" y1="70" x2="42" y2="95" />
      <circle cx="30" cy="52" r="6" stroke-dasharray="2 2" />
      <rect x="40" y="50" width="14" height="20" rx="2" stroke-width="0.4" />
      <line x1="43" y1="55" x2="51" y2="55" stroke-width="0.3" />
      <line x1="43" y1="58" x2="51" y2="58" stroke-width="0.3" />
      <line x1="43" y1="61" x2="51" y2="61" stroke-width="0.3" />
    </g>
    <text class="label-sm" x="20" y="110">automata certamen</text>
  </g>

  <!-- ═══ TOP FAR RIGHT: Metatron's Cube (compact) ═══ -->

  <g transform="translate(1180, 60)" class="sketch" stroke-width="0.3" opacity="0.15">
    <!-- 13 circles of Metatron's Cube -->
    <circle cx="60" cy="60" r="8" />
    <!-- Inner ring of 6 -->
    <circle cx="60" cy="35" r="8" />
    <circle cx="81.65" cy="47.5" r="8" />
    <circle cx="81.65" cy="72.5" r="8" />
    <circle cx="60" cy="85" r="8" />
    <circle cx="38.35" cy="72.5" r="8" />
    <circle cx="38.35" cy="47.5" r="8" />
    <!-- Outer ring of 6 -->
    <circle cx="60" cy="10" r="8" stroke-dasharray="1 2" />
    <circle cx="103.3" cy="35" r="8" stroke-dasharray="1 2" />
    <circle cx="103.3" cy="85" r="8" stroke-dasharray="1 2" />
    <circle cx="60" cy="110" r="8" stroke-dasharray="1 2" />
    <circle cx="16.7" cy="85" r="8" stroke-dasharray="1 2" />
    <circle cx="16.7" cy="35" r="8" stroke-dasharray="1 2" />
    <!-- Connecting lines through all 13 centers -->
    <line x1="60" y1="10" x2="103.3" y2="85" stroke-width="0.2" />
    <line x1="60" y1="10" x2="16.7" y2="85" stroke-width="0.2" />
    <line x1="103.3" y1="35" x2="16.7" y2="85" stroke-width="0.2" />
    <line x1="103.3" y1="35" x2="60" y2="110" stroke-width="0.2" />
    <line x1="103.3" y1="85" x2="16.7" y2="35" stroke-width="0.2" />
    <line x1="16.7" y1="35" x2="60" y2="110" stroke-width="0.2" />
    <line x1="60" y1="10" x2="60" y2="110" stroke-width="0.2" />
    <line x1="16.7" y1="35" x2="103.3" y2="35" stroke-width="0.2" />
    <line x1="16.7" y1="85" x2="103.3" y2="85" stroke-width="0.2" />
    <!-- Enclosing circle -->
    <circle cx="60" cy="60" r="58" stroke-dasharray="3 4" stroke-width="0.25" />
    <text class="label-sm" x="15" y="130">cubus Metatronis</text>
  </g>

  <!-- ═══ LEFT SIDE: Balance scale / judging ═══ -->

  <g transform="translate(100, 350)" class="sketch" stroke-width="0.5" opacity="0.28">
    <line x1="80" y1="0" x2="80" y2="80" />
    <line x1="65" y1="80" x2="95" y2="80" />
    <line x1="20" y1="12" x2="140" y2="5" stroke-width="0.7" />
    <line x1="20" y1="12" x2="10" y2="35" stroke-width="0.4" />
    <line x1="20" y1="12" x2="30" y2="35" stroke-width="0.4" />
    <path d="M5,35 Q20,45 35,35" stroke-width="0.5" />
    <text class="annotation" x="8" y="50">winner</text>
    <line x1="140" y1="5" x2="130" y2="25" stroke-width="0.4" />
    <line x1="140" y1="5" x2="150" y2="25" stroke-width="0.4" />
    <path d="M125,25 Q140,35 155,25" stroke-width="0.5" />
    <path d="M10,25 Q20,18 30,25" stroke-width="0.4" stroke-dasharray="1 2" />
    <text class="label" x="40" y="95">iudicium qualitatis</text>
  </g>

  <!-- ═══ UPPER CENTER-RIGHT: Dodecahedron wireframe (3D projection) ═══ -->

  <g transform="translate(700, 250)" class="sketch" stroke-width="0.35" opacity="0.16">
    <!-- Outer pentagon -->
    <polygon points="75,0 143,49 117,128 33,128 7,49" />
    <!-- Inner pentagon (rotated, smaller — back face) -->
    <polygon points="75,30 118,58 102,108 48,108 32,58" stroke-dasharray="2 3" />
    <!-- Connecting edges between front and back pentagons -->
    <line x1="75" y1="0" x2="75" y2="30" stroke-width="0.3" />
    <line x1="143" y1="49" x2="118" y2="58" stroke-width="0.3" />
    <line x1="117" y1="128" x2="102" y2="108" stroke-width="0.3" />
    <line x1="33" y1="128" x2="48" y2="108" stroke-width="0.3" />
    <line x1="7" y1="49" x2="32" y2="58" stroke-width="0.3" />
    <!-- Center point -->
    <circle cx="75" cy="64" r="2" class="sketch-fill" opacity="0.1" />
    <!-- Construction circle -->
    <circle cx="75" cy="64" r="72" stroke-dasharray="4 6" stroke-width="0.2" />
    <text class="label-sm" x="30" y="155">dodecahedron regularis</text>
  </g>

  <!-- ═══ CENTER: Routing flow diagram ═══ -->

  <g transform="translate(420, 500)" class="sketch" stroke-width="0.6" opacity="0.25">
    <rect x="0" y="20" width="80" height="35" rx="4" />
    <text class="annotation" x="12" y="42">QUESTION</text>
    <line x1="80" y1="37" x2="120" y2="37" />
    <polygon points="118,33 126,37 118,41" class="sketch-fill" opacity="0.25" />
    <path d="M160,37 L190,15 L220,37 L190,59 Z" />
    <text class="annotation" x="170" y="40">ROUTE</text>
    <line x1="220" y1="37" x2="260" y2="10" />
    <line x1="220" y1="37" x2="260" y2="37" />
    <line x1="220" y1="37" x2="260" y2="64" />
    <rect x="260" y="0" width="70" height="22" rx="3" />
    <text class="annotation" x="268" y="14">Qdrant</text>
    <rect x="260" y="27" width="70" height="22" rx="3" />
    <text class="annotation" x="268" y="41">Vectorize</text>
    <rect x="260" y="54" width="70" height="22" rx="3" />
    <text class="annotation" x="268" y="68">MongoDB</text>
    <text class="annotation" x="335" y="14">0.94</text>
    <text class="annotation" x="335" y="41">0.87</text>
    <text class="annotation" x="335" y="68">0.79</text>
    <rect x="258" y="-2" width="74" height="26" rx="4" stroke-dasharray="3 2" stroke-width="0.8" />
    <text class="label-sm" x="130" y="85">dynamic routing schema</text>
  </g>

  <!-- ═══ LEFT CENTER: Hypercube / Tesseract (4D projection) ═══ -->

  <g transform="translate(50, 520)" class="sketch" stroke-width="0.35" opacity="0.18">
    <!-- Outer cube -->
    <rect x="0" y="0" width="100" height="100" />
    <!-- Inner cube (shifted for perspective) -->
    <rect x="25" y="25" width="60" height="60" stroke-dasharray="2 2" />
    <!-- Connecting corners (outer to inner = 4D edges) -->
    <line x1="0" y1="0" x2="25" y2="25" stroke-width="0.3" />
    <line x1="100" y1="0" x2="85" y2="25" stroke-width="0.3" />
    <line x1="100" y1="100" x2="85" y2="85" stroke-width="0.3" />
    <line x1="0" y1="100" x2="25" y2="85" stroke-width="0.3" />
    <!-- Diagonals through center for depth illusion -->
    <line x1="0" y1="0" x2="85" y2="85" stroke-width="0.15" stroke-dasharray="3 5" />
    <line x1="100" y1="0" x2="25" y2="85" stroke-width="0.15" stroke-dasharray="3 5" />
    <!-- Center point -->
    <circle cx="50" cy="50" r="2" class="sketch-fill" opacity="0.1" />
    <text class="label-sm" x="10" y="120">hypercubus</text>
    <text class="label-sm" x="10" y="132">dimensio IV</text>
  </g>

  <!-- ═══ RIGHT: Gear mechanism / clockwork ═══ -->

  <g transform="translate(1050, 400)" class="sketch" stroke-width="0.4" opacity="0.22">
    <circle cx="60" cy="60" r="50" />
    <circle cx="60" cy="60" r="42" stroke-dasharray="4 3" />
    <circle cx="60" cy="60" r="15" />
    <line x1="60" y1="10" x2="60" y2="3" />
    <line x1="60" y1="110" x2="60" y2="117" />
    <line x1="10" y1="60" x2="3" y2="60" />
    <line x1="110" y1="60" x2="117" y2="60" />
    <line x1="25" y1="25" x2="20" y2="20" />
    <line x1="95" y1="25" x2="100" y2="20" />
    <line x1="25" y1="95" x2="20" y2="100" />
    <line x1="95" y1="95" x2="100" y2="100" />
    <circle cx="135" cy="95" r="28" />
    <circle cx="135" cy="95" r="22" stroke-dasharray="3 2" />
    <circle cx="135" cy="95" r="8" />
    <text class="label-sm" x="25" y="140">machina cogitans</text>
  </g>

  <!-- ═══ LOWER LEFT: Knowledge scroll / document sketch ═══ -->

  <g transform="translate(60, 750)" class="sketch" stroke-width="0.5" opacity="0.25">
    <path d="M10,0 Q0,0 0,15 L0,120 Q0,135 10,135 L90,135 Q100,135 100,120 L100,15 Q100,0 90,0 Z" />
    <ellipse cx="50" cy="5" rx="45" ry="6" />
    <line x1="15" y1="25" x2="85" y2="25" stroke-width="0.3" />
    <line x1="15" y1="35" x2="75" y2="35" stroke-width="0.3" />
    <line x1="15" y1="45" x2="80" y2="45" stroke-width="0.3" />
    <line x1="15" y1="55" x2="60" y2="55" stroke-width="0.3" />
    <line x1="15" y1="70" x2="85" y2="70" stroke-width="0.3" />
    <line x1="15" y1="80" x2="70" y2="80" stroke-width="0.3" />
    <line x1="15" y1="90" x2="82" y2="90" stroke-width="0.3" />
    <circle cx="50" cy="110" r="12" stroke-dasharray="2 3" stroke-width="0.3" />
    <line x1="38" y1="110" x2="62" y2="110" stroke-width="0.3" />
    <line x1="50" y1="98" x2="50" y2="122" stroke-width="0.3" />
    <text class="label-sm" x="15" y="155">corpus documentorum</text>
  </g>

  <!-- ═══ CENTER: Full Flower of Life (expanded, Da Vinci study) ═══ -->

  <g transform="translate(480, 800)" class="sketch-light" stroke-width="0.35" opacity="0.16">
    <!-- Seed of Life — inner 7 circles -->
    <circle cx="120" cy="120" r="40" />
    <circle cx="120" cy="80" r="40" />
    <circle cx="120" cy="160" r="40" />
    <circle cx="85.36" cy="100" r="40" />
    <circle cx="154.64" cy="100" r="40" />
    <circle cx="85.36" cy="140" r="40" />
    <circle cx="154.64" cy="140" r="40" />
    <!-- Second ring — 12 petals -->
    <circle cx="120" cy="40" r="40" />
    <circle cx="120" cy="200" r="40" />
    <circle cx="50.72" cy="80" r="40" />
    <circle cx="189.28" cy="80" r="40" />
    <circle cx="50.72" cy="160" r="40" />
    <circle cx="189.28" cy="160" r="40" />
    <circle cx="85.36" cy="60" r="40" />
    <circle cx="154.64" cy="60" r="40" />
    <circle cx="85.36" cy="180" r="40" />
    <circle cx="154.64" cy="180" r="40" />
    <circle cx="50.72" cy="120" r="40" />
    <circle cx="189.28" cy="120" r="40" />
    <!-- Enclosing circle with construction marks -->
    <circle cx="120" cy="120" r="120" stroke-dasharray="4 4" stroke-width="0.3" />
    <circle cx="120" cy="120" r="125" stroke-dasharray="1 8" stroke-width="0.2" />
    <!-- Center seed dot -->
    <circle cx="120" cy="120" r="2.5" class="sketch-fill" opacity="0.12" />
    <!-- Construction crosshairs -->
    <line x1="120" y1="-5" x2="120" y2="245" stroke-width="0.15" stroke-dasharray="6 8" />
    <line x1="-5" y1="120" x2="245" y2="120" stroke-width="0.15" stroke-dasharray="6 8" />
    <text class="label" x="50" y="265">flos vitae universalis</text>
  </g>

  <!-- ═══ RIGHT CENTER: Tree of Life / Kabbalah Sephirot ═══ -->

  <g transform="translate(980, 680)" class="sketch" stroke-width="0.4" opacity="0.17">
    <!-- 10 Sephirot (nodes) — classical layout -->
    <!-- Crown (Kether) -->
    <circle cx="70" cy="0" r="12" />
    <!-- Wisdom & Understanding -->
    <circle cx="30" cy="45" r="10" />
    <circle cx="110" cy="45" r="10" />
    <!-- Knowledge (Da'at) - hidden, dashed -->
    <circle cx="70" cy="70" r="8" stroke-dasharray="2 2" />
    <!-- Mercy & Severity -->
    <circle cx="30" cy="105" r="10" />
    <circle cx="110" cy="105" r="10" />
    <!-- Beauty (Tiferet) - center -->
    <circle cx="70" cy="130" r="12" />
    <!-- Victory & Splendor -->
    <circle cx="30" cy="175" r="10" />
    <circle cx="110" cy="175" r="10" />
    <!-- Foundation -->
    <circle cx="70" cy="210" r="10" />
    <!-- Kingdom (Malkuth) -->
    <circle cx="70" cy="260" r="12" />

    <!-- Paths (22 connecting lines) — The Three Pillars -->
    <!-- Left pillar -->
    <line x1="30" y1="55" x2="30" y2="95" stroke-width="0.3" />
    <line x1="30" y1="115" x2="30" y2="165" stroke-width="0.3" />
    <!-- Right pillar -->
    <line x1="110" y1="55" x2="110" y2="95" stroke-width="0.3" />
    <line x1="110" y1="115" x2="110" y2="165" stroke-width="0.3" />
    <!-- Middle pillar -->
    <line x1="70" y1="12" x2="70" y2="62" stroke-width="0.3" />
    <line x1="70" y1="78" x2="70" y2="118" stroke-width="0.3" />
    <line x1="70" y1="142" x2="70" y2="200" stroke-width="0.3" />
    <line x1="70" y1="220" x2="70" y2="248" stroke-width="0.3" />
    <!-- Cross paths -->
    <line x1="70" y1="12" x2="30" y2="35" stroke-width="0.25" />
    <line x1="70" y1="12" x2="110" y2="35" stroke-width="0.25" />
    <line x1="30" y1="55" x2="110" y2="95" stroke-width="0.2" stroke-dasharray="2 3" />
    <line x1="110" y1="55" x2="30" y2="95" stroke-width="0.2" stroke-dasharray="2 3" />
    <line x1="30" y1="55" x2="70" y2="118" stroke-width="0.2" />
    <line x1="110" y1="55" x2="70" y2="118" stroke-width="0.2" />
    <line x1="30" y1="115" x2="70" y2="142" stroke-width="0.2" />
    <line x1="110" y1="115" x2="70" y2="142" stroke-width="0.2" />
    <line x1="30" y1="185" x2="70" y2="200" stroke-width="0.25" />
    <line x1="110" y1="185" x2="70" y2="200" stroke-width="0.25" />
    <line x1="30" y1="185" x2="70" y2="248" stroke-width="0.2" stroke-dasharray="2 3" />
    <line x1="110" y1="185" x2="70" y2="248" stroke-width="0.2" stroke-dasharray="2 3" />

    <!-- Enclosing oval -->
    <ellipse cx="70" cy="130" rx="65" ry="145" stroke-dasharray="4 6" stroke-width="0.2" />
    <text class="label-sm" x="15" y="290">arbor vitae — sephirot</text>
  </g>

  <!-- ═══ RIGHT LOWER: Neural network / vector space ═══ -->

  <g transform="translate(950, 1050)" class="sketch" stroke-width="0.4" opacity="0.2">
    <circle cx="20" cy="20" r="6" />
    <circle cx="20" cy="60" r="6" />
    <circle cx="20" cy="100" r="6" />
    <circle cx="100" cy="15" r="6" />
    <circle cx="100" cy="50" r="6" />
    <circle cx="100" cy="85" r="6" />
    <circle cx="100" cy="115" r="6" />
    <circle cx="180" cy="40" r="6" />
    <circle cx="180" cy="80" r="6" />
    <circle cx="250" cy="60" r="8" />
    <line x1="26" y1="20" x2="94" y2="15" stroke-width="0.3" />
    <line x1="26" y1="20" x2="94" y2="50" stroke-width="0.3" />
    <line x1="26" y1="60" x2="94" y2="50" stroke-width="0.3" />
    <line x1="26" y1="60" x2="94" y2="85" stroke-width="0.3" />
    <line x1="26" y1="100" x2="94" y2="85" stroke-width="0.3" />
    <line x1="26" y1="100" x2="94" y2="115" stroke-width="0.3" />
    <line x1="106" y1="15" x2="174" y2="40" stroke-width="0.3" />
    <line x1="106" y1="50" x2="174" y2="40" stroke-width="0.3" />
    <line x1="106" y1="50" x2="174" y2="80" stroke-width="0.3" />
    <line x1="106" y1="85" x2="174" y2="80" stroke-width="0.3" />
    <line x1="106" y1="115" x2="174" y2="80" stroke-width="0.3" />
    <line x1="186" y1="40" x2="242" y2="60" stroke-width="0.3" />
    <line x1="186" y1="80" x2="242" y2="60" stroke-width="0.3" />
    <text class="label-sm" x="60" y="140">vector spatium</text>
  </g>

  <!-- ═══ LEFT LOWER: Icosahedron wireframe (20-face polyhedron) ═══ -->

  <g transform="translate(80, 1080)" class="sketch" stroke-width="0.3" opacity="0.15">
    <!-- Top vertex -->
    <circle cx="70" cy="0" r="2" class="sketch-fill" opacity="0.15" />
    <!-- Upper pentagon ring -->
    <circle cx="70" cy="30" r="1.5" class="sketch-fill" opacity="0.1" />
    <circle cx="103" cy="45" r="1.5" class="sketch-fill" opacity="0.1" />
    <circle cx="93" cy="82" r="1.5" class="sketch-fill" opacity="0.1" />
    <circle cx="47" cy="82" r="1.5" class="sketch-fill" opacity="0.1" />
    <circle cx="37" cy="45" r="1.5" class="sketch-fill" opacity="0.1" />
    <!-- Lower pentagon ring (rotated) -->
    <circle cx="87" cy="58" r="1.5" class="sketch-fill" opacity="0.1" />
    <circle cx="100" cy="92" r="1.5" class="sketch-fill" opacity="0.1" />
    <circle cx="70" cy="110" r="1.5" class="sketch-fill" opacity="0.1" />
    <circle cx="40" cy="92" r="1.5" class="sketch-fill" opacity="0.1" />
    <circle cx="53" cy="58" r="1.5" class="sketch-fill" opacity="0.1" />
    <!-- Bottom vertex -->
    <circle cx="70" cy="130" r="2" class="sketch-fill" opacity="0.15" />
    <!-- Upper cap edges -->
    <line x1="70" y1="0" x2="70" y2="30" />
    <line x1="70" y1="0" x2="103" y2="45" />
    <line x1="70" y1="0" x2="37" y2="45" />
    <line x1="70" y1="0" x2="93" y2="82" stroke-dasharray="2 3" />
    <line x1="70" y1="0" x2="47" y2="82" stroke-dasharray="2 3" />
    <!-- Upper ring -->
    <line x1="70" y1="30" x2="103" y2="45" />
    <line x1="103" y1="45" x2="93" y2="82" />
    <line x1="93" y1="82" x2="47" y2="82" />
    <line x1="47" y1="82" x2="37" y2="45" />
    <line x1="37" y1="45" x2="70" y2="30" />
    <!-- Equatorial connections -->
    <line x1="70" y1="30" x2="87" y2="58" stroke-width="0.25" />
    <line x1="70" y1="30" x2="53" y2="58" stroke-width="0.25" />
    <line x1="103" y1="45" x2="87" y2="58" stroke-width="0.25" />
    <line x1="103" y1="45" x2="100" y2="92" stroke-width="0.25" />
    <line x1="93" y1="82" x2="100" y2="92" stroke-width="0.25" />
    <line x1="93" y1="82" x2="70" y2="110" stroke-width="0.25" />
    <line x1="47" y1="82" x2="70" y2="110" stroke-width="0.25" />
    <line x1="47" y1="82" x2="40" y2="92" stroke-width="0.25" />
    <line x1="37" y1="45" x2="40" y2="92" stroke-width="0.25" />
    <line x1="37" y1="45" x2="53" y2="58" stroke-width="0.25" />
    <!-- Lower cap edges -->
    <line x1="70" y1="130" x2="87" y2="58" stroke-dasharray="2 3" />
    <line x1="70" y1="130" x2="100" y2="92" />
    <line x1="70" y1="130" x2="70" y2="110" />
    <line x1="70" y1="130" x2="40" y2="92" />
    <line x1="70" y1="130" x2="53" y2="58" stroke-dasharray="2 3" />
    <!-- Circumscribed sphere hint -->
    <circle cx="70" cy="65" r="70" stroke-dasharray="3 6" stroke-width="0.2" />
    <text class="label-sm" x="20" y="155">icosahedron — facies XX</text>
  </g>

  <!-- ═══ CENTER: Leaderboard / Elo ranking ═══ -->

  <g transform="translate(400, 1150)" class="sketch" stroke-width="0.5" opacity="0.22">
    <rect x="60" y="30" width="50" height="50" />
    <rect x="10" y="50" width="50" height="30" />
    <rect x="110" y="55" width="50" height="25" />
    <path d="M70,25 L75,15 L85,28 L95,15 L100,25" stroke-width="0.6" />
    <text class="annotation" x="80" y="60">I</text>
    <text class="annotation" x="30" y="68">II</text>
    <text class="annotation" x="128" y="72">III</text>
    <circle cx="85" cy="42" r="4" stroke-width="0.3" />
    <line x1="85" y1="46" x2="85" y2="55" stroke-width="0.3" />
    <circle cx="35" cy="55" r="3" stroke-width="0.3" />
    <line x1="35" y1="58" x2="35" y2="65" stroke-width="0.3" />
    <circle cx="135" cy="60" r="3" stroke-width="0.3" />
    <line x1="135" y1="63" x2="135" y2="70" stroke-width="0.3" />
    <text class="label-sm" x="30" y="100">classificatio per Elo</text>
  </g>

  <!-- ═══ RIGHT LOWER: Tesseract (full 4D hypercube, alternate angle) ═══ -->

  <g transform="translate(1100, 1200)" class="sketch" stroke-width="0.3" opacity="0.14">
    <!-- Outer cube (front face of 4D) -->
    <polygon points="0,30 80,0 130,40 50,70" />
    <!-- Inner cube (back face of 4D, smaller) -->
    <polygon points="25,38 72,20 102,44 55,62" stroke-dasharray="2 2" />
    <!-- 4D connecting edges -->
    <line x1="0" y1="30" x2="25" y2="38" stroke-width="0.25" />
    <line x1="80" y1="0" x2="72" y2="20" stroke-width="0.25" />
    <line x1="130" y1="40" x2="102" y2="44" stroke-width="0.25" />
    <line x1="50" y1="70" x2="55" y2="62" stroke-width="0.25" />
    <!-- Bottom face of outer cube -->
    <polygon points="0,80 80,50 130,90 50,120" stroke-dasharray="3 3" />
    <!-- Vertical edges -->
    <line x1="0" y1="30" x2="0" y2="80" stroke-width="0.25" />
    <line x1="80" y1="0" x2="80" y2="50" stroke-width="0.25" />
    <line x1="130" y1="40" x2="130" y2="90" stroke-width="0.25" />
    <line x1="50" y1="70" x2="50" y2="120" stroke-width="0.25" />
    <text class="label-sm" x="20" y="140">tesseractum — 4D</text>
  </g>

  <!-- ═══ BOTTOM LEFT: Vesica Piscis construction ═══ -->

  <g transform="translate(250, 1350)" class="sketch" stroke-width="0.35" opacity="0.16">
    <!-- Two overlapping circles -->
    <circle cx="40" cy="50" r="45" />
    <circle cx="80" cy="50" r="45" />
    <!-- Vesica highlight (the almond shape where they overlap) -->
    <path d="M60,7.3 Q40,50 60,92.7 Q80,50 60,7.3" stroke-width="0.5" stroke-dasharray="2 2" />
    <!-- Center line and construction -->
    <line x1="60" y1="0" x2="60" y2="100" stroke-width="0.15" stroke-dasharray="3 5" />
    <line x1="-5" y1="50" x2="125" y2="50" stroke-width="0.15" stroke-dasharray="3 5" />
    <circle cx="60" cy="50" r="2" class="sketch-fill" opacity="0.12" />
    <!-- Ratio annotation -->
    <text class="label-sm" x="15" y="115">vesica piscis</text>
    <text class="label-sm" x="15" y="128">√3 : 1</text>
  </g>

  <!-- ═══ BOTTOM: Golden spiral with annotations ═══ -->

  <g transform="translate(700, 1350)" class="sketch" stroke-width="0.5" opacity="0.2">
    <rect x="0" y="0" width="200" height="123.6" />
    <rect x="0" y="0" width="123.6" height="123.6" />
    <rect x="123.6" y="0" width="76.4" height="76.4" />
    <rect x="123.6" y="76.4" width="47.2" height="47.2" />
    <rect x="170.8" y="76.4" width="29.2" height="29.2" />
    <path d="M123.6,123.6 Q123.6,0 0,0" stroke-width="0.6" />
    <path d="M123.6,0 Q200,0 200,76.4" stroke-width="0.6" />
    <path d="M200,76.4 Q200,123.6 170.8,123.6" stroke-width="0.5" />
    <path d="M170.8,123.6 Q123.6,123.6 123.6,105.6" stroke-width="0.5" />
    <text class="label" x="50" y="145">φ = 1.618</text>
    <text class="label-sm" x="130" y="115">proportio divina</text>
  </g>

  <!-- ═══ BOTTOM RIGHT: Sri Yantra / nested triangles ═══ -->

  <g transform="translate(1050, 1450)" class="sketch" stroke-width="0.3" opacity="0.14">
    <!-- Outer circle -->
    <circle cx="70" cy="65" r="65" />
    <circle cx="70" cy="65" r="60" stroke-dasharray="2 3" />
    <!-- Upward triangles (Shiva) -->
    <polygon points="70,5 130,110 10,110" stroke-width="0.35" />
    <polygon points="70,20 118,100 22,100" stroke-width="0.25" stroke-dasharray="2 2" />
    <!-- Downward triangles (Shakti) -->
    <polygon points="70,125 10,20 130,20" stroke-width="0.35" />
    <polygon points="70,110 22,30 118,30" stroke-width="0.25" stroke-dasharray="2 2" />
    <!-- Bindu (center point) -->
    <circle cx="70" cy="65" r="3" class="sketch-fill" opacity="0.15" />
    <!-- Gate squares (bhupura) -->
    <rect x="0" y="0" width="140" height="130" rx="3" stroke-width="0.2" stroke-dasharray="4 4" />
    <text class="label-sm" x="25" y="150">yantra sacrum</text>
  </g>

  <!-- ═══ SCATTERED: Small measurement/construction marks ═══ -->

  <g transform="translate(1200, 200)" class="sketch" stroke-width="0.3" opacity="0.15">
    <circle cx="30" cy="30" r="25" />
    <circle cx="30" cy="30" r="18" stroke-dasharray="2 3" />
    <line x1="30" y1="5" x2="30" y2="55" />
    <line x1="5" y1="30" x2="55" y2="30" />
    <path d="M30,5 L33,15 L27,15 Z" class="sketch-fill" opacity="0.2" />
  </g>

  <!-- Scattered tiny construction marks / grid points -->
  <g class="sketch-fill" opacity="0.06">
    <circle cx="350" cy="300" r="2" />
    <circle cx="700" cy="450" r="2" />
    <circle cx="1100" cy="650" r="2" />
    <circle cx="200" cy="1000" r="2" />
    <circle cx="850" cy="1050" r="2" />
    <circle cx="1250" cy="900" r="2" />
    <circle cx="500" cy="1500" r="2" />
    <circle cx="1000" cy="1400" r="2" />
    <!-- Additional grid intersections -->
    <circle cx="150" cy="480" r="1.5" />
    <circle cx="750" cy="680" r="1.5" />
    <circle cx="400" cy="920" r="1.5" />
    <circle cx="1300" cy="550" r="1.5" />
    <circle cx="600" cy="1200" r="1.5" />
    <circle cx="300" cy="1450" r="1.5" />
    <circle cx="900" cy="1550" r="1.5" />
    <circle cx="1200" cy="1100" r="1.5" />
  </g>

  <!-- Faint construction grid lines (Da Vinci notebook ruled lines) -->
  <g class="sketch" stroke-width="0.15" opacity="0.04">
    <line x1="0" y1="300" x2="1400" y2="300" />
    <line x1="0" y1="600" x2="1400" y2="600" />
    <line x1="0" y1="900" x2="1400" y2="900" />
    <line x1="0" y1="1200" x2="1400" y2="1200" />
    <line x1="0" y1="1500" x2="1400" y2="1500" />
    <line x1="350" y1="0" x2="350" y2="1800" />
    <line x1="700" y1="0" x2="700" y2="1800" />
    <line x1="1050" y1="0" x2="1050" y2="1800" />
  </g>

  <!-- Faint mirror writing hint (reversed text like Da Vinci) -->
  <g opacity="0.06">
    <text class="label" x="1100" y="1150" transform="scale(-1,1) translate(-2200,0)">notae secretae</text>
    <text class="label-sm" x="200" y="1550" transform="scale(-1,1) translate(-400,0)">cognitio vincit</text>
    <text class="label-sm" x="800" y="700" transform="scale(-1,1) translate(-1600,0)">geometria sacra</text>
    <text class="label-sm" x="600" y="1400" transform="scale(-1,1) translate(-1200,0)">ordo ab chao</text>
  </g>

</svg>
