<svg xmlns="http://www.w3.org/2000/svg" width="1400" height="1800" viewBox="0 0 1400 1800">
  <defs>
    <style>
      .sketch { stroke: #b8a080; fill: none; }
      .sketch-light { stroke: #b8a080; fill: none; opacity: 0.5; }
      .sketch-fill { fill: #b8a080; stroke: none; }
      .label { font-family: 'Fraunces', 'Georgia', serif; fill: #b8a080; font-size: 11px; font-style: italic; }
      .label-sm { font-family: 'Fraunces', 'Georgia', serif; fill: #b8a080; font-size: 8px; font-style: italic; }
      .annotation { font-family: 'Source Sans 3', sans-serif; fill: #b8a080; font-size: 7px; letter-spacing: 0.5px; }
    </style>
  </defs>

  <!-- ═══ TOP LEFT: Da Vinci tool rack ═══ -->

  <g transform="translate(80, 60)" class="sketch" stroke-width="0.6" opacity="0.32">
    <!-- Wall/board -->
    <rect x="0" y="0" width="240" height="10" rx="2" />
    <!-- Pegs -->
    <circle cx="30" cy="5" r="3" class="sketch-fill" opacity="0.1" />
    <circle cx="80" cy="5" r="3" class="sketch-fill" opacity="0.1" />
    <circle cx="130" cy="5" r="3" class="sketch-fill" opacity="0.1" />
    <circle cx="180" cy="5" r="3" class="sketch-fill" opacity="0.1" />
    <circle cx="220" cy="5" r="3" class="sketch-fill" opacity="0.1" />
    <!-- Hammer -->
    <line x1="25" y1="10" x2="25" y2="80" stroke-width="0.5" />
    <rect x="12" y="75" width="26" height="15" rx="2" stroke-width="0.4" />
    <!-- Pliers -->
    <path d="M75,10 L75,40" stroke-width="0.5" />
    <path d="M85,10 L85,40" stroke-width="0.5" />
    <path d="M75,40 Q80,48 85,40" stroke-width="0.4" />
    <path d="M72,42 L68,65" stroke-width="0.4" />
    <path d="M88,42 L92,65" stroke-width="0.4" />
    <!-- Wrench -->
    <line x1="130" y1="10" x2="130" y2="70" stroke-width="0.5" />
    <path d="M122,70 Q130,80 138,70" stroke-width="0.4" />
    <path d="M122,70 L120,78 Q130,85 140,78 L138,70" stroke-width="0.4" />
    <!-- Screwdriver -->
    <line x1="180" y1="10" x2="180" y2="65" stroke-width="0.5" />
    <rect x="176" y="10" width="8" height="20" rx="2" stroke-width="0.3" />
    <line x1="180" y1="65" x2="180" y2="80" stroke-width="0.7" />
    <!-- Caliper/divider -->
    <circle cx="220" cy="15" r="4" stroke-width="0.3" />
    <line x1="218" y1="18" x2="205" y2="75" stroke-width="0.4" />
    <line x1="222" y1="18" x2="235" y2="75" stroke-width="0.4" />
    <!-- Measurement marks -->
    <line x1="0" y1="95" x2="240" y2="95" stroke-width="0.2" stroke-dasharray="1 3" />
    <text class="label" x="50" y="115">instrumenta artificis</text>
  </g>

  <!-- ═══ TOP RIGHT: Seed of Life ═══ -->

  <g transform="translate(520, 30)" class="sketch" stroke-width="0.35" opacity="0.18">
    <circle cx="40" cy="40" r="25" />
    <circle cx="40" cy="15" r="25" />
    <circle cx="40" cy="65" r="25" />
    <circle cx="18.35" cy="27.5" r="25" />
    <circle cx="61.65" cy="27.5" r="25" />
    <circle cx="18.35" cy="52.5" r="25" />
    <circle cx="61.65" cy="52.5" r="25" />
    <circle cx="40" cy="40" r="50" stroke-dasharray="2 3" />
    <circle cx="40" cy="40" r="2" class="sketch-fill" opacity="0.12" />
    <text class="label-sm" x="10" y="100">semen vitae</text>
  </g>

  <!-- ═══ RIGHT SIDE: Magnifying glass ═══ -->

  <g transform="translate(920, 70)" class="sketch" stroke-width="0.5" opacity="0.3">
    <!-- Lens -->
    <circle cx="65" cy="65" r="55" />
    <circle cx="65" cy="65" r="50" stroke-dasharray="3 3" stroke-width="0.3" />
    <!-- Glass reflection -->
    <path d="M35,35 Q40,30 50,35" stroke-width="0.3" />
    <!-- Frame rim -->
    <circle cx="65" cy="65" r="58" stroke-width="0.3" />
    <!-- Handle -->
    <line x1="104" y1="104" x2="155" y2="155" stroke-width="0.8" />
    <line x1="106" y1="102" x2="157" y2="153" stroke-width="0.8" />
    <!-- Handle end -->
    <ellipse cx="158" cy="156" rx="8" ry="5" transform="rotate(45 158 156)" stroke-width="0.4" />
    <!-- Magnified detail inside (text lines) -->
    <line x1="30" y1="50" x2="100" y2="50" stroke-width="0.3" />
    <line x1="30" y1="60" x2="95" y2="60" stroke-width="0.3" />
    <line x1="30" y1="70" x2="100" y2="70" stroke-width="0.3" />
    <line x1="30" y1="80" x2="85" y2="80" stroke-width="0.3" />
    <text class="label" x="35" y="185">perspicillum — investigatio</text>
  </g>

  <!-- ═══ TOP FAR RIGHT: Metatron's Cube ═══ -->

  <g transform="translate(1180, 60)" class="sketch" stroke-width="0.3" opacity="0.15">
    <circle cx="60" cy="60" r="8" />
    <circle cx="60" cy="35" r="8" />
    <circle cx="81.65" cy="47.5" r="8" />
    <circle cx="81.65" cy="72.5" r="8" />
    <circle cx="60" cy="85" r="8" />
    <circle cx="38.35" cy="72.5" r="8" />
    <circle cx="38.35" cy="47.5" r="8" />
    <circle cx="60" cy="10" r="8" stroke-dasharray="1 2" />
    <circle cx="103.3" cy="35" r="8" stroke-dasharray="1 2" />
    <circle cx="103.3" cy="85" r="8" stroke-dasharray="1 2" />
    <circle cx="60" cy="110" r="8" stroke-dasharray="1 2" />
    <circle cx="16.7" cy="85" r="8" stroke-dasharray="1 2" />
    <circle cx="16.7" cy="35" r="8" stroke-dasharray="1 2" />
    <line x1="60" y1="10" x2="103.3" y2="85" stroke-width="0.2" />
    <line x1="60" y1="10" x2="16.7" y2="85" stroke-width="0.2" />
    <line x1="103.3" y1="35" x2="16.7" y2="85" stroke-width="0.2" />
    <line x1="103.3" y1="35" x2="60" y2="110" stroke-width="0.2" />
    <line x1="103.3" y1="85" x2="16.7" y2="35" stroke-width="0.2" />
    <line x1="16.7" y1="35" x2="60" y2="110" stroke-width="0.2" />
    <line x1="60" y1="10" x2="60" y2="110" stroke-width="0.2" />
    <line x1="16.7" y1="35" x2="103.3" y2="35" stroke-width="0.2" />
    <line x1="16.7" y1="85" x2="103.3" y2="85" stroke-width="0.2" />
    <circle cx="60" cy="60" r="58" stroke-dasharray="3 4" stroke-width="0.25" />
    <text class="label-sm" x="15" y="130">cubus Metatronis</text>
  </g>

  <!-- ═══ LEFT CENTER: Open book / manual ═══ -->

  <g transform="translate(100, 350)" class="sketch" stroke-width="0.5" opacity="0.28">
    <!-- Book spine -->
    <path d="M90,0 Q90,5 90,150" stroke-width="0.6" />
    <!-- Left page -->
    <path d="M90,0 Q50,-5 5,5 L5,145 Q50,140 90,150" stroke-width="0.5" />
    <!-- Right page -->
    <path d="M90,0 Q130,-5 175,5 L175,145 Q130,140 90,150" stroke-width="0.5" />
    <!-- Left page: diagram -->
    <circle cx="50" cy="40" r="18" stroke-width="0.3" stroke-dasharray="2 2" />
    <line x1="32" y1="40" x2="68" y2="40" stroke-width="0.2" />
    <line x1="50" y1="22" x2="50" y2="58" stroke-width="0.2" />
    <!-- Left page: text -->
    <line x1="15" y1="70" x2="80" y2="68" stroke-width="0.2" />
    <line x1="15" y1="80" x2="75" y2="78" stroke-width="0.2" />
    <line x1="15" y1="90" x2="78" y2="88" stroke-width="0.2" />
    <line x1="15" y1="100" x2="65" y2="98" stroke-width="0.2" />
    <line x1="15" y1="115" x2="80" y2="113" stroke-width="0.2" />
    <line x1="15" y1="125" x2="72" y2="123" stroke-width="0.2" />
    <!-- Right page: numbered steps -->
    <text class="annotation" x="100" y="25">1.</text>
    <line x1="112" y1="22" x2="165" y2="22" stroke-width="0.2" />
    <line x1="112" y1="30" x2="160" y2="30" stroke-width="0.2" />
    <text class="annotation" x="100" y="50">2.</text>
    <line x1="112" y1="47" x2="165" y2="47" stroke-width="0.2" />
    <line x1="112" y1="55" x2="158" y2="55" stroke-width="0.2" />
    <text class="annotation" x="100" y="75">3.</text>
    <line x1="112" y1="72" x2="165" y2="72" stroke-width="0.2" />
    <line x1="112" y1="80" x2="162" y2="80" stroke-width="0.2" />
    <text class="annotation" x="100" y="100">4.</text>
    <line x1="112" y1="97" x2="165" y2="97" stroke-width="0.2" />
    <line x1="112" y1="105" x2="155" y2="105" stroke-width="0.2" />
    <!-- Bookmark ribbon -->
    <path d="M90,0 Q88,-5 86,0 L86,30" stroke-width="0.3" />
    <text class="label" x="25" y="175">liber manualis — doctrina</text>
  </g>

  <!-- ═══ CENTER RIGHT: Pulley mechanism ═══ -->

  <g transform="translate(880, 350)" class="sketch" stroke-width="0.5" opacity="0.25">
    <!-- Ceiling mount -->
    <line x1="50" y1="0" x2="100" y2="0" stroke-width="0.6" />
    <line x1="75" y1="0" x2="75" y2="20" stroke-width="0.5" />
    <!-- Upper pulley wheel -->
    <circle cx="75" cy="35" r="15" />
    <circle cx="75" cy="35" r="3" class="sketch-fill" opacity="0.1" />
    <!-- Axle -->
    <line x1="58" y1="35" x2="92" y2="35" stroke-width="0.3" stroke-dasharray="1 2" />
    <!-- Rope going over pulley -->
    <path d="M60,35 Q60,20 60,5" stroke-width="0.4" />
    <line x1="90" y1="35" x2="90" y2="130" stroke-width="0.4" />
    <!-- Lower pulley -->
    <circle cx="90" cy="90" r="12" />
    <circle cx="90" cy="90" r="3" class="sketch-fill" opacity="0.1" />
    <!-- Rope around lower pulley -->
    <line x1="78" y1="90" x2="78" y2="5" stroke-width="0.4" />
    <!-- Weight -->
    <rect x="80" y="115" width="20" height="25" rx="2" />
    <line x1="85" y1="122" x2="95" y2="122" stroke-width="0.2" />
    <line x1="85" y1="128" x2="95" y2="128" stroke-width="0.2" />
    <line x1="85" y1="134" x2="95" y2="134" stroke-width="0.2" />
    <!-- Force arrows -->
    <line x1="55" y1="5" x2="55" y2="25" stroke-width="0.3" />
    <polygon points="55,5 52,12 58,12" class="sketch-fill" opacity="0.2" />
    <text class="annotation" x="40" y="4">F</text>
    <!-- Mechanical advantage annotation -->
    <text class="label" x="20" y="160">trochlea — machina auxiliaris</text>
  </g>

  <!-- ═══ CENTER: Flower of Life ═══ -->

  <g transform="translate(480, 750)" class="sketch-light" stroke-width="0.35" opacity="0.16">
    <circle cx="120" cy="120" r="40" />
    <circle cx="120" cy="80" r="40" />
    <circle cx="120" cy="160" r="40" />
    <circle cx="85.36" cy="100" r="40" />
    <circle cx="154.64" cy="100" r="40" />
    <circle cx="85.36" cy="140" r="40" />
    <circle cx="154.64" cy="140" r="40" />
    <circle cx="120" cy="40" r="40" />
    <circle cx="120" cy="200" r="40" />
    <circle cx="50.72" cy="80" r="40" />
    <circle cx="189.28" cy="80" r="40" />
    <circle cx="50.72" cy="160" r="40" />
    <circle cx="189.28" cy="160" r="40" />
    <circle cx="85.36" cy="60" r="40" />
    <circle cx="154.64" cy="60" r="40" />
    <circle cx="85.36" cy="180" r="40" />
    <circle cx="154.64" cy="180" r="40" />
    <circle cx="50.72" cy="120" r="40" />
    <circle cx="189.28" cy="120" r="40" />
    <circle cx="120" cy="120" r="120" stroke-dasharray="4 4" stroke-width="0.3" />
    <circle cx="120" cy="120" r="125" stroke-dasharray="1 8" stroke-width="0.2" />
    <circle cx="120" cy="120" r="2.5" class="sketch-fill" opacity="0.12" />
    <line x1="120" y1="-5" x2="120" y2="245" stroke-width="0.15" stroke-dasharray="6 8" />
    <line x1="-5" y1="120" x2="245" y2="120" stroke-width="0.15" stroke-dasharray="6 8" />
    <text class="label" x="50" y="265">flos vitae universalis</text>
  </g>

  <!-- ═══ LEFT LOWER: Gear mechanism ═══ -->

  <g transform="translate(60, 600)" class="sketch" stroke-width="0.4" opacity="0.22">
    <circle cx="60" cy="60" r="50" />
    <circle cx="60" cy="60" r="42" stroke-dasharray="4 3" />
    <circle cx="60" cy="60" r="15" />
    <line x1="60" y1="10" x2="60" y2="3" />
    <line x1="60" y1="110" x2="60" y2="117" />
    <line x1="10" y1="60" x2="3" y2="60" />
    <line x1="110" y1="60" x2="117" y2="60" />
    <line x1="25" y1="25" x2="20" y2="20" />
    <line x1="95" y1="25" x2="100" y2="20" />
    <line x1="25" y1="95" x2="20" y2="100" />
    <line x1="95" y1="95" x2="100" y2="100" />
    <circle cx="135" cy="95" r="28" />
    <circle cx="135" cy="95" r="22" stroke-dasharray="3 2" />
    <circle cx="135" cy="95" r="8" />
    <text class="label-sm" x="25" y="140">machina cogitans</text>
  </g>

  <!-- ═══ RIGHT: Tree of Life / Sephirot ═══ -->

  <g transform="translate(980, 680)" class="sketch" stroke-width="0.4" opacity="0.17">
    <circle cx="70" cy="0" r="12" />
    <circle cx="30" cy="45" r="10" />
    <circle cx="110" cy="45" r="10" />
    <circle cx="70" cy="70" r="8" stroke-dasharray="2 2" />
    <circle cx="30" cy="105" r="10" />
    <circle cx="110" cy="105" r="10" />
    <circle cx="70" cy="130" r="12" />
    <circle cx="30" cy="175" r="10" />
    <circle cx="110" cy="175" r="10" />
    <circle cx="70" cy="210" r="10" />
    <circle cx="70" cy="260" r="12" />
    <line x1="30" y1="55" x2="30" y2="95" stroke-width="0.3" />
    <line x1="30" y1="115" x2="30" y2="165" stroke-width="0.3" />
    <line x1="110" y1="55" x2="110" y2="95" stroke-width="0.3" />
    <line x1="110" y1="115" x2="110" y2="165" stroke-width="0.3" />
    <line x1="70" y1="12" x2="70" y2="62" stroke-width="0.3" />
    <line x1="70" y1="78" x2="70" y2="118" stroke-width="0.3" />
    <line x1="70" y1="142" x2="70" y2="200" stroke-width="0.3" />
    <line x1="70" y1="220" x2="70" y2="248" stroke-width="0.3" />
    <line x1="70" y1="12" x2="30" y2="35" stroke-width="0.25" />
    <line x1="70" y1="12" x2="110" y2="35" stroke-width="0.25" />
    <line x1="30" y1="55" x2="110" y2="95" stroke-width="0.2" stroke-dasharray="2 3" />
    <line x1="110" y1="55" x2="30" y2="95" stroke-width="0.2" stroke-dasharray="2 3" />
    <line x1="30" y1="185" x2="70" y2="200" stroke-width="0.25" />
    <line x1="110" y1="185" x2="70" y2="200" stroke-width="0.25" />
    <ellipse cx="70" cy="130" rx="65" ry="145" stroke-dasharray="4 6" stroke-width="0.2" />
    <text class="label-sm" x="15" y="290">arbor vitae — sephirot</text>
  </g>

  <!-- ═══ LOWER LEFT: Lighthouse / beacon of guidance ═══ -->

  <g transform="translate(80, 1100)" class="sketch" stroke-width="0.5" opacity="0.25">
    <!-- Lamp body -->
    <path d="M30,80 L40,10 L80,10 L90,80 Z" stroke-width="0.5" />
    <!-- Lamp glass -->
    <rect x="42" y="15" width="36" height="30" rx="2" stroke-width="0.4" />
    <!-- Flame -->
    <path d="M60,30 Q55,22 60,15 Q65,22 60,30" stroke-width="0.3" />
    <circle cx="60" cy="25" r="2" class="sketch-fill" opacity="0.1" />
    <!-- Handle -->
    <path d="M40,10 Q60,-5 80,10" stroke-width="0.4" />
    <!-- Ring at top -->
    <circle cx="60" cy="-2" r="5" stroke-width="0.3" />
    <!-- Light rays -->
    <line x1="35" y1="25" x2="10" y2="18" stroke-width="0.2" stroke-dasharray="2 4" />
    <line x1="35" y1="35" x2="10" y2="42" stroke-width="0.2" stroke-dasharray="2 4" />
    <line x1="85" y1="25" x2="110" y2="18" stroke-width="0.2" stroke-dasharray="2 4" />
    <line x1="85" y1="35" x2="110" y2="42" stroke-width="0.2" stroke-dasharray="2 4" />
    <!-- Base -->
    <line x1="25" y1="80" x2="95" y2="80" stroke-width="0.4" />
    <rect x="35" y="80" width="50" height="8" rx="2" stroke-width="0.3" />
    <text class="label" x="10" y="110">lucerna sapientiae</text>
  </g>

  <!-- ═══ CENTER LOWER: Key and lock mechanism ═══ -->

  <g transform="translate(400, 1150)" class="sketch" stroke-width="0.4" opacity="0.22">
    <!-- Lock body -->
    <rect x="0" y="30" width="60" height="50" rx="5" />
    <!-- Lock shackle -->
    <path d="M12,30 Q12,5 30,5 Q48,5 48,30" stroke-width="0.5" />
    <!-- Keyhole -->
    <circle cx="30" cy="50" r="6" stroke-width="0.3" />
    <path d="M27,56 L27,68 L33,68 L33,56" stroke-width="0.3" />
    <!-- Key -->
    <line x1="90" y1="55" x2="200" y2="55" stroke-width="0.5" />
    <!-- Key bow (handle) -->
    <circle cx="200" cy="55" r="15" />
    <circle cx="200" cy="55" r="10" stroke-dasharray="2 2" stroke-width="0.3" />
    <circle cx="200" cy="55" r="3" class="sketch-fill" opacity="0.1" />
    <!-- Key bit (teeth) -->
    <path d="M90,55 L90,48 L95,48 L95,55" stroke-width="0.3" />
    <path d="M100,55 L100,45 L105,45 L105,55" stroke-width="0.3" />
    <path d="M112,55 L112,48 L117,48 L117,55" stroke-width="0.3" />
    <!-- Arrow showing insertion -->
    <line x1="70" y1="55" x2="62" y2="55" stroke-width="0.3" stroke-dasharray="2 3" />
    <polygon points="62,55 66,52 66,58" class="sketch-fill" opacity="0.2" />
    <text class="label-sm" x="60" y="100">clavis et sera — solutio</text>
  </g>

  <!-- ═══ RIGHT LOWER: Lever and fulcrum (Archimedes) ═══ -->

  <g transform="translate(900, 1100)" class="sketch" stroke-width="0.4" opacity="0.2">
    <!-- Fulcrum (triangle) -->
    <polygon points="100,110 85,140 115,140" stroke-width="0.5" />
    <!-- Lever beam -->
    <line x1="10" y1="100" x2="200" y2="108" stroke-width="0.6" />
    <!-- Weight on right -->
    <rect x="170" y="112" width="30" height="25" rx="2" />
    <line x1="175" y1="120" x2="195" y2="120" stroke-width="0.2" />
    <line x1="175" y1="126" x2="195" y2="126" stroke-width="0.2" />
    <line x1="175" y1="132" x2="195" y2="132" stroke-width="0.2" />
    <!-- Force arrow on left -->
    <line x1="20" y1="100" x2="20" y2="75" stroke-width="0.3" />
    <polygon points="20,75 17,82 23,82" class="sketch-fill" opacity="0.2" />
    <text class="annotation" x="10" y="72">F</text>
    <!-- Fulcrum annotation -->
    <circle cx="100" cy="110" r="2" class="sketch-fill" opacity="0.15" />
    <!-- Ground line -->
    <line x1="70" y1="140" x2="130" y2="140" stroke-width="0.3" />
    <text class="label-sm" x="40" y="160">vectis Archimedis — auxilium</text>
  </g>

  <!-- ═══ BOTTOM LEFT: Vesica Piscis ═══ -->

  <g transform="translate(250, 1350)" class="sketch" stroke-width="0.35" opacity="0.16">
    <circle cx="40" cy="50" r="45" />
    <circle cx="80" cy="50" r="45" />
    <path d="M60,7.3 Q40,50 60,92.7 Q80,50 60,7.3" stroke-width="0.5" stroke-dasharray="2 2" />
    <line x1="60" y1="0" x2="60" y2="100" stroke-width="0.15" stroke-dasharray="3 5" />
    <line x1="-5" y1="50" x2="125" y2="50" stroke-width="0.15" stroke-dasharray="3 5" />
    <circle cx="60" cy="50" r="2" class="sketch-fill" opacity="0.12" />
    <text class="label-sm" x="15" y="115">vesica piscis</text>
    <text class="label-sm" x="15" y="128">√3 : 1</text>
  </g>

  <!-- ═══ BOTTOM CENTER: Golden spiral ═══ -->

  <g transform="translate(700, 1380)" class="sketch" stroke-width="0.5" opacity="0.2">
    <rect x="0" y="0" width="200" height="123.6" />
    <rect x="0" y="0" width="123.6" height="123.6" />
    <rect x="123.6" y="0" width="76.4" height="76.4" />
    <rect x="123.6" y="76.4" width="47.2" height="47.2" />
    <rect x="170.8" y="76.4" width="29.2" height="29.2" />
    <path d="M123.6,123.6 Q123.6,0 0,0" stroke-width="0.6" />
    <path d="M123.6,0 Q200,0 200,76.4" stroke-width="0.6" />
    <path d="M200,76.4 Q200,123.6 170.8,123.6" stroke-width="0.5" />
    <path d="M170.8,123.6 Q123.6,123.6 123.6,105.6" stroke-width="0.5" />
    <text class="label" x="50" y="145">φ = 1.618</text>
    <text class="label-sm" x="130" y="115">proportio divina</text>
  </g>

  <!-- ═══ BOTTOM RIGHT: Sri Yantra ═══ -->

  <g transform="translate(1050, 1450)" class="sketch" stroke-width="0.3" opacity="0.14">
    <circle cx="70" cy="65" r="65" />
    <circle cx="70" cy="65" r="60" stroke-dasharray="2 3" />
    <polygon points="70,5 130,110 10,110" stroke-width="0.35" />
    <polygon points="70,20 118,100 22,100" stroke-width="0.25" stroke-dasharray="2 2" />
    <polygon points="70,125 10,20 130,20" stroke-width="0.35" />
    <polygon points="70,110 22,30 118,30" stroke-width="0.25" stroke-dasharray="2 2" />
    <circle cx="70" cy="65" r="3" class="sketch-fill" opacity="0.15" />
    <rect x="0" y="0" width="140" height="130" rx="3" stroke-width="0.2" stroke-dasharray="4 4" />
    <text class="label-sm" x="25" y="150">yantra sacrum</text>
  </g>

  <!-- ═══ SCATTERED: Construction marks ═══ -->

  <g transform="translate(1200, 200)" class="sketch" stroke-width="0.3" opacity="0.15">
    <circle cx="30" cy="30" r="25" />
    <circle cx="30" cy="30" r="18" stroke-dasharray="2 3" />
    <line x1="30" y1="5" x2="30" y2="55" />
    <line x1="5" y1="30" x2="55" y2="30" />
    <path d="M30,5 L33,15 L27,15 Z" class="sketch-fill" opacity="0.2" />
  </g>

  <!-- Scattered tiny construction marks / grid points -->
  <g class="sketch-fill" opacity="0.06">
    <circle cx="350" cy="300" r="2" />
    <circle cx="700" cy="450" r="2" />
    <circle cx="1100" cy="650" r="2" />
    <circle cx="200" cy="1000" r="2" />
    <circle cx="850" cy="1050" r="2" />
    <circle cx="1250" cy="900" r="2" />
    <circle cx="500" cy="1500" r="2" />
    <circle cx="1000" cy="1400" r="2" />
    <circle cx="150" cy="480" r="1.5" />
    <circle cx="750" cy="680" r="1.5" />
    <circle cx="400" cy="920" r="1.5" />
    <circle cx="1300" cy="550" r="1.5" />
    <circle cx="600" cy="1200" r="1.5" />
    <circle cx="300" cy="1450" r="1.5" />
    <circle cx="900" cy="1550" r="1.5" />
    <circle cx="1200" cy="1100" r="1.5" />
  </g>

  <!-- Faint construction grid lines (Da Vinci notebook ruled lines) -->
  <g class="sketch" stroke-width="0.15" opacity="0.04">
    <line x1="0" y1="300" x2="1400" y2="300" />
    <line x1="0" y1="600" x2="1400" y2="600" />
    <line x1="0" y1="900" x2="1400" y2="900" />
    <line x1="0" y1="1200" x2="1400" y2="1200" />
    <line x1="0" y1="1500" x2="1400" y2="1500" />
    <line x1="350" y1="0" x2="350" y2="1800" />
    <line x1="700" y1="0" x2="700" y2="1800" />
    <line x1="1050" y1="0" x2="1050" y2="1800" />
  </g>

  <!-- Faint mirror writing hint (reversed text like Da Vinci) -->
  <g opacity="0.06">
    <text class="label" x="1100" y="1150" transform="scale(-1,1) translate(-2200,0)">notae secretae</text>
    <text class="label-sm" x="200" y="1550" transform="scale(-1,1) translate(-400,0)">scientia est potentia</text>
    <text class="label-sm" x="800" y="700" transform="scale(-1,1) translate(-1600,0)">auxilium semper</text>
    <text class="label-sm" x="600" y="1400" transform="scale(-1,1) translate(-1200,0)">instrumenta sapientis</text>
  </g>

</svg>