<?xml version="1.0" encoding="UTF-8"?>
<svg xmlns="http://www.w3.org/2000/svg" width="400" height="400" viewBox="0 0 400 400">
  <defs>
    <!-- Define the robot shape as a mask -->
    <mask id="robot-mask">
      <rect width="400" height="400" fill="white"/>
      <path fill="black" d="M119 27L119.778 28.3889L120.306 28.75L121.111 29.4167L122.944 30.2778L124.5 30.75L126 31L126.667 32.5L127 33.0555L127.917 35L128.667 37L129 38L129.583 40L129.917 42L130 44L129.972 45L129.75 47L129.528 48L129.139 49L128.722 50L127.556 52L126.861 53L125.694 54.9445L125.361 55.5L125 57L123.5 57.7778L122.972 58.3055L122.056 59.1111L120.722 61L120.111 63L120.028 64L120 66L120 68L120 72L120 100L119 101L116.944 100.972L115.944 100.917L114.056 100.583L112 100L112 60L108 60L107.222 58.8333L106.694 58.5555L105.056 57.3889L104.222 56.7222L103.389 55.9722L101.806 54.3889L101.028 53.6111L99.6944 51.9167L99.25 50.9722L98.5556 49L97.8333 47L97.4722 46L97.25 45L97.0556 43L97.3056 41L97.6111 40L98.4167 38L99.1944 36L99.6111 35.0278L100.111 34.0833L101.417 32.3889L103.083 30.8055L104.028 30.0278L106 28.7222L108 28.0278L110 27.6111L111 27.3889L113 27.0833L115 27L115.944 27L116.944 27L119 27M291 27L292.083 28.4167L293.278 29.6389L294.944 31L295.778 31.6945L296.611 32.4167L297.361 33.2222L298.111 34.0833L299.333 36L299.75 37L300.361 39L300.611 40L300.917 42L300.972 43L300.917 45L300.611 47L300.222 48.9445L300.028 50.5L300 52L298.028 53.4722L297.167 54.2778L295.611 55.9167L293.917 57.3611L292 58.3611L290.056 59.1945L289.5 59.5L288 60L288 99L287 100L282 100L281 99L281 61L279.5 60.4722L278.944 60.1111L277.972 59.5833L277.083 58.9722L275.472 57.5833L274.833 56.7778L273.528 55.0555L272.028 53.3889L271.278 52.6111L270.111 50.9167L269.722 49.9722L269.222 48L269.083 47L269.028 46L269 44L269 42L269.111 40L269.611 38L270.417 36L271.111 34.0555L271.389 33.0555L272 31L273.5 30.7222L275.056 30.0833L277 29.0555L279 28.0833L281 27.4167L283 27.0833L285 27L286 27L287.944 27L291 27M239 83L239.778 84.2222L241.111 85.1111L242.028 85.5278L244 86.1389L245 86.3611L246 86.6111L247.944 86.9167L248.944 86.9722L251 87L252 88L252 90L256 90L256.778 91.1667L257.306 91.4167L258.056 91.9445L259.5 92.5555L261 93L261.361 94.4722L262.333 95.8333L263.111 96.6111L264.972 98.1389L265.917 98.8611L267.611 100.361L268.389 101.139L270.028 102.556L272 104L272.111 105.5L272.694 107.056L273.861 109L274.528 110L275.583 112L276.333 114L276.667 115L277.333 117L278 119L278.306 120L278.611 121L279.139 123L279.361 124L279.611 125L279.806 126L280.194 128L280.389 129L280.778 131L280.917 132L281 134L281 135L281 136L281 139L281 152L281 191L253 191L244 191L241 191L239 191.028L238 191.083L236 191.389L235 191.611L233 191.917L231 192L230 192L227 192L218 192L193 192L118 192L117 191L117 152L117 139L117 136L117 135L117 134L117.083 132L117.222 131L117.611 129L117.806 128L118.194 126L118.389 125L118.861 123L119.139 122L119.389 121L119.694 120L120.333 118L120.667 117L121.333 115.028L121.694 114.111L122.056 113.333L122.583 112.722L122.833 112.361L124 112L124 108L125.222 107.222L125.583 106.694L126.222 105.917L127.444 104.222L128.833 102.611L129.528 101.778L130.056 100.972L130.722 99.5L131 98L132.417 97.2222L132.833 96.7222L133.667 95.9722L134.389 95.1945L136.083 93.7222L137.028 93.0833L139 91.9722L140 91.4167L142 90.1389L143 89.4445L145 88.2778L147 87.4445L148 87.1667L150 86.6389L152 86.1389L153 85.8611L155 85.3611L156 85.1111L158 84.4167L160 83.6111L162 83.1111L163 83.0278L164 83L166 83L171 83L189 83L239 83M177 126L175.5 125.333L174.944 125L173 124.083L171 123.389L169 122.861L168 122.639L167 122.389L165 122.083L164 122.028L162 122.028L161 122.083L159 122.5L158 122.944L156.028 124.167L155.083 124.861L153.417 126.389L152 128.083L151.333 129.028L150.694 130L150.111 131L149.306 133L149.028 135L149 136L149 138L149 140L149.028 141L149.111 142L149.611 144L150.028 145L151 147L151.528 147.972L152.722 149.75L153.417 150.528L155.083 151.806L156.028 152.389L158 153.583L159 154.083L160 154.5L162 154.917L163 154.972L165 154.917L167 154.611L168 154.361L169 154.111L171 153.417L172 152.972L173.972 152.056L174.917 151.611L176.583 150.5L177.278 149.75L178.361 147.972L178.972 146L179.389 144L179.611 143L179.917 141L179.972 140L180 138L179.917 136L179.611 134L179.361 133L179.111 132L178.417 130L177.611 128.056L177.333 127.5L177 126M226 152L227.75 152.667L228.278 152.861L229 154L230.5 154.083L231.056 154.222L232.056 154.389L233 154.611L235 154.917L237 154.972L238 154.917L239 154.778L239.972 154.583L241.778 153.917L242.611 153.444L244.222 152.389L245.028 151.917L246.5 151.278L248 151L248.083 149.5L248.5 147.972L249.444 146.333L250.583 145.361L252 145L252 141L252 139L252 138L251.917 136L251.583 134L250.972 132L250.583 131L249.611 129L248.639 127.056L248.333 126.5L248 125L246.5 124.333L245.944 124.028L244 123.306L243 123.083L242 122.944L240 122.611L239 122.389L237 122.083L236 122.056L235 122.083L233 122.389L232 122.639L230 123.167L229 123.472L227 124.417L225.083 125.694L223.417 127.222L222.111 129.028L221.611 130L220.889 132L220.639 133L220.389 134L220.083 136L220 138L220.028 139L220.083 140L220.417 142L220.694 143L221.417 145L222.5 147L223.972 148.944L224.722 149.944L225.222 150.5L226 152M86 223L86 243L86 249L86 251L85.9722 253L85.9167 254L85.6111 256L85.2222 257.944L85.0278 259.5L85 261L86 262L99 262L99.5 260.5L99.8056 259.944L100.528 258L100.917 256L100.972 255L101 254L101 252L101 244L101 224L102 223L113 223L116 223L117 223L118 223L120 223.083L120.944 223.222L121.944 223.417L124 224L124 321L122.75 321.75L122.333 322.222L121.583 322.889L120.861 323.639L120.194 324.333L119.083 325.583L118 327L106 327L104.556 324.944L103.833 323.944L102.694 322L102.111 320L102 318L102 317L102 314L102 307L102 305L102 304L102 302L101.972 301L101.917 300L101.583 298L100.972 296L100.083 294.083L99.5 293.222L98.75 292.389L96.9722 290.861L96 290.139L95 289.361L93 287.861L92 287.167L91 286.472L89 285.417L87 284.694L86 284.417L84 284.083L82 284L81 284L79 283.917L77 283.611L76 283.389L74 283.083L73 283.028L72 283L71 283L69 283L67 282.972L66 282.889L65 282.694L63.0556 281.972L62.5 281.667L61 281L61 224L63.0556 223.417L64.0556 223.222L65 223.083L67 223L69 223L73 223L86 223M297 224L298 225L298 234L298 236L298.028 238L298.083 239L298.389 241L298.611 242L298.917 244L298.972 245L299 247L299 251L299 261L316 261L316 233L316 231L316 230L316 229L316.111 227L316.333 226.028L317.333 224.333L318.111 223.722L319.028 223.333L321 223.028L323 223L325 223L340 223L340 284L327 284L323 284L322 284L320 284.028L319 284.083L317 284.389L316 284.611L314 284.917L313 284.972L311.056 285L310.056 285L308 285L308 286L307 288L304 288L303.722 289.5L303.056 291.056L302.528 292L301.861 293L300.667 295L300.222 296L299.306 298L298.694 299L297.306 301L296.722 302L296.139 304L296.111 305L296.5 306.972L297.5 308.75L298.194 309.5L299.528 310.472L301 311L301.25 312.5L301.611 314.056L301.917 315.944L301.972 316.944L302 319L300.75 319.778L300.333 320.278L298.778 321.694L297.917 322.278L296 323L294 323.694L293 324.222L291 325.306L289 325.889L288 325.972L287 326L285 326L277 326L276 325L276 250L276 232L276 230L276.028 228L276.111 227L276.333 226.028L277.333 224.333L278.111 223.722L280 223.111L282 223L283 223L285 223L287 223L289 223.028L290 223.083L292 223.389L293.944 223.778L295.5 223.972L297 224M194 245L194.75 246.5L195.194 247.056L196.306 248.944L196.889 250.5L197 252L202 252L202.25 249.944L202.5 248.944L203.5 247.083L205.083 245.389L206.917 243.806L208.611 242.222L210.222 240.944L211.083 240.472L212.028 240.139L214 239.389L215 238.917L216 238.389L218 237.472L220 236.861L221 236.639L222 236.389L224 236.083L225 236.028L226 236L228 236L233 236L233.778 237.167L234.306 237.417L235.111 237.944L237 238.667L238 239L240 239.694L241 240.111L242 240.639L244 242.083L244.944 242.917L245.944 243.694L246.5 244.222L248 245L248.361 246.472L248.694 246.972L249.889 248.611L250.611 249.389L251.889 251.083L252.361 252.028L252.889 253.944L252.972 254.5L253 256L254.222 256.361L255.111 257.333L255.5 258.111L255.917 260L256 262L256 264L256 266L255.917 268L255.611 270L255.389 271L255.222 272L254.944 274L254.75 275L254.5 276L253.611 278L253.056 279L252.556 280L251.611 281.917L250.528 283.611L249.833 284.361L248.361 285.861L247.611 286.639L246.806 287.389L245.194 289.056L243.639 290.778L242.139 292.361L241.361 293.139L239.861 294.639L238.361 296.222L237.611 297.083L235.944 299L234.222 300.917L233.417 301.778L232 303.389L231.306 304.222L229.806 306.028L229.028 306.944L228.278 307.944L227.778 308.5L227 310L224 310L223.639 311.5L223.278 312.056L222.694 313.056L221.194 315L220.389 316L218.778 317.917L217.944 318.778L216.222 320.389L215.389 321.194L214.611 322L212.917 323.611L211.972 324.389L210.028 326.083L209.083 327.028L207.389 329L206.639 330L205.889 331L204.694 332.944L204.111 334.5L204 336L201.944 336L200 335.917L198.083 335.5L197.222 335.056L195.639 333.75L194.861 332.917L193.361 331L192.611 330L190.917 328.083L189.028 326.389L188.083 325.611L186.389 323.944L184.833 322.333L183.472 321.361L182 321L181.639 319.5L181.306 318.944L180.111 317.028L178.639 315.222L177.861 314.389L176.361 312.861L174.806 311.361L174 310.611L172.389 309L170.806 307.472L169.222 306.167L168.472 305.528L167.167 303.917L166.528 302.972L164.917 301L163 299L162 298L160.083 296L159.222 295.028L157.639 293.222L156.25 291.667L155.694 290.833L155.361 290.417L155 289L153.528 288.889L152.167 288.278L150.667 287L149.833 286.278L149.417 285.778L148 285L147.889 283.5L147.278 281.944L146.694 281L145.306 279L144.722 278L144.306 277L144.028 276L143.583 274L143.306 273L142.694 271L142.417 270L142.083 268L142.028 267L142 266L142 264L142 259L144 259L144.028 257.5L144.25 255.944L144.5 255L145.472 253L146.833 251L147.556 250.028L148.167 249.083L148.806 248.222L149.389 247.389L150.694 245.806L151.417 245L153 243.389L153.75 242.667L154.917 241.417L156 240L157.5 239.917L159.056 239.583L161 238.917L162 238.472L164 237.528L165 237.083L167 236.417L168 236.222L169 236.083L171 236L173 236.083L174 236.222L175 236.417L177 237L178 237.333L180 238L182 238.667L183 239.028L184 239.389L185 239.833L186 240.278L188 241.472L190 242.972L190.944 243.694L191.944 244.278L192.5 244.639L194 245M79 330L77.5 330.083L76.9444 330.222L75.9444 330.389L75 330.611L73 330.917L72 330.972L70.0556 331L69.0556 331L67 331L66.25 329.833L65.7778 329.556L65.1111 328.972L63.6111 328L62.8056 327.5L61.2778 326.389L60.6389 325.694L59.6389 323.972L58.8056 322L58.3889 321L57.6944 319L57.4167 318L57.2222 317L57.0833 316L57 314L57 313.056L57 312.056L57 310L58.1667 309.222L58.4444 308.694L59.0278 307.889L59.5 306.972L60 306.028L61 304.222L62.0833 302.694L63.4167 301.389L65.0833 300.278L67 299.472L68 299.25L69 299.083L71 299L72 299L74 299.028L75 299.083L77 299.472L78 299.861L79 300.278L80.9167 301.472L82.6111 303.083L84.1944 305L85.7778 307L86.5 308L87.5 310L87.75 311L87.9722 313L87.9722 315L87.7778 317L87.5833 318L87.3056 319L86.5833 321L85.5 323L84.75 324L82.9722 325.917L82.0278 326.778L81.1111 327.556L80.3056 328.333L79.7778 328.75L79 330M337 302L337.75 303.5L338.194 304.056L339.333 306L340.111 308L340.611 310L340.917 312L340.972 313L341 314L341 316L340.972 318L340.889 319L340.694 320L339.889 322L339.278 323L338.583 323.972L336.917 325.778L335.111 327.333L334.306 328.167L333.778 328.583L333 330L327 330L325 330L324 329.972L323 329.917L321.056 329.611L319.5 329.25L318 329L317.25 327.583L316.778 327.167L316.111 326.361L315.389 325.694L314.083 324.306L313.083 322.778L312.694 321.917L312 320L311.417 318L311.083 316L311.028 315L311 313.056L311 312.056L311 310L313 310L313.111 307.944L313.333 306.944L314.333 305.083L315.083 304.222L315.944 303.417L317.611 302L318.389 301.333L320.083 300.111L322 299.306L323 299.111L325 299L327 299.028L328 299.083L330 299.417L332 300.083L333.944 300.972L334.944 301.389L335.5 301.667L337 302M126 334L126.778 335.167L127.306 335.417L128.111 335.944L129.944 336.583L130.944 336.778L131.5 336.917L133 337L134.472 338.972L136 340.611L137.528 342.222L138.778 343.917L139.417 344.694L139.778 345.222L141 346L141.083 347.5L141.222 348.056L141.639 350L142.167 352L142.444 353L142.833 354L143.611 356L144.306 358L144.583 359L144.778 360L144.917 361L145 363L145 364L145 365L145 368L145 381L144 382L86 382L86 352L86 343L86 341L86 340L86.0833 338L86.2222 337.056L86.4167 336.056L87 334L126 334M308 334L308.778 335.167L309.278 335.444L310.028 336.056L311.5 337.306L312.056 338.111L312.833 340L313.167 341L313.444 342L314.167 344L314.75 346L314.917 347L315 349L315 350L315 353L315 364L315 369L315 371L315 373L314.917 375L314.75 376L314.528 377L313.778 378.944L313.222 379.944L313 380.5L312 382L309.944 382L308.944 382L307 381.972L306 381.917L304 381.611L303 381.417L301 381.306L299 381.611L297 381.917L296 381.972L294 382L291 382L281 382L253 382L253 379.944L253.028 378.944L253.111 378L253.639 376L254.111 375L255.306 373L256.361 371.056L256.889 369.5L257 368L255.5 367.722L254 367.139L253.5 366.972L252 366L252 359L253.5 358.194L254 358.028L255.5 357.444L257 357L257 344L265 344L266 343L266 335L267 334L308 334M300 341L300.111 342.5L300.306 343.056L300.611 344.056L301.389 346L301.694 347L301.889 349L301.778 350L301.389 352L301.083 354L301.028 355L301 357L301 360L301 369L301 372L301 374L301.028 375L301.056 375.944L301.25 376.944L301.278 377.5L302 379L304.028 378.667L304.944 378.278L306.278 376.889L306.889 375L306.972 374L307 373L307 371L307 368L307 353L307 350L307 349L306.889 347L306.278 345L304.889 343.111L303.056 341.722L301.5 341.111L300 341z"/>
      
      <!-- Eyes (black in the mask means they'll be transparent in the final image) -->
      <circle cx="140" cy="115" r="18" fill="black"/>
      <circle cx="160" cy="115" r="18" fill="black"/>
    </mask>
  </defs>
  
  <!-- White rectangle with the robot mask applied -->
  <rect width="400" height="400" fill="white" mask="url(#robot-mask)"/>
  
  <!-- Eyes (added separately to be black) -->
  <circle cx="140" cy="115" r="18" fill="#0a192f"/>
  <circle cx="160" cy="115" r="18" fill="#0a192f"/>
</svg>
