<svg xmlns="http://www.w3.org/2000/svg" width="800" height="300"><path fill="#0c1229" d="M0 0h800v300H0z"/><text x="400" y="50" fill="#fff" font-family="Arial, sans-serif" font-size="36" font-weight="bold" text-anchor="middle">[ Data Creation Process ]</text><g transform="translate(150 150)"><rect width="80" height="100" x="-40" y="-50" fill="#EA4335" rx="5" ry="5"/><rect width="80" height="100" x="-35" y="-45" fill="#34A853" rx="5" ry="5"/><rect width="80" height="100" x="-30" y="-40" fill="#4285F4" rx="5" ry="5"/><path fill="#fff" d="M-20-30h60v5h-60zM-20-20h60v5h-60zM-20-10h60v5h-60zM-20 0h60v5h-60zM-20 10h60v5h-60zM-20 20h60v5h-60z"/><text y="80" fill="#fff" font-family="Arial, sans-serif" font-size="24" text-anchor="middle">Raw Documents</text></g><g transform="translate(300 150)"><circle cy="-30" r="30" fill="#78909C"/><path fill="#B0BEC5" d="M-15-10h30v40h-30z"/><path fill="#B0BEC5" d="M-25 10h50v10h-50z"/><circle cx="-10" cy="5" r="5" fill="#EA4335"/><circle cx="10" cy="15" r="5" fill="#EA4335"/><text y="80" fill="#fff" font-family="Arial, sans-serif" font-size="24" text-anchor="middle">Parsing</text></g><path fill="none" stroke="#fff" stroke-width="5" d="M420 150c10-30 50-30 60 0M420 90l60 60M480 90l-60 60"/><text y="80" fill="#fff" font-family="Arial, sans-serif" font-size="24" text-anchor="middle" transform="translate(450 150)">Chunking</text><g transform="translate(600 150)"><rect width="100" height="100" x="-50" y="-60" fill="#F5F7FA" stroke="#B0BEC5" stroke-width="2" rx="10" ry="10"/><rect width="100" height="20" x="-50" y="-60" fill="#B0BEC5" rx="10" ry="10"/><rect width="80" height="20" x="-40" y="-30" fill="#FF9800" rx="5" ry="5"/><rect width="60" height="20" x="-40" fill="#4CAF50" rx="5" ry="5"/><text x="-30" y="-15" fill="#fff" font-family="Arial, sans-serif" font-size="12">Q</text><text x="-30" y="15" fill="#fff" font-family="Arial, sans-serif" font-size="12">A</text><text y="80" fill="#fff" font-family="Arial, sans-serif" font-size="24" text-anchor="middle">QA Creation</text></g><path fill="none" stroke="#fff" stroke-width="3" marker-end="url(#a)" d="M200 150h50"/><path fill="none" stroke="#fff" stroke-width="3" marker-end="url(#a)" d="M350 150h50"/><path fill="none" stroke="#fff" stroke-width="3" marker-end="url(#a)" d="M500 150h50"/><path fill="none" stroke="#fff" stroke-width="3" marker-end="url(#a)" d="M450 180v50"/><path fill="none" stroke="#fff" stroke-width="3" marker-end="url(#a)" d="M600 180v50"/><rect width="100" height="50" x="400" y="230" fill="rgba(46, 91, 255, 0.2)" stroke="#5ce2e7" stroke-width="2" rx="15" ry="15"/><text x="450" y="260" fill="#fff" font-family="Arial, sans-serif" font-size="24" text-anchor="middle">Corpus</text><rect width="100" height="50" x="550" y="230" fill="rgba(46, 91, 255, 0.2)" stroke="#5ce2e7" stroke-width="2" rx="15" ry="15"/><text x="600" y="260" fill="#fff" font-family="Arial, sans-serif" font-size="24" text-anchor="middle">QA Data</text><defs><marker id="a" markerHeight="7" markerWidth="10" orient="auto" refX="9" refY="3.5"><path fill="#fff" d="m0 0 10 3.5L0 7z"/></marker></defs><circle cx="400" cy="150" r="200" fill="none" stroke="#5ce2e7" stroke-width=".5" opacity=".1"/><circle cx="400" cy="150" r="150" fill="none" stroke="#5ce2e7" stroke-width=".5" opacity=".1"/></svg>