<svg xmlns="http://www.w3.org/2000/svg" width="200" height="200"><style>@keyframes pulse{0%,to{transform:scale(1)}50%{transform:scale(1.05)}}@keyframes blink{0%,95%,to{transform:scaleY(1)}97.5%{transform:scaleY(.1)}}@keyframes antenna-wave{0%,to{transform:rotate(0deg)}25%{transform:rotate(-5deg)}75%{transform:rotate(5deg)}}.robot-body{fill:#fff}.robot-eyes{fill:#0a192f}</style><g style="transform:scale(.9);transform-origin:center"><g id="head"><path id="head-base" d="M70 40h60v30q0 10-10 10H80q-10 0-10-10z" class="robot-body"/><g id="antennas"><g style="animation:antenna-wave 3s infinite;transform-origin:bottom center"><circle cx="85" cy="25" r="7" class="robot-body"/><path d="M83 25h4v15h-4z" class="robot-body"/></g><g style="animation:antenna-wave 3s infinite .5s;transform-origin:bottom center"><circle cx="115" cy="25" r="7" class="robot-body"/><path d="M113 25h4v15h-4z" class="robot-body"/></g></g><circle cx="85" cy="60" r="6" class="robot-eyes" style="animation:blink 4s infinite;transform-origin:center"/><circle cx="115" cy="60" r="6" class="robot-eyes" style="animation:blink 4s infinite;transform-origin:center"/></g><g id="body"><g id="arms"><g id="left-arm"><path d="M55 100h10v30H55z" class="robot-body"/><circle cx="60" cy="140" r="5" class="robot-body"/><path d="M55 130h10v15q0 5-5 5t-5-5z" class="robot-body"/></g><g id="right-arm"><path d="M135 100h10v30h-10z" class="robot-body"/><circle cx="140" cy="140" r="5" class="robot-body"/><path d="M135 130h10v15q0 5-5 5t-5-5z" class="robot-body"/></g></g><path d="M100 115c-12-12-25-8-25 7 0 12 12 20 25 30 13-10 25-18 25-30 0-15-13-19-25-7" class="robot-body" style="animation:pulse 2s infinite;transform-origin:center"/></g></g></svg>