<svg xmlns="http://www.w3.org/2000/svg" aria-labelledby="title desc" viewBox="0 0 900 550"><desc id="desc">Visual representation of Divinci AI&apos;s comprehensive quality assurance process for enterprise LLM applications</desc><defs><linearGradient id="pipelineGradient" x1="0%" x2="100%" y1="0%" y2="0%"><stop offset="0%" stop-color="#2E5BFF" stop-opacity=".2"/><stop offset="33%" stop-color="#00D8D8" stop-opacity=".2"/><stop offset="66%" stop-color="#8C54FF" stop-opacity=".2"/><stop offset="100%" stop-color="#FFAB2D" stop-opacity=".2"/></linearGradient><filter id="qa-glow" width="140%" height="140%" x="-20%" y="-20%"><feGaussianBlur result="blur" stdDeviation="3"/><feComposite in="SourceGraphic" in2="blur"/></filter><style>@keyframes flowAnimation{0%{stroke-dashoffset:1000}to{stroke-dashoffset:0}}text{font-family:&quot;Inter&quot;,sans-serif;fill:#485262}.detail-text,.subtitle-text{font-size:14px;font-weight:400}.detail-text{font-size:12px}.animated-path{stroke-dasharray:5,3;animation:flowAnimation 20s linear infinite}.qa-box{fill:#f5f7fa;stroke-width:1.5;rx:4;ry:4}.performance-indicator-good{fill:#00d27a}</style></defs><rect width="100%" height="100%" style="fill:#f5f7fa"/><rect width="800" height="250" x="50" y="100" fill="url(#pipelineGradient)" opacity=".1" rx="10" ry="10"/><rect width="800" height="250" x="50" y="100" rx="10" ry="10" style="fill:#f5f7fa;stroke:#485262;stroke-width:1.5"/><text x="450" y="130" style="font-size:16px;font-weight:500" text-anchor="middle">LLM Quality Assurance Pipeline</text><path d="M155 250h160" class="animated-path" style="stroke:#2e5bff;stroke-width:2;fill:none"/><path d="M385 250h160" class="animated-path" style="stroke:#00d8d8;stroke-width:1.5;fill:none"/><path d="M615 250h160" class="animated-path" style="stroke:#8c54ff;stroke-width:1.5;fill:none"/><path stroke-dasharray="4,2" d="M845 250c25 0 25 50-395 50S30 250 85 250" class="animated-path" style="stroke:#ffab2d;stroke-width:1.5;fill:none"/><g transform="translate(120 250)"><circle r="35" style="fill:#f5f7fa;stroke:#2e5bff;stroke-width:2"/><text y="-5" class="subtitle-text" text-anchor="middle">Automated</text><text y="15" class="subtitle-text" text-anchor="middle">Testing</text><path d="M0 0h160v70H0z" class="qa-box" style="stroke:#2e5bff" transform="translate(-80 -100)"/><text x="80" y="20" class="subtitle-text" text-anchor="middle" transform="translate(-80 -100)">Test Generation</text><path stroke="#2E5BFF" stroke-dasharray="2,1" d="M0-70v40"/><text x="40" y="45" class="detail-text" text-anchor="middle" transform="translate(-80 -100)">User Scenarios</text><text x="40" y="60" class="detail-text" text-anchor="middle" transform="translate(-80 -100)">Edge Cases</text><text x="120" y="45" class="detail-text" text-anchor="middle" transform="translate(-80 -100)">Regression Tests</text><text x="120" y="60" class="detail-text" text-anchor="middle" transform="translate(-80 -100)">Red Teaming</text><path stroke="#2E5BFF" d="M0-35v-65"/></g><g transform="translate(350 250)"><circle r="35" style="fill:#f5f7fa;stroke:#00d8d8;stroke-width:2"/><text y="-5" class="subtitle-text" text-anchor="middle">Content</text><text y="15" class="subtitle-text" text-anchor="middle">Validation</text><path d="M0 0h160v70H0z" class="qa-box" style="stroke:#00d8d8" transform="translate(-80 -100)"/><text x="80" y="20" class="subtitle-text" text-anchor="middle" transform="translate(-80 -100)">Validation Engine</text><path stroke="#00D8D8" stroke-dasharray="2,1" d="M0-70v40"/><text x="40" y="45" class="detail-text" text-anchor="middle" transform="translate(-80 -100)">Fact Checking</text><text x="40" y="60" class="detail-text" text-anchor="middle" transform="translate(-80 -100)">Hallucination</text><text x="120" y="45" class="detail-text" text-anchor="middle" transform="translate(-80 -100)">Bias Detection</text><text x="120" y="60" class="detail-text" text-anchor="middle" transform="translate(-80 -100)">Toxicity Filter</text><path stroke="#00D8D8" d="M0-35v-65"/></g><g transform="translate(580 250)"><circle r="35" style="fill:#f5f7fa;stroke:#8c54ff;stroke-width:2"/><text y="-5" class="subtitle-text" text-anchor="middle">Quality</text><text y="15" class="subtitle-text" text-anchor="middle">Analysis</text><path d="M0 0h160v70H0z" class="qa-box" style="stroke:#8c54ff" transform="translate(-80 -100)"/><text x="80" y="20" class="subtitle-text" text-anchor="middle" transform="translate(-80 -100)">Analytics Engine</text><path stroke="#8C54FF" stroke-dasharray="2,1" d="M0-70v40"/><text x="40" y="45" class="detail-text" text-anchor="middle" transform="translate(-80 -100)">Relevance</text><text x="40" y="60" class="detail-text" text-anchor="middle" transform="translate(-80 -100)">Consistency</text><text x="120" y="45" class="detail-text" text-anchor="middle" transform="translate(-80 -100)">Completeness</text><text x="120" y="60" class="detail-text" text-anchor="middle" transform="translate(-80 -100)">Compliance</text><path stroke="#8C54FF" d="M0-35v-65"/></g><g transform="translate(810 250)"><circle r="35" style="fill:#f5f7fa;stroke:#ffab2d;stroke-width:2"/><text y="-5" class="subtitle-text" text-anchor="middle">Continuous</text><text y="15" class="subtitle-text" text-anchor="middle">Monitoring</text><path d="M0 0h160v70H0z" class="qa-box" style="stroke:#ffab2d" transform="translate(-80 -100)"/><text x="80" y="20" class="subtitle-text" text-anchor="middle" transform="translate(-80 -100)">Monitoring System</text><path stroke="#FFAB2D" stroke-dasharray="2,1" d="M0-70v40"/><text x="40" y="45" class="detail-text" text-anchor="middle" transform="translate(-80 -100)">Performance</text><text x="40" y="60" class="detail-text" text-anchor="middle" transform="translate(-80 -100)">Anomalies</text><text x="120" y="45" class="detail-text" text-anchor="middle" transform="translate(-80 -100)">User Feedback</text><text x="120" y="60" class="detail-text" text-anchor="middle" transform="translate(-80 -100)">Drift Detection</text><path stroke="#FFAB2D" d="M0-35v-65"/></g><path d="M-350 0h700v60h-700z" style="fill:#f0f5ff;stroke:#2e5bff;stroke-width:1;rx:4;ry:4" transform="translate(450 450)"/><g transform="translate(170 480)"><circle r="15" class="performance-indicator-good"/><text y="5" class="detail-text" text-anchor="middle">✓</text><text y="30" class="detail-text" text-anchor="middle">Hallucination</text><text y="45" class="detail-text" text-anchor="middle">Reduction</text></g><g transform="translate(310 480)"><circle r="15" class="performance-indicator-good"/><text y="5" class="detail-text" text-anchor="middle">✓</text><text y="30" class="detail-text" text-anchor="middle">Testing</text><text y="45" class="detail-text" text-anchor="middle">Time Saved</text></g><g transform="translate(450 480)"><circle r="15" class="performance-indicator-good"/><text y="5" class="detail-text" text-anchor="middle">✓</text><text y="30" class="detail-text" text-anchor="middle">Compliance</text><text y="45" class="detail-text" text-anchor="middle">Rate</text></g><g transform="translate(590 480)"><circle r="15" class="performance-indicator-good"/><text y="5" class="detail-text" text-anchor="middle">✓</text><text y="30" class="detail-text" text-anchor="middle">Escalation</text><text y="45" class="detail-text" text-anchor="middle">Reduction</text></g><g transform="translate(730 480)"><circle r="15" class="performance-indicator-good"/><text y="5" class="detail-text" text-anchor="middle">✓</text><text y="30" class="detail-text" text-anchor="middle">Accuracy</text><text y="45" class="detail-text" text-anchor="middle">Rating</text></g></svg>