<svg xmlns="http://www.w3.org/2000/svg" aria-labelledby="title desc" viewBox="0 0 900 750"><desc id="desc">Visualization of Divinci AI&apos;s Release Cycle Management showing the complete development lifecycle for enterprise AI applications</desc><defs><linearGradient id="cycleGradient" x1="0%" x2="100%" y1="0%" y2="100%"><stop offset="0%" stop-color="#2E5BFF" stop-opacity=".2"/><stop offset="25%" stop-color="#00D8D8" stop-opacity=".2"/><stop offset="50%" stop-color="#8C54FF" stop-opacity=".2"/><stop offset="75%" stop-color="#FFAB2D" stop-opacity=".2"/><stop offset="100%" stop-color="#2E5BFF" stop-opacity=".2"/></linearGradient><filter id="glow" width="140%" height="140%" x="-20%" y="-20%"><feGaussianBlur result="blur" stdDeviation="5"/><feComposite in="SourceGraphic" in2="blur"/></filter><style>@keyframes circleAnimation{0%{stroke-dashoffset:500}to{stroke-dashoffset:0}}.secondary-connection{stroke:#00d8d8;stroke-width:1.5;fill:none}.tertiary-connection{stroke:#b0b7c3;stroke-width:1;stroke-dasharray:4,2;fill:none}text{font-family:&quot;Inter&quot;,sans-serif;fill:#485262}.title-text{font-size:16px;font-weight:500}.detail-text,.subtitle-text{font-size:14px;font-weight:400}.detail-text{font-size:12px}.feature-box{fill:#f5f7fa;stroke-width:1.5;rx:4;ry:4}.feature-box-dev{stroke:#2e5bff}.feature-box-test{stroke:#00d8d8}.feature-box-deploy{stroke:#8c54ff}.feature-box-monitor{stroke:#ffab2d}.performance-indicator-good{fill:#00d27a}@media screen and (max-width:768px){.title-text{font-size:14px}.subtitle-text{font-size:12px}.detail-text{font-size:10px}}@media screen and (max-width:480px){.title-text{font-size:12px}.subtitle-text{font-size:10px}.detail-text{font-size:8px}}</style></defs><rect width="100%" height="100%" style="fill:#f5f7fa"/><circle cx="450" cy="350" r="250" fill="url(#cycleGradient)" opacity=".1"/><circle cx="450" cy="350" r="250" style="stroke:#2e5bff;stroke-width:2;fill:none;stroke-dasharray:5,3;animation:circleAnimation 30s linear infinite"/><circle cx="450" cy="350" r="60" style="fill:#f5f7fa;stroke:#485262;stroke-width:1.5"/><text x="450" y="345" class="title-text" text-anchor="middle">AI Release</text><text x="450" y="365" class="title-text" text-anchor="middle">Cycle</text><g transform="translate(450 100)"><circle r="50" style="fill:#f5f7fa;stroke:#2e5bff;stroke-width:3;filter:drop-shadow(0 0 5px rgba(46,91,255,.5))"/><text y="5" class="subtitle-text" text-anchor="middle">Development</text><path d="m-40-20-60-40M0-40v-60M40-20l60-40" class="secondary-connection"/></g><g transform="translate(650 350)"><circle r="50" style="fill:#f5f7fa;stroke:#00d8d8;stroke-width:2"/><text y="5" class="subtitle-text" text-anchor="middle">Testing</text><path d="m20-40 40-60M40 0h60M20 40l40 60" class="secondary-connection"/></g><g transform="translate(450 600)"><circle r="50" style="fill:#f5f7fa;stroke:#8c54ff;stroke-width:2"/><text y="5" class="subtitle-text" text-anchor="middle">Deployment</text><path d="m-40 20-60 40M0 40v50M40 20l60 40" class="secondary-connection"/></g><g transform="translate(250 350)"><circle r="50" style="fill:#f5f7fa;stroke:#ffab2d;stroke-width:2"/><text y="5" class="subtitle-text" text-anchor="middle">Monitoring</text><path d="m-20-40-40-60M-40 0h-60M-20 40l-40 60" class="secondary-connection"/></g><path d="M320 40h100v40H320z" class="feature-box feature-box-dev"/><text x="50" y="25" class="detail-text" text-anchor="middle" transform="translate(320 40)">Prompt Versioning</text><path d="M450 20h100v40H450z" class="feature-box feature-box-dev"/><text x="50" y="25" class="detail-text" text-anchor="middle" transform="translate(450 20)">Model Registry</text><path d="M580 40h100v40H580z" class="feature-box feature-box-dev"/><text x="50" y="25" class="detail-text" text-anchor="middle" transform="translate(580 40)">Config Management</text><path d="M710 250h100v40H710z" class="feature-box feature-box-test"/><text x="50" y="25" class="detail-text" text-anchor="middle" transform="translate(710 250)">Statistical Validation</text><path d="M780 350h100v40H780z" class="feature-box feature-box-test"/><text x="50" y="25" class="detail-text" text-anchor="middle" transform="translate(780 350)">Regression Testing</text><path d="M710 450h100v40H710z" class="feature-box feature-box-test"/><text x="50" y="25" class="detail-text" text-anchor="middle" transform="translate(710 450)">Red Teaming</text><path d="M320 640h100v40H320z" class="feature-box feature-box-deploy"/><text x="50" y="25" class="detail-text" text-anchor="middle" transform="translate(320 640)">Canary Deployment</text><path d="M450 680h100v40H450z" class="feature-box feature-box-deploy"/><text x="50" y="25" class="detail-text" text-anchor="middle" transform="translate(450 680)">A/B Testing</text><path d="M580 640h100v40H580z" class="feature-box feature-box-deploy"/><text x="50" y="25" class="detail-text" text-anchor="middle" transform="translate(580 640)">Auto-Rollback</text><path d="M120 250h100v40H120z" class="feature-box feature-box-monitor"/><text x="50" y="25" class="detail-text" text-anchor="middle" transform="translate(120 250)">Performance Analytics</text><path d="M90 350h100v40H90z" class="feature-box feature-box-monitor"/><text x="50" y="25" class="detail-text" text-anchor="middle" transform="translate(90 350)">Anomaly Detection</text><path d="M120 450h100v40H120z" class="feature-box feature-box-monitor"/><text x="50" y="25" class="detail-text" text-anchor="middle" transform="translate(120 450)">User Feedback</text><path d="M485 145c45 55 45 155 0 205M485 555c45-55 45-155 0-205M415 555c-45-55-45-155 0-205M415 145c-45 55-45 155 0 205" class="tertiary-connection"/><g transform="translate(320 580)"><text y="50" class="subtitle-text" text-anchor="middle">Reduced Production Incidents</text><circle cx="-125" cy="45" r="5" class="performance-indicator-good"/></g><g transform="translate(450 100)"><text y="600" class="subtitle-text" text-anchor="middle">Faster AI Release Cycles</text><circle cx="-100" cy="595" r="5" class="performance-indicator-good"/></g><g transform="translate(680 500)"><text class="subtitle-text" text-anchor="middle">Improved Test Coverage</text><circle cx="-80" cy="-5" r="5" class="performance-indicator-good"/></g></svg>