<svg xmlns="http://www.w3.org/2000/svg" width="600" height="400"><defs><linearGradient id="a" x1="0%" x2="100%" y1="0%" y2="100%"><stop offset="0%" stop-color="#16214c"/><stop offset="100%" stop-color="#254284"/></linearGradient><pattern id="c" width="4" height="4" patternUnits="userSpaceOnUse"><path fill="#5ce2e7" fill-opacity=".05" d="M0 0h4v4H0z"/></pattern><filter id="b" width="200%" height="200%" x="-50%" y="-50%"><feGaussianBlur result="blur" stdDeviation="3"/><feComposite in="SourceGraphic" in2="blur"/></filter></defs><path fill="url(#a)" d="M0 0h600v400H0z"/><circle cx="100" cy="100" r="80" fill="none" stroke="#5ce2e7" stroke-opacity=".2"/><circle cx="500" cy="300" r="100" fill="none" stroke="#5ce2e7" stroke-opacity=".2"/><g stroke="#5ce2e7" stroke-opacity=".1" stroke-width=".5"><path d="M0 100h600M0 200h600M0 300h600M150 0v400M300 0v400M450 0v400"/></g><g filter="url(#b)" transform="translate(300 200)"><g transform="translate(-120)"><rect width="120" height="140" x="-60" y="-70" fill="#fff" rx="5"/><rect width="100" height="15" x="-50" y="-60" fill="#e0e0e0" rx="2"/><rect width="100" height="100" x="-50" y="-40" fill="url(#c)" rx="2"/><rect width="80" height="5" x="-40" y="-35" fill="#5ce2e7" opacity=".7" rx="2"/><rect width="60" height="5" x="-40" y="-25" fill="#e0e0e0" rx="2"/><rect width="70" height="5" x="-40" y="-15" fill="#e0e0e0" rx="2"/><rect width="50" height="5" x="-40" y="-5" fill="#e0e0e0" rx="2"/><rect width="80" height="5" x="-40" y="5" fill="#5ce2e7" opacity=".7" rx="2"/><rect width="65" height="5" x="-40" y="15" fill="#e0e0e0" rx="2"/><rect width="75" height="5" x="-40" y="25" fill="#e0e0e0" rx="2"/><rect width="55" height="5" x="-40" y="35" fill="#e0e0e0" rx="2"/><rect width="80" height="5" x="-40" y="45" fill="#5ce2e7" opacity=".7" rx="2"/><text y="80" fill="#16214c" font-family="Arial, sans-serif" font-size="12" text-anchor="middle">Client</text></g><g transform="translate(120)"><rect width="120" height="140" x="-60" y="-70" fill="#fff" rx="5"/><rect width="100" height="15" x="-50" y="-60" fill="#e0e0e0" rx="2"/><rect width="100" height="100" x="-50" y="-40" fill="url(#c)" rx="2"/><rect width="80" height="5" x="-40" y="-35" fill="#ff9f43" opacity=".7" rx="2"/><rect width="60" height="5" x="-40" y="-25" fill="#e0e0e0" rx="2"/><rect width="70" height="5" x="-40" y="-15" fill="#e0e0e0" rx="2"/><rect width="50" height="5" x="-40" y="-5" fill="#e0e0e0" rx="2"/><rect width="80" height="5" x="-40" y="5" fill="#ff9f43" opacity=".7" rx="2"/><rect width="65" height="5" x="-40" y="15" fill="#e0e0e0" rx="2"/><rect width="75" height="5" x="-40" y="25" fill="#e0e0e0" rx="2"/><rect width="55" height="5" x="-40" y="35" fill="#e0e0e0" rx="2"/><rect width="80" height="5" x="-40" y="45" fill="#ff9f43" opacity=".7" rx="2"/><text y="80" fill="#16214c" font-family="Arial, sans-serif" font-size="12" text-anchor="middle">API Server</text></g><path stroke="#5ce2e7" stroke-linecap="round" stroke-width="3" d="M-50 0H50"/><path fill="#5ce2e7" d="M50 0 40-5V5z"/><rect width="60" height="20" x="-30" y="-25" fill="#5ce2e7" fill-opacity=".2" rx="10"/><text y="-12" fill="#fff" font-family="Arial, sans-serif" font-size="10" text-anchor="middle">Request</text><path stroke="#ff9f43" stroke-linecap="round" stroke-width="3" d="M50-30H-50"/><path fill="#ff9f43" d="m-50-30 10-5v10z"/><rect width="60" height="20" x="-30" y="-55" fill="#ff9f43" fill-opacity=".2" rx="10"/><text y="-42" fill="#fff" font-family="Arial, sans-serif" font-size="10" text-anchor="middle">Response</text><rect width="10" height="10" x="-15" y="-5" fill="#5ce2e7" rx="2"><animate attributeName="x" dur="2s" repeatCount="indefinite" values="-15;15;45"/></rect><rect width="10" height="10" x="45" y="-35" fill="#ff9f43" rx="2"><animate attributeName="x" dur="2s" repeatCount="indefinite" values="45;15;-15"/></rect><g transform="translate(0 60)"><rect width="160" height="40" x="-80" y="-20" fill="#fff" fill-opacity=".9" rx="5"/><text y="-5" fill="#16214c" font-family="monospace" font-size="10" text-anchor="middle">{&quot;method&quot;: &quot;GET&quot;,</text><text y="10" fill="#16214c" font-family="monospace" font-size="10" text-anchor="middle">&quot;endpoint&quot;: &quot;/api/v1/data&quot;}</text></g></g><text x="300" y="340" fill="#fff" font-family="Arial, sans-serif" font-size="24" font-weight="bold" text-anchor="middle">API Integration</text><g transform="matrix(.4 0 0 .4 40 40)"><rect width="60" height="60" fill="#16214c" stroke="#fff" stroke-width="2" rx="10"/><text x="30" y="38" fill="#fff" font-family="Arial, sans-serif" font-size="40" font-weight="bold" text-anchor="middle">D</text></g></svg>