<svg xmlns="http://www.w3.org/2000/svg" width="600" height="400"><defs><linearGradient id="a" x1="0%" x2="100%" y1="0%" y2="100%"><stop offset="0%" stop-color="#16214c"/><stop offset="100%" stop-color="#254284"/></linearGradient><filter id="b" width="200%" height="200%" x="-50%" y="-50%"><feGaussianBlur result="blur" stdDeviation="5"/><feComposite in="SourceGraphic" in2="blur"/></filter></defs><path fill="url(#a)" d="M0 0h600v400H0z"/><circle cx="50" cy="50" r="80" fill="none" stroke="#5ce2e7" stroke-opacity=".2"/><circle cx="550" cy="350" r="100" fill="none" stroke="#5ce2e7" stroke-opacity=".2"/><circle cx="300" cy="200" r="150" fill="none" stroke="#5ce2e7" stroke-opacity=".15"/><g stroke="#5ce2e7" stroke-opacity=".1" stroke-width=".5"><path d="M0 100h600M0 200h600M0 300h600M150 0v400M300 0v400M450 0v400"/></g><g filter="url(#b)" transform="matrix(.8 0 0 .8 300 200)"><path fill="#fff" d="M0-80C-10-70-15-40-15 0v40c0 10 5 20 15 20s15-10 15-20V0c0-40-5-70-15-80"/><circle cy="-20" r="10" fill="#5ce2e7"/><path fill="#fff" d="m-15 30-25 30 25-10ZM15 30l25 30-25-10Z"/><path fill="#ff6b6b" d="M-15 40c0 10 5 20 15 20s15-10 15-20v10c0 10-5 20-15 20s-15-10-15-20Z"/><path fill="#ff9f43" d="M-10 60c0 30 5 40 10 60 5-20 10-30 10-60Z"/><path fill="#ffbe76" d="M-5 60c0 20 2.5 30 5 40 2.5-10 5-20 5-40Z"/></g><g fill="#5ce2e7"><circle cx="280" cy="260" r="4" opacity=".6"><animate attributeName="opacity" dur="2s" repeatCount="indefinite" values="0.6;0.2;0.6"/><animate attributeName="r" dur="2s" repeatCount="indefinite" values="4;6;4"/></circle><circle cx="320" cy="270" r="3" opacity=".5"><animate attributeName="opacity" dur="1.5s" repeatCount="indefinite" values="0.5;0.1;0.5"/><animate attributeName="r" dur="1.5s" repeatCount="indefinite" values="3;5;3"/></circle><circle cx="270" cy="280" r="5" opacity=".4"><animate attributeName="opacity" dur="2.5s" repeatCount="indefinite" values="0.4;0.1;0.4"/><animate attributeName="r" dur="2.5s" repeatCount="indefinite" values="5;7;5"/></circle><circle cx="330" cy="290" r="3" opacity=".6"><animate attributeName="opacity" dur="1.8s" repeatCount="indefinite" values="0.6;0.2;0.6"/><animate attributeName="r" dur="1.8s" repeatCount="indefinite" values="3;5;3"/></circle></g><text x="300" y="340" fill="#fff" font-family="Arial, sans-serif" font-size="24" font-weight="bold" text-anchor="middle">Getting Started</text><g transform="matrix(.4 0 0 .4 40 40)"><rect width="60" height="60" fill="#16214c" stroke="#fff" stroke-width="2" rx="10"/><text x="30" y="38" fill="#fff" font-family="Arial, sans-serif" font-size="40" font-weight="bold" text-anchor="middle">D</text></g></svg>