<svg xmlns="http://www.w3.org/2000/svg" width="600" height="400"><defs><linearGradient id="a" x1="0%" x2="100%" y1="0%" y2="100%"><stop offset="0%" stop-color="#16214c"/><stop offset="100%" stop-color="#254284"/></linearGradient><pattern id="b" width="20" height="20" patternUnits="userSpaceOnUse"><circle cx="10" cy="10" r="1" fill="#5ce2e7" fill-opacity=".3"/></pattern><filter id="c" width="200%" height="200%" x="-50%" y="-50%"><feGaussianBlur result="blur" stdDeviation="3"/><feComposite in="SourceGraphic" in2="blur"/></filter></defs><path fill="url(#a)" d="M0 0h600v400H0z"/><path fill="url(#b)" d="M0 0h600v400H0z"/><circle cx="150" cy="100" r="80" fill="none" stroke="#5ce2e7" stroke-opacity=".2"/><circle cx="450" cy="300" r="100" fill="none" stroke="#5ce2e7" stroke-opacity=".2"/><g stroke="#5ce2e7" stroke-opacity=".1" stroke-width=".5"><path d="M0 100h600M0 200h600M0 300h600M150 0v400M300 0v400M450 0v400"/></g><g filter="url(#c)" transform="translate(300 200)"><path stroke="#fff" stroke-opacity=".7" stroke-width="2" d="M-120 0h240M0-120v240"/><path stroke="#fff" stroke-dasharray="5,5" stroke-opacity=".7" stroke-width="2" d="m0 0 60-60"/><text x="125" y="15" fill="#fff" font-family="Arial, sans-serif" font-size="12" text-anchor="middle">X</text><text x="15" y="-125" fill="#fff" font-family="Arial, sans-serif" font-size="12" text-anchor="middle">Y</text><text x="70" y="-65" fill="#fff" font-family="Arial, sans-serif" font-size="12" text-anchor="middle">Z</text><path stroke="#5ce2e7" stroke-width="2" d="m0 0 80-40"/><circle cx="80" cy="-40" r="6" fill="#5ce2e7"/><text x="85" y="-45" fill="#fff" font-family="Arial, sans-serif" font-size="10">v1</text><path stroke="#ff9f43" stroke-width="2" d="m0 0-60-70"/><circle cx="-60" cy="-70" r="6" fill="#ff9f43"/><text x="-65" y="-75" fill="#fff" font-family="Arial, sans-serif" font-size="10">v2</text><path stroke="#ff6b6b" stroke-width="2" d="m0 0 40 90"/><circle cx="40" cy="90" r="6" fill="#ff6b6b"/><text x="45" y="95" fill="#fff" font-family="Arial, sans-serif" font-size="10">v3</text><path stroke="#1dd1a1" stroke-width="2" d="m0 0-90 30"/><circle cx="-90" cy="30" r="6" fill="#1dd1a1"/><text x="-95" y="35" fill="#fff" font-family="Arial, sans-serif" font-size="10">v4</text><path stroke="#feca57" stroke-width="2" d="m0 0 70 50"/><circle cx="70" cy="50" r="6" fill="#feca57"/><text x="75" y="55" fill="#fff" font-family="Arial, sans-serif" font-size="10">v5</text><g stroke="#fff" stroke-dasharray="3,3" stroke-opacity=".7"><path d="M80-40 70 50M-60-70-90 30"/></g><circle cx="75" cy="5" r="50" fill="none" stroke="#5ce2e7" stroke-opacity=".3"/><circle cx="-75" cy="-20" r="45" fill="none" stroke="#ff9f43" stroke-opacity=".3"/><circle r="8" fill="none" stroke="#fff" stroke-width="2"><animate attributeName="r" dur="3s" repeatCount="indefinite" values="8;60;8"/><animate attributeName="stroke-opacity" dur="3s" repeatCount="indefinite" values="1;0.2;1"/></circle></g><text x="300" y="340" fill="#fff" font-family="Arial, sans-serif" font-size="24" font-weight="bold" text-anchor="middle">Vector Embeddings</text><g transform="matrix(.4 0 0 .4 40 40)"><rect width="60" height="60" fill="#16214c" stroke="#fff" stroke-width="2" rx="10"/><text x="30" y="38" fill="#fff" font-family="Arial, sans-serif" font-size="40" font-weight="bold" text-anchor="middle">D</text></g></svg>