<svg xmlns="http://www.w3.org/2000/svg" width="600" height="400"><defs><linearGradient id="a" x1="0%" x2="100%" y1="0%" y2="100%"><stop offset="0%" stop-color="#16214c"/><stop offset="100%" stop-color="#254284"/></linearGradient><filter id="b" width="200%" height="200%" x="-50%" y="-50%"><feGaussianBlur result="blur" stdDeviation="3"/><feComposite in="SourceGraphic" in2="blur"/></filter></defs><path fill="url(#a)" d="M0 0h600v400H0z"/><circle cx="100" cy="100" r="80" fill="none" stroke="#5ce2e7" stroke-opacity=".2"/><circle cx="500" cy="300" r="100" fill="none" stroke="#5ce2e7" stroke-opacity=".2"/><g stroke="#5ce2e7" stroke-opacity=".1" stroke-width=".5"><path d="M0 100h600M0 200h600M0 300h600M150 0v400M300 0v400M450 0v400"/></g><g filter="url(#b)" transform="translate(300 200)"><g transform="translate(-10 10)"><rect width="120" height="160" x="-60" y="-80" fill="#fff" rx="5"/><rect width="100" height="10" x="-50" y="-70" fill="#e0e0e0" rx="2"/><rect width="100" height="5" x="-50" y="-55" fill="#e0e0e0" rx="2"/><rect width="80" height="5" x="-50" y="-45" fill="#e0e0e0" rx="2"/><rect width="100" height="5" x="-50" y="-35" fill="#e0e0e0" rx="2"/><rect width="90" height="5" x="-50" y="-25" fill="#e0e0e0" rx="2"/><rect width="100" height="5" x="-50" y="-15" fill="#e0e0e0" rx="2"/><rect width="70" height="5" x="-50" y="-5" fill="#e0e0e0" rx="2"/><rect width="100" height="5" x="-50" y="5" fill="#e0e0e0" rx="2"/><rect width="85" height="5" x="-50" y="15" fill="#e0e0e0" rx="2"/><rect width="100" height="5" x="-50" y="25" fill="#e0e0e0" rx="2"/><rect width="90" height="5" x="-50" y="35" fill="#e0e0e0" rx="2"/><rect width="100" height="5" x="-50" y="45" fill="#e0e0e0" rx="2"/><rect width="75" height="5" x="-50" y="55" fill="#e0e0e0" rx="2"/></g><g><rect width="120" height="160" x="-60" y="-80" fill="#fff" rx="5"/><rect width="100" height="10" x="-50" y="-70" fill="#e0e0e0" rx="2"/><rect width="100" height="5" x="-50" y="-55" fill="#e0e0e0" rx="2"/><rect width="80" height="5" x="-50" y="-45" fill="#e0e0e0" rx="2"/><rect width="100" height="5" x="-50" y="-35" fill="#e0e0e0" rx="2"/><rect width="90" height="5" x="-50" y="-25" fill="#e0e0e0" rx="2"/><rect width="100" height="5" x="-50" y="-15" fill="#e0e0e0" rx="2"/><rect width="70" height="5" x="-50" y="-5" fill="#e0e0e0" rx="2"/><rect width="100" height="5" x="-50" y="5" fill="#e0e0e0" rx="2"/><rect width="85" height="5" x="-50" y="15" fill="#e0e0e0" rx="2"/><rect width="100" height="5" x="-50" y="25" fill="#e0e0e0" rx="2"/><rect width="90" height="5" x="-50" y="35" fill="#e0e0e0" rx="2"/><rect width="100" height="5" x="-50" y="45" fill="#e0e0e0" rx="2"/><rect width="75" height="5" x="-50" y="55" fill="#e0e0e0" rx="2"/></g><g transform="translate(10 -10)"><rect width="120" height="160" x="-60" y="-80" fill="#fff" rx="5"/><rect width="100" height="10" x="-50" y="-70" fill="#5ce2e7" opacity=".7" rx="2"/><rect width="100" height="5" x="-50" y="-55" fill="#e0e0e0" rx="2"/><rect width="80" height="5" x="-50" y="-45" fill="#e0e0e0" rx="2"/><rect width="100" height="5" x="-50" y="-35" fill="#e0e0e0" rx="2"/><rect width="90" height="5" x="-50" y="-25" fill="#e0e0e0" rx="2"/><rect width="100" height="5" x="-50" y="-15" fill="#e0e0e0" rx="2"/><rect width="70" height="5" x="-50" y="-5" fill="#e0e0e0" rx="2"/><rect width="100" height="5" x="-50" y="5" fill="#e0e0e0" rx="2"/><rect width="85" height="5" x="-50" y="15" fill="#e0e0e0" rx="2"/><rect width="100" height="5" x="-50" y="25" fill="#e0e0e0" rx="2"/><rect width="90" height="5" x="-50" y="35" fill="#e0e0e0" rx="2"/><rect width="100" height="5" x="-50" y="45" fill="#e0e0e0" rx="2"/><rect width="75" height="5" x="-50" y="55" fill="#e0e0e0" rx="2"/></g><g transform="rotate(15 191.915 283.83)"><circle r="25" fill="none" stroke="#5ce2e7" stroke-width="4"/><path stroke="#5ce2e7" stroke-linecap="round" stroke-width="4" d="m20 20 20 20"/><circle r="20" fill="#5ce2e7" fill-opacity=".1"/></g><path fill="none" stroke="#5ce2e7" stroke-linecap="round" stroke-width="2" d="M-80-20c-20 20-20 60 0 80"/><path fill="#5ce2e7" d="m-80 60-5-10h10z"/><path fill="none" stroke="#5ce2e7" stroke-linecap="round" stroke-width="2" d="M80-20c20 20 20 60 0 80"/><path fill="#5ce2e7" d="m80 60-5-10h10z"/></g><text x="300" y="340" fill="#fff" font-family="Arial, sans-serif" font-size="24" font-weight="bold" text-anchor="middle">Document Processing</text><g transform="matrix(.4 0 0 .4 40 40)"><rect width="60" height="60" fill="#16214c" stroke="#fff" stroke-width="2" rx="10"/><text x="30" y="38" fill="#fff" font-family="Arial, sans-serif" font-size="40" font-weight="bold" text-anchor="middle">D</text></g></svg>