<svg xmlns="http://www.w3.org/2000/svg" width="400" height="400"><path d="m119 27 .778 1.389.528.361.805.667 1.833.86 1.556.473 1.5.25.667 1.5.333.556.917 1.944.75 2 .333 1 .583 2 .334 2 .083 2-.028 1-.222 2-.222 1-.389 1-.417 1-1.166 2-.695 1-1.167 1.944-.333.556L125 57l-1.5.778-.528.528-.916.805L120.722 61l-.611 2-.083 1-.028 2v34l-1 1-2.056-.028-1-.055-1.888-.334L112 100V60h-4l-.778-1.167-.528-.277-1.638-1.167-.834-.667-.833-.75-1.583-1.583-.778-.778-1.334-1.694-.444-.945L98.556 49l-.723-2-.36-1-.223-1-.194-2 .25-2 .305-1 .806-2 .777-2 .417-.972.5-.945 1.306-1.694 1.666-1.584.945-.777L106 28.722l2-.694 2-.417 1-.222 2-.306 2-.083h4m172 0 1.083 1.417 1.195 1.222L294.944 31l.834.695.833.722.75.805.75.861L299.333 36l.417 1 .611 2 .25 1 .306 2 .055 1-.055 2-.306 2-.389 1.944-.194 1.556L300 52l-1.972 1.472-.861.806-1.556 1.639-1.694 1.444-1.917 1-1.944.834-.556.305-1.5.5v39l-1 1h-5l-1-1V61l-1.5-.528-.556-.36-.972-.529-.889-.61-1.611-1.39-.639-.805-1.305-1.722-1.5-1.667-.75-.778-1.167-1.694-.389-.945-.5-1.972-.139-1-.055-1-.028-2v-2l.111-2 .5-2 .806-2 .694-1.944.278-1L272 31l1.5-.278 1.556-.639L277 29.056l2-.973 2-.666 2-.334 2-.083h6m-52 56 .778 1.222 1.333.89.917.416 1.972.61 1 .223 1 .25 1.944.306 1 .055L251 87l1 1v2h4l.778 1.167.528.25.75.528 1.444.61L261 93l.361 1.472.972 1.361.778.778 1.861 1.528.945.722 1.694 1.5.778.778 1.639 1.417L272 104l.111 1.5.583 1.556 1.167 1.944.667 1 1.055 2 .75 2 .334 1 .666 2 .667 2 .306 1 .305 1 .528 2 .222 1 .25 1 .195 1 .388 2 .195 1 .389 2 .139 1 .083 2v57h-40l-2 .028-1 .055-2 .306-1 .222-2 .306-2 .083H118l-1-1v-57l.083-2 .139-1 .389-2 .195-1 .388-2 .195-1 .472-2 .278-1 .25-1 .305-1 .639-2 .334-1 .666-1.972.361-.917.362-.778.527-.611.25-.361L124 112v-4l1.222-.778.361-.528.639-.777 1.222-1.695 1.389-1.611.695-.833.528-.806.666-1.472L131 98l1.417-.778.416-.5.834-.75.722-.777 1.694-1.473.945-.639 1.972-1.11 1-.556 2-1.278 1-.694 2-1.167 2-.834 1-.277 2-.528 2-.5 1-.278 2-.5 1-.25 2-.694 2-.806 2-.5 1-.083 1-.028h75m-62 43-1.5-.667-.556-.333-1.944-.917-2-.694-2-.528-1-.222-1-.25-2-.306-1-.055h-2l-1 .055-2 .417-1 .444-1.972 1.223-.945.694-1.666 1.528-1.417 1.694-.667.945-.639.972-.583 1-.805 2-.278 2-.028 1v4l.028 1 .083 1 .5 2 .417 1 .972 2 .528.972 1.194 1.778.695.778 1.666 1.278.945.583 1.972 1.194 1 .5 1 .417 2 .417 1 .055 2-.055 2-.306 1-.25 1-.25 2-.694 1-.445 1.972-.916.945-.445 1.666-1.111.695-.75 1.083-1.778.611-1.972.417-2 .222-1 .306-2 .055-1 .028-2-.083-2-.306-2-.25-1-.25-1-.694-2-.806-1.944-.278-.556zm49 26 1.75.667.528.194L229 154l1.5.083.556.139 1 .167.944.222 2 .306 2 .055 1-.055 1-.139.972-.195 1.806-.666.833-.473 1.611-1.055.806-.472 1.472-.639L248 151l.083-1.5.417-1.528.944-1.639 1.139-.972L252 145v-7l-.083-2-.334-2-.611-2-.389-1-.972-2-.972-1.944-.306-.556L248 125l-1.5-.667-.556-.305-1.944-.722-1-.223-1-.139-2-.333-1-.222-2-.306-1-.027-1 .027-2 .306-1 .25-2 .528-1 .305-2 .945-1.917 1.277-1.666 1.528-1.306 1.806-.5.972-.722 2-.25 1-.25 1-.306 2-.083 2 .028 1 .055 1 .334 2 .277 1 .723 2 1.083 2 1.472 1.944.75 1 .5.556zM86 223v28l-.028 2-.055 1-.306 2-.389 1.944-.194 1.556L85 261l1 1h13l.5-1.5.306-.556.722-1.944.389-2 .055-1 .028-1v-30l1-1h16l2 .083.944.139 1 .195L124 224v97l-1.25.75-.417.472-.75.667-.722.75-.667.694-1.111 1.25L118 327h-12l-1.444-2.056-.723-1-1.139-1.944-.583-2-.111-2v-16l-.028-1-.055-1-.334-2-.611-2-.889-1.917-.583-.861-.75-.833-1.778-1.528-.972-.722-1-.778-2-1.5-1-.694-1-.695-2-1.055-2-.723-1-.277-2-.334-2-.083h-1l-2-.083-2-.306-1-.222-2-.306-1-.055-1-.028h-3l-2-.028-1-.083-1-.195-1.944-.722-.556-.305L61 281v-57l2.056-.583 1-.195.944-.139 2-.083h19m211 1 1 1v11l.028 2 .055 1 .306 2 .222 1 .306 2 .055 1 .028 2v14h17v-32l.111-2 .222-.972 1-1.695.778-.611.917-.389 1.972-.305 2-.028h17v61h-18l-2 .028-1 .055-2 .306-1 .222-2 .306-1 .055-1.944.028H308v1l-1 2h-3l-.278 1.5-.666 1.556-.528.944-.667 1-1.194 2-.445 1-.916 2-.612 1-1.388 2-.584 1-.583 2-.028 1 .389 1.972 1 1.778.694.75 1.334.972L301 311l.25 1.5.361 1.556.306 1.888.055 1L302 319l-1.25.778-.417.5-1.555 1.416-.861.584L296 323l-2 .694-1 .528-2 1.084-2 .583-1 .083-1 .028h-10l-1-1v-95l.028-2 .083-1 .222-.972 1-1.695.778-.611 1.889-.611 2-.111h5l2 .028 1 .055 2 .306 1.944.389 1.556.194zm-103 21 .75 1.5.444.556 1.112 1.888.583 1.556.111 1.5h5l.25-2.056.25-1 1-1.861 1.583-1.694 1.834-1.583 1.694-1.584 1.611-1.278.861-.472.945-.333 1.972-.75 1-.472 1-.528 2-.917 2-.611 1-.222 1-.25 2-.306 1-.055 1-.028h7l.778 1.167.528.25.805.527 1.889.723 1 .333 2 .694 1 .417 1 .528 2 1.444.944.834 1 .777.556.528 1.5.778.361 1.472.333.5 1.195 1.639.722.778 1.278 1.694.472.945.528 1.916.083.556.028 1.5 1.222.361.889.972.389.778.417 1.889.083 2v4l-.083 2-.306 2-.222 1-.167 1-.278 2-.194 1-.25 1-.889 2-.555 1-.5 1-.945 1.917-1.083 1.694-.695.75-1.472 1.5-.75.778-.805.75-1.612 1.667-1.555 1.722-1.5 1.583-.778.778-1.5 1.5-1.5 1.583-.75.861-1.667 1.917-1.722 1.917-.805.861-1.417 1.611-.694.833-1.5 1.806-.778.916-.75 1-.5.556L227 310h-3l-.361 1.5-.361.556-.584 1-1.5 1.944-.805 1-1.611 1.917-.834.861-1.722 1.611-.833.805-.778.806-1.694 1.611-.945.778-1.944 1.694-.945.945-1.694 1.972-.75 1-.75 1-1.195 1.944-.583 1.556L204 336h-2.056l-1.944-.083-1.917-.417-.861-.444-1.583-1.306-.778-.833-1.5-1.917-.75-1-1.694-1.917-1.889-1.694-.945-.778-1.694-1.667-1.556-1.611-1.361-.972L182 321l-.361-1.5-.333-.556-1.195-1.916-1.472-1.806-.778-.833-1.5-1.528-1.555-1.5-.806-.75-1.611-1.611-1.583-1.528-1.584-1.305-.75-.639-1.305-1.611-.639-.945-1.611-1.972-1.917-2-1-1-1.917-2-.861-.972-1.583-1.806-1.389-1.555-.556-.834-.333-.416L155 289l-1.472-.111-1.361-.611-1.5-1.278-.834-.722-.416-.5L148 285l-.111-1.5-.611-1.556-.584-.944-1.388-2-.584-1-.416-1-.278-1-.445-2-.277-1-.612-2-.277-1-.334-2-.055-1-.028-1v-7h2l.028-1.5.222-1.556.25-.944.972-2 1.361-2 .723-.972.611-.945.639-.861.583-.833 1.305-1.583.723-.806 1.583-1.611.75-.722 1.167-1.25L156 240l1.5-.083 1.556-.334 1.944-.666 1-.445 2-.944 1-.445 2-.666 1-.195 1-.139 2-.083 2 .083 1 .139 1 .195 2 .583 1 .333 2 .667 2 .667 1 .361 1 .361 1 .444 1 .445 2 1.194 2 1.5.944.722 1 .584.556.361zM79 330l-1.5.083-.556.139-1 .167-.944.222-2 .306-1 .055-1.944.028H67l-.75-1.167-.472-.277-.667-.584-1.5-.972-.805-.5-1.528-1.111-.64-.695-1-1.722-.832-1.972-.417-1-.695-2-.277-1-.195-1-.139-1-.083-2v-4l1.167-.778.277-.528.584-.805.472-.917.5-.944 1-1.806 1.083-1.528 1.334-1.305 1.666-1.111 1.917-.806 1-.222 1-.167 2-.083h1l2 .028 1 .055 2 .389 1 .389 1 .417 1.917 1.194 1.694 1.611L84.194 305l1.584 2 .722 1 1 2 .25 1 .222 2v2l-.194 2-.195 1-.277 1-.723 2-1.083 2-.75 1-1.778 1.917-.944.861-.917.778-.805.777-.528.417zm258-28 .75 1.5.444.556 1.139 1.944.778 2 .5 2 .306 2 .055 1 .028 1v2l-.028 2-.083 1-.195 1-.805 2-.611 1-.695.972-1.666 1.806-1.806 1.555-.805.834-.528.416L333 330h-8l-1-.028-1-.055-1.944-.306-1.556-.361-1.5-.25-.75-1.417-.472-.416-.667-.806-.722-.667-1.306-1.388-1-1.528-.389-.861L312 320l-.583-2-.334-2-.055-1-.028-1.944V310h2l.111-2.056.222-1 1-1.861.75-.861.861-.805 1.667-1.417.778-.667 1.694-1.222 1.917-.805 1-.195 2-.111 2 .028 1 .055 2 .334 2 .666 1.944.889 1 .417.556.278zm-211 32 .778 1.167.528.25.805.527 1.833.639 1 .195.556.139 1.5.083 1.472 1.972 1.528 1.639 1.528 1.611 1.25 1.695.639.777.361.528L141 346l.083 1.5.139.556.417 1.944.528 2 .277 1 .389 1 .778 2 .695 2 .277 1 .195 1 .139 1 .083 2v18l-1 1H86v-42l.083-2 .14-.944.194-1L87 334zm182 0 .778 1.167.5.277.75.612 1.472 1.25.556.805.777 1.889.334 1 .277 1 .723 2 .583 2 .167 1 .083 2v24l-.083 2-.167 1-.222 1-.75 1.944-.556 1-.222.556-1 1.5h-3.056l-1.944-.028-1-.055-2-.306-1-.194-2-.111-2 .305-2 .306-1 .055-2 .028h-41v-2.056l.028-1 .083-.944.528-2 .472-1 1.195-2 1.055-1.944.528-1.556.111-1.5-1.5-.278-1.5-.583-.5-.167L252 366v-7l1.5-.806.5-.166 1.5-.584L257 357v-13h8l1-1v-8l1-1zm-8 7 .111 1.5.195.556.305 1 .778 1.944.305 1 .195 2-.111 1-.389 2-.306 2-.055 1-.028 2v17l.028 1 .028.944.194 1 .028.556.722 1.5 2.028-.333.916-.389 1.334-1.389.611-1.889.083-1 .028-1v-24l-.111-2-.611-2-1.389-1.889-1.833-1.389-1.556-.611z" style="fill:#fff"/></svg>