<svg xmlns="http://www.w3.org/2000/svg" width="1000" height="1000"><circle cx="500" cy="500" r="500" fill="#091442"/><circle cx="500" cy="500" r="450" fill="none" stroke="#2a3779" opacity=".5"/><g transform="translate(430 310)"><rect width="140" height="100" fill="#fff" rx="20"/><circle cx="35" cy="50" r="20" fill="#091442"/><circle cx="105" cy="50" r="20" fill="#091442"/><path stroke="#fff" stroke-width="10" d="M30 0v-40"/><circle cx="30" cy="-50" r="10" fill="#fff"/><path stroke="#fff" stroke-width="10" d="M110 0v-40"/><circle cx="110" cy="-50" r="10" fill="#fff"/></g><g fill="#fff"><path d="m430 450-20 80h-60v70h300v-70h-60l-20-80Z"/><path d="M500 490c-30-40-90-30-90 20s60 60 90 90c30-30 90-40 90-90s-60-60-90-20"/></g><g transform="translate(170 600)"><rect width="80" height="100" fill="#091442" stroke="#44CF6C" stroke-width="2" rx="10"/><path fill="#44CF6C" d="M10 10h60v10H10zM10 30h60v10H10zM10 50h60v10H10zM10 70h40v10H10z" opacity=".5"/><filter id="a"><feGaussianBlur result="blur" stdDeviation="5"/><feComposite in="SourceGraphic" in2="blur"/></filter><rect width="80" height="100" fill="none" stroke="#44CF6C" stroke-width="2" filter="url(#a)" rx="10"/></g><g transform="translate(550 230)"><rect width="100" height="80" fill="#091442" stroke="#3B85F5" stroke-width="2" rx="15"/><circle cx="25" cy="25" r="12" fill="#3B85F5" opacity=".5"/><circle cx="60" cy="25" r="12" fill="#3B85F5" opacity=".5"/><rect width="60" height="20" x="20" y="50" fill="#3B85F5" opacity=".5" rx="5"/><filter id="b"><feGaussianBlur result="blur" stdDeviation="5"/><feComposite in="SourceGraphic" in2="blur"/></filter><rect width="100" height="80" fill="none" stroke="#3B85F5" stroke-width="2" filter="url(#b)" rx="15"/></g><g transform="translate(750 600)"><rect width="80" height="80" fill="#091442" stroke="#E73C7E" stroke-width="2" rx="15"/><path fill="none" stroke="#E73C7E" stroke-width="3" d="m30 20 20-5v40c0 10-20 10-20 0s20-10 20 0"/><circle cx="30" cy="55" r="10" fill="#E73C7E" opacity=".5"/><filter id="c"><feGaussianBlur result="blur" stdDeviation="5"/><feComposite in="SourceGraphic" in2="blur"/></filter><rect width="80" height="80" fill="none" stroke="#E73C7E" stroke-width="2" filter="url(#c)" rx="15"/></g></svg>