<svg xmlns="http://www.w3.org/2000/svg" width="1200" height="630"><defs><linearGradient id="a" x1="0%" x2="100%" y1="0%" y2="100%"><stop offset="0%" stop-color="#16214c"/><stop offset="100%" stop-color="#254284"/></linearGradient><linearGradient id="b" x1="0%" x2="100%" y1="0%" y2="0%"><stop offset="0%" stop-color="#fff"/><stop offset="100%" stop-color="#5ce2e7"/></linearGradient></defs><path fill="url(#a)" d="M0 0h1200v630H0z"/><circle cx="200" cy="150" r="100" fill="none" stroke="#5ce2e7" stroke-width="2" opacity=".2"/><circle cx="1000" cy="480" r="150" fill="none" stroke="#5ce2e7" stroke-width="2" opacity=".2"/><circle cx="600" cy="100" r="50" fill="none" stroke="#5ce2e7" stroke-width="2" opacity=".1"/><circle cx="400" cy="500" r="80" fill="none" stroke="#5ce2e7" stroke-width="2" opacity=".1"/><rect width="300" height="350" x="150" y="150" fill="#fff" stroke="#5ce2e7" stroke-width="2" opacity=".1" rx="10"/><path stroke="#5ce2e7" stroke-width="2" d="M180 200h240" opacity=".5"/><path stroke="#5ce2e7" stroke-width="2" d="M180 240h240M180 280h240M180 320h240M180 360h240M180 400h240M180 440h240" opacity=".3"/><text x="750" y="250" fill="url(#b)" font-family="Sora, Arial, sans-serif" font-size="56" font-weight="bold" text-anchor="middle">Building Responsible AI</text><text x="750" y="310" fill="url(#b)" font-family="Sora, Arial, sans-serif" font-size="56" font-weight="bold" text-anchor="middle">Systems</text><text x="750" y="380" fill="#fff" font-family="Sora, Arial, sans-serif" font-size="28" opacity=".9" text-anchor="middle">Learn how to build AI systems that are</text><text x="750" y="420" fill="#fff" font-family="Sora, Arial, sans-serif" font-size="28" opacity=".9" text-anchor="middle">ethical, transparent, and beneficial</text><circle cx="650" cy="480" r="30" fill="#5ce2e7" stroke="#5ce2e7" stroke-width="2" opacity=".2"/><text x="650" y="490" fill="#fff" font-family="Arial, sans-serif" font-size="20" text-anchor="middle">👨‍💻</text><text x="750" y="485" fill="#fff" font-family="Sora, Arial, sans-serif" font-size="20" text-anchor="middle">By Paul-Marie Carfantan</text><text x="600" y="580" fill="#fff" font-family="Arial, sans-serif" font-size="24" opacity=".7" text-anchor="middle">divinci.ai/blog/responsible-ai-systems</text></svg>