<svg xmlns="http://www.w3.org/2000/svg" width="1200" height="630"><defs><linearGradient id="a" x1="0%" x2="100%" y1="0%" y2="100%"><stop offset="0%" stop-color="#16214c"/><stop offset="100%" stop-color="#254284"/></linearGradient><linearGradient id="b" x1="0%" x2="100%" y1="0%" y2="0%"><stop offset="0%" stop-color="#fff"/><stop offset="100%" stop-color="#5ce2e7"/></linearGradient></defs><path fill="url(#a)" d="M0 0h1200v630H0z"/><circle cx="200" cy="150" r="100" fill="none" stroke="#5ce2e7" stroke-width="2" opacity=".2"/><circle cx="1000" cy="480" r="150" fill="none" stroke="#5ce2e7" stroke-width="2" opacity=".2"/><circle cx="600" cy="100" r="50" fill="none" stroke="#5ce2e7" stroke-width="2" opacity=".1"/><circle cx="400" cy="500" r="80" fill="none" stroke="#5ce2e7" stroke-width="2" opacity=".1"/><rect width="200" height="120" x="250" y="180" fill="#5ce2e7" stroke="#5ce2e7" stroke-width="2" opacity=".2" rx="10"/><path stroke="#5ce2e7" stroke-width="2" d="M270 210h160" opacity=".5"/><path stroke="#5ce2e7" stroke-width="2" d="M270 240h160M270 270h160" opacity=".3"/><rect width="200" height="120" x="500" y="180" fill="#5ce2e7" stroke="#5ce2e7" stroke-width="2" opacity=".2" rx="10"/><path stroke="#5ce2e7" stroke-width="2" d="M520 210h160" opacity=".5"/><path stroke="#5ce2e7" stroke-width="2" d="M520 240h160M520 270h160" opacity=".3"/><rect width="200" height="120" x="750" y="180" fill="#5ce2e7" stroke="#5ce2e7" stroke-width="2" opacity=".2" rx="10"/><path stroke="#5ce2e7" stroke-width="2" d="M770 210h160" opacity=".5"/><path stroke="#5ce2e7" stroke-width="2" d="M770 240h160M770 270h160" opacity=".3"/><text x="600" y="380" fill="url(#b)" font-family="Sora, Arial, sans-serif" font-size="72" font-weight="bold" text-anchor="middle">Blog</text><text x="600" y="450" fill="#fff" font-family="Sora, Arial, sans-serif" font-size="32" opacity=".9" text-anchor="middle">Insights on AI, RAG systems, and more</text><text x="600" y="580" fill="#fff" font-family="Arial, sans-serif" font-size="24" opacity=".7" text-anchor="middle">divinci.ai/blog</text></svg>