<svg xmlns="http://www.w3.org/2000/svg" width="1200" height="630"><defs><linearGradient id="a" x1="0%" x2="100%" y1="0%" y2="100%"><stop offset="0%" stop-color="#16214c"/><stop offset="100%" stop-color="#254284"/></linearGradient><linearGradient id="b" x1="0%" x2="100%" y1="0%" y2="0%"><stop offset="0%" stop-color="#fff"/><stop offset="100%" stop-color="#5ce2e7"/></linearGradient></defs><path fill="url(#a)" d="M0 0h1200v630H0z"/><circle cx="200" cy="150" r="100" fill="none" stroke="#5ce2e7" stroke-width="2" opacity=".2"/><circle cx="1000" cy="480" r="150" fill="none" stroke="#5ce2e7" stroke-width="2" opacity=".2"/><circle cx="600" cy="100" r="50" fill="none" stroke="#5ce2e7" stroke-width="2" opacity=".1"/><circle cx="400" cy="500" r="80" fill="none" stroke="#5ce2e7" stroke-width="2" opacity=".1"/><rect width="120" height="160" x="200" y="200" fill="#5ce2e7" stroke="#5ce2e7" stroke-width="2" opacity=".2" rx="10"/><path stroke="#5ce2e7" stroke-width="2" d="M220 230h80" opacity=".5"/><path stroke="#5ce2e7" stroke-width="2" d="M220 260h80M220 290h80M220 320h80" opacity=".3"/><circle cx="450" cy="280" r="80" fill="#5ce2e7" stroke="#5ce2e7" stroke-width="2" opacity=".15"/><text x="450" y="290" fill="#fff" font-family="Arial, sans-serif" font-size="20" text-anchor="middle">Retrieval</text><path stroke="#5ce2e7" stroke-width="2" d="M330 280h30"/><path fill="#5ce2e7" d="m370 280-10-5v10z"/><circle cx="700" cy="280" r="80" fill="#5ce2e7" stroke="#5ce2e7" stroke-width="2" opacity=".15"/><text x="700" y="290" fill="#fff" font-family="Arial, sans-serif" font-size="20" text-anchor="middle">Generation</text><path stroke="#5ce2e7" stroke-width="2" d="M540 280h70"/><path fill="#5ce2e7" d="m620 280-10-5v10z"/><rect width="150" height="100" x="850" y="230" fill="#5ce2e7" stroke="#5ce2e7" stroke-width="2" opacity=".2" rx="10"/><text x="925" y="290" fill="#fff" font-family="Arial, sans-serif" font-size="20" text-anchor="middle">Response</text><path stroke="#5ce2e7" stroke-width="2" d="M790 280h50"/><path fill="#5ce2e7" d="m850 280-10-5v10z"/><text x="600" y="420" fill="url(#b)" font-family="Sora, Arial, sans-serif" font-size="48" font-weight="bold" text-anchor="middle">The Future of RAG Systems</text><text x="600" y="480" fill="#fff" font-family="Sora, Arial, sans-serif" font-size="28" opacity=".9" text-anchor="middle">Beyond Simple Document Retrieval</text><text x="600" y="530" fill="#fff" font-family="Sora, Arial, sans-serif" font-size="20" opacity=".7" text-anchor="middle">By Michael Mooring</text><text x="600" y="580" fill="#fff" font-family="Arial, sans-serif" font-size="20" opacity=".7" text-anchor="middle">divinci.ai/blog</text></svg>